<?xml version="1.0" standalone="no"?>
<!DOCTYPE svg PUBLIC "-//W3C//DTD SVG 20010904//EN"
 "http://www.w3.org/TR/2001/REC-SVG-20010904/DTD/svg10.dtd">
<svg version="1.0" xmlns="http://www.w3.org/2000/svg"
 width="1280.000000pt" height="501.000000pt" viewBox="0 0 1280.000000 501.000000"
 preserveAspectRatio="xMidYMid meet">

<g transform="translate(0.000000,501.000000) scale(0.100000,-0.100000)"
fill="#000000" stroke="none">
<path d="M5915 4281 c-6 -5 -46 -29 -90 -53 -83 -47 -314 -179 -375 -216 -19
-12 -54 -31 -76 -44 -151 -83 -263 -155 -260 -164 3 -7 -3 -10 -13 -7 -43 11
-141 -120 -141 -188 0 -43 9 -60 28 -50 14 8 17 3 19 -33 l2 -41 -14 30 c-7
17 -14 24 -14 16 -2 -34 59 -105 115 -134 25 -13 31 -13 51 0 12 8 28 13 35
10 8 -3 1 -9 -16 -16 -16 -6 -26 -14 -23 -17 3 -4 46 -30 94 -59 73 -44 91
-51 108 -42 19 9 19 9 5 -8 -9 -11 -10 -16 -2 -11 6 4 12 3 12 -2 0 -14 51
-35 95 -39 40 -4 75 -26 62 -39 -4 -4 -15 0 -24 8 -16 14 -72 34 -60 21 7 -6
99 -57 147 -81 19 -9 37 -20 40 -23 3 -3 21 -14 40 -25 19 -10 38 -23 42 -28
8 -12 58 9 58 24 0 6 -10 5 -26 -2 -20 -10 -27 -9 -34 2 -5 8 -7 17 -4 19 9 9
94 9 94 0 0 -5 0 -12 0 -16 0 -5 -5 -8 -10 -8 -6 0 -14 -5 -18 -11 -4 -6 -14
-13 -22 -16 -10 -3 -1 -12 27 -26 23 -12 50 -19 60 -16 14 5 15 4 4 -4 -11 -8
-5 -16 29 -37 24 -15 55 -29 69 -32 113 -20 152 -12 144 32 -4 20 -1 25 16 25
11 0 21 5 21 10 0 6 -5 10 -11 10 -6 0 -7 5 -2 13 7 12 9 17 12 36 0 5 10 7
21 4 16 -4 20 0 20 18 1 22 1 23 11 5 7 -11 8 -21 2 -25 -14 -9 -23 -40 -13
-46 4 -3 11 0 13 5 3 6 4 5 3 -2 -4 -14 -8 -14 -41 -3 -14 5 -16 4 -6 -3 10
-7 10 -11 1 -17 -9 -6 -9 -10 1 -17 10 -7 8 -8 -8 -3 -25 7 -41 -12 -23 -28
10 -9 11 -9 6 1 -5 8 0 12 14 12 11 0 23 7 26 15 4 8 12 15 18 15 12 0 20 14
56 92 27 58 -17 216 -56 201 -7 -3 -11 -9 -8 -14 7 -12 -29 2 -38 15 -4 6 -10
7 -14 3 -4 -3 2 -14 13 -24 17 -16 19 -27 14 -88 -5 -52 -10 -69 -20 -67 -9 2
-12 -4 -8 -18 3 -11 1 -20 -4 -20 -13 0 -11 22 5 61 13 32 13 73 -1 109 -9 21
-10 28 -12 46 -1 13 -9 16 -41 11 -40 -5 -51 3 -27 20 20 15 71 17 62 2 -5 -8
-4 -10 3 -5 7 4 12 14 12 22 0 8 -4 12 -10 9 -5 -3 -10 -2 -10 3 0 13 -88 64
-102 60 -7 -3 13 -18 43 -36 30 -17 46 -32 37 -32 -9 0 -20 5 -23 10 -3 6 -11
10 -16 10 -6 0 -8 -4 -5 -8 8 -13 -53 -5 -71 10 -15 11 -16 11 -10 -4 3 -10 3
-19 -1 -22 -4 -2 -9 6 -10 19 -1 16 5 26 19 30 12 4 18 12 15 21 -3 8 0 14 7
14 7 0 -10 13 -38 29 -27 15 -82 47 -121 69 -71 42 -104 52 -104 31 0 -6 7 -8
16 -5 9 4 28 -1 42 -10 22 -15 23 -18 9 -26 -11 -6 -23 -5 -34 2 -16 9 -15 10
5 5 12 -4 22 -2 22 3 0 14 -34 25 -38 13 -5 -16 -19 -13 -26 5 -4 9 -1 24 6
32 11 13 11 14 0 8 -12 -7 -41 17 -42 36 0 4 28 22 63 41 86 47 192 108 327
188 130 77 163 114 178 198 17 95 -18 172 -104 227 -47 30 -61 34 -122 34 -37
0 -72 -4 -77 -9z m-740 -461 c-3 -5 -11 -10 -16 -10 -6 0 -7 5 -4 10 3 6 11
10 16 10 6 0 7 -4 4 -10z m53 -32 c8 -8 12 -8 12 -1 0 13 48 5 57 -10 3 -5 1
-7 -5 -3 -6 3 -14 2 -17 -4 -4 -6 -15 -8 -26 -5 -11 4 -19 2 -19 -4 0 -6 -10
-11 -22 -11 -21 1 -21 2 -5 11 9 5 17 15 17 22 0 8 -3 8 -8 2 -9 -12 -82 -18
-82 -6 0 5 13 7 30 5 16 -2 32 1 35 6 8 13 18 13 33 -2z m-137 -22 c-9 -11 -9
-15 1 -19 7 -3 4 -6 -8 -6 -32 -1 -37 11 -12 30 26 20 37 17 19 -5z m255 -12
c17 -14 17 -15 1 -10 -10 3 -23 6 -28 6 -5 0 -9 5 -9 10 0 14 13 12 36 -6z
m-301 -49 c1 -20 -1 -31 -5 -25 -5 8 -9 6 -14 -6 -3 -9 -4 -19 -1 -22 3 -3 5
0 5 6 0 8 7 9 24 2 13 -5 27 -6 30 -3 3 4 6 1 6 -5 0 -7 -7 -12 -15 -12 -8 0
-15 -6 -16 -12 0 -9 -2 -9 -6 1 -4 10 -7 11 -13 1 -14 -23 -32 1 -26 34 l6 31
-21 -25 c-22 -26 -22 -23 1 25 31 65 41 67 45 10z m247 -45 l-4 -86 65 1 c36
0 69 4 73 8 11 10 44 9 44 -2 0 -16 -22 -24 -30 -11 -4 7 -10 8 -13 3 -7 -11
-127 -11 -144 0 -17 11 -18 147 -2 147 8 0 8 4 0 13 -8 10 -7 14 2 14 10 0 12
-21 9 -87z m-162 56 c0 -8 -5 -18 -11 -21 -6 -4 -8 -13 -5 -21 3 -8 3 -14 0
-14 -8 0 -24 51 -18 61 8 14 34 10 34 -5z m358 -39 c31 -17 39 -26 32 -37 -7
-10 -10 -11 -10 -2 0 17 -25 15 -40 -3 -7 -8 -19 -15 -26 -15 -22 0 -16 28 7
35 19 6 20 8 3 26 -22 25 -15 24 34 -4z m85 -53 c18 -9 39 -20 47 -24 22 -11
26 -42 4 -38 -12 2 -20 -5 -25 -22 l-7 -25 -1 28 c-1 15 4 27 9 27 23 0 8 16
-30 33 -22 9 -40 21 -40 27 0 14 7 13 43 -6z m-443 -29 c0 -18 -4 -23 -15 -19
-9 4 -15 1 -15 -7 0 -19 -18 2 -22 26 -2 16 2 19 21 17 16 -3 21 0 16 9 -5 8
-4 10 3 5 7 -4 12 -18 12 -31z m375 5 c-3 -5 -10 -10 -16 -10 -5 0 -9 5 -9 10
0 6 7 10 16 10 8 0 12 -4 9 -10z m-405 -63 c14 -17 19 -28 13 -24 -8 5 -13 3
-13 -3 0 -6 -4 -8 -10 -5 -5 3 -20 -1 -32 -11 -23 -16 -22 -16 16 -11 34 5 36
5 21 -7 -10 -7 -28 -11 -39 -9 -21 4 -21 4 -1 -8 11 -7 28 -22 37 -33 11 -13
17 -16 18 -8 0 7 5 10 10 7 11 -7 4 -25 -9 -25 -4 0 -18 9 -31 20 -13 11 -26
20 -30 20 -4 0 -12 10 -17 23 -8 18 -7 31 7 59 10 21 15 39 12 42 -3 4 1 6 9
5 8 0 25 -14 39 -32z m-73 -9 c-3 -8 -6 -5 -6 6 -1 11 2 17 5 13 3 -3 4 -12 1
-19z m657 -30 c-5 -7 -3 -8 5 -4 7 5 21 0 31 -9 10 -9 24 -14 29 -10 7 4 11
-4 11 -19 0 -32 14 -33 34 -4 16 22 46 34 46 17 0 -5 16 -17 37 -27 l36 -19
-27 -7 c-16 -4 -33 -3 -39 2 -23 17 -57 21 -57 6 0 -8 -7 -14 -15 -14 -8 0
-15 4 -15 9 0 5 -23 14 -51 21 -28 7 -53 19 -56 26 -8 21 4 44 22 44 10 0 13
-5 9 -12z m-561 -41 c3 -8 -3 -14 -14 -14 -21 -2 -26 13 -6 20 6 3 13 6 13 6
1 1 4 -5 7 -12z m521 -34 c-4 -14 -11 -19 -25 -16 -26 7 -25 33 1 28 11 -2 20
1 20 7 0 6 2 9 5 7 2 -3 2 -14 -1 -26z m-209 -24 c0 -22 -32 -22 -38 0 -4 17
-1 20 16 17 12 -2 22 -9 22 -17z m505 17 c0 -3 -4 -8 -10 -11 -5 -3 -10 -1
-10 4 0 6 5 11 10 11 6 0 10 -2 10 -4z m-660 -21 c0 -8 -6 -15 -14 -15 -8 0
-16 -7 -20 -15 -8 -23 -76 -17 -76 7 0 6 8 4 17 -3 15 -12 16 -12 10 4 -5 13
-1 17 18 17 13 0 27 5 30 10 10 15 35 12 35 -5z m111 -48 c4 -15 4 -25 1 -23
-4 2 -20 -2 -37 -10 -16 -8 -21 -12 -11 -9 16 5 17 3 6 -10 -15 -18 -35 -20
-24 -3 5 8 2 9 -10 5 -11 -4 -28 1 -43 13 -14 11 -22 20 -18 20 5 0 16 -7 25
-15 21 -19 50 -9 50 17 0 10 -4 17 -9 13 -5 -3 -12 -1 -16 5 -4 6 -11 8 -16 5
-5 -3 -6 0 -3 8 3 10 20 14 51 13 42 -1 47 -4 54 -29z m24 -97 c-3 -5 -2 -10
4 -10 5 0 11 6 14 13 4 10 7 10 18 0 15 -15 43 -18 35 -4 -4 5 3 7 13 4 13 -3
18 -10 14 -20 -5 -13 -1 -15 21 -9 17 4 25 3 22 -3 -7 -10 16 -37 36 -43 10
-4 9 -8 -2 -20 -11 -10 -22 -13 -38 -7 -31 12 -28 21 4 13 19 -5 25 -4 20 5
-4 6 -16 11 -26 11 -11 0 -24 8 -29 19 -9 16 -71 38 -95 32 -4 -1 -18 1 -30 5
-21 7 -21 7 -1 15 27 10 27 10 20 -1z m340 -1 c2 -3 -26 -5 -65 -4 -38 0 -71
3 -74 6 -3 3 26 5 64 4 38 -1 72 -3 75 -6z m-147 -17 c2 -7 -2 -10 -12 -6 -9
3 -16 11 -16 16 0 13 23 5 28 -10z m583 -14 c13 -24 13 -92 0 -148 l-8 -35 -6
35 c-11 66 -15 132 -6 123 4 -4 10 -28 12 -53 3 -30 4 -25 2 14 -1 35 -6 61
-13 64 -14 4 -16 22 -2 22 5 0 15 -10 21 -22z m-554 -54 c-3 -3 -12 -4 -19 -1
-8 3 -5 6 6 6 11 1 17 -2 13 -5z m37 -3 c3 -5 -1 -14 -9 -21 -19 -16 -19 -25
1 -44 26 -26 -1 -18 -30 9 -15 14 -32 22 -38 19 -6 -4 -9 -1 -6 7 3 8 16 13
32 11 18 -2 26 2 26 13 0 16 15 20 24 6z m3 -53 c-3 -8 -6 -5 -6 6 -1 11 2 17
5 13 3 -3 4 -12 1 -19z m243 -27 c0 -12 -28 -22 -34 -12 -3 5 -3 11 1 15 9 9
33 7 33 -3z m-49 -44 c-21 -21 -16 -24 38 -29 21 -3 21 -36 -1 -50 -10 -6 -10
-8 0 -8 6 0 12 -6 12 -12 0 -7 -13 2 -30 20 -16 18 -30 37 -30 43 0 8 -13 13
-31 11 -5 -1 -5 40 0 44 0 1 13 -1 27 -4 18 -3 22 -8 15 -15z m166 -113 c-3
-3 -12 -4 -19 -1 -8 3 -5 6 6 6 11 1 17 -2 13 -5z"/>
<path d="M5021 3714 c0 -11 3 -14 6 -6 3 7 2 16 -1 19 -3 4 -6 -2 -5 -13z"/>
<path d="M5840 3441 c0 -10 30 -24 37 -17 3 2 -5 9 -16 16 -12 6 -21 7 -21 1z"/>
<path d="M5885 2990 c27 -12 43 -12 25 0 -8 5 -22 9 -30 9 -10 0 -8 -3 5 -9z"/>
<path d="M6725 4277 c-76 -44 -98 -63 -119 -106 -63 -123 -20 -237 117 -316
34 -20 69 -40 77 -45 37 -23 172 -100 176 -100 2 0 26 -14 54 -31 27 -17 55
-27 61 -23 7 4 9 3 6 -3 -6 -9 48 -44 183 -121 19 -11 71 -41 115 -66 100 -59
104 -61 138 -77 61 -28 192 -7 180 29 -4 14 -3 15 5 2 9 -12 14 -11 34 5 50
44 87 116 87 176 1 38 -31 123 -51 135 -6 4 -8 3 -5 -3 3 -5 0 -10 -8 -10 -11
0 -12 4 -3 14 8 10 7 17 -8 28 -20 16 -187 115 -269 160 -27 16 -52 31 -55 34
-3 3 -19 13 -35 22 -17 8 -75 42 -130 74 -55 32 -134 77 -175 100 -41 23 -91
51 -111 63 -59 33 -72 40 -108 56 -39 18 -126 20 -156 3z m180 -35 c-3 -3 -11
0 -18 7 -9 10 -8 11 6 5 10 -3 15 -9 12 -12z m171 -100 c-4 -3 -11 -1 -17 5
-6 6 -19 9 -28 6 -13 -4 -14 -3 -2 5 16 11 59 -4 47 -16z m-459 -54 c-3 -8 -6
-5 -6 6 -1 11 2 17 5 13 3 -3 4 -12 1 -19z m-10 -40 c-3 -8 -6 -5 -6 6 -1 11
2 17 5 13 3 -3 4 -12 1 -19z m10 -50 c-3 -8 -6 -5 -6 6 -1 11 2 17 5 13 3 -3
4 -12 1 -19z m113 -118 c0 -5 -2 -10 -4 -10 -3 0 -8 5 -11 10 -3 6 -1 10 4 10
6 0 11 -4 11 -10z m827 -46 c-3 -3 -12 -4 -19 -1 -8 3 -5 6 6 6 11 1 17 -2 13
-5z m-641 -52 c-4 -3 -14 2 -24 12 -16 18 -16 18 6 6 13 -6 21 -14 18 -18z
m898 -118 c3 -8 2 -12 -4 -9 -6 3 -10 10 -10 16 0 14 7 11 14 -7z m-494 -124
c0 -5 -2 -10 -4 -10 -3 0 -8 5 -11 10 -3 6 -1 10 4 10 6 0 11 -4 11 -10z m480
-27 c-11 -17 -11 -17 -6 0 3 10 6 24 7 30 0 9 2 9 5 0 3 -7 0 -20 -6 -30z
m-33 -25 c-3 -8 -6 -5 -6 6 -1 11 2 17 5 13 3 -3 4 -12 1 -19z"/>
<path d="M5950 3360 c0 -5 12 -10 28 -10 21 0 24 2 12 10 -20 13 -40 13 -40 0z"/>
<path d="M6090 3302 c0 -5 11 -14 24 -20 19 -8 25 -8 30 3 7 19 -14 31 -25 14
-6 -10 -9 -11 -9 -1 0 6 -4 12 -10 12 -5 0 -10 -4 -10 -8z"/>
<path d="M5718 3083 c7 -3 16 -2 19 1 4 3 -2 6 -13 5 -11 0 -14 -3 -6 -6z"/>
<path d="M1423 2186 c-124 -39 -188 -126 -188 -256 1 -62 5 -84 28 -128 59
-113 199 -169 318 -127 96 34 157 112 166 215 l6 60 -127 0 -126 0 0 -30 0
-30 95 0 c107 0 110 -3 80 -73 -31 -74 -94 -103 -204 -95 -68 5 -114 31 -152
87 -21 31 -24 47 -24 123 0 81 2 88 31 125 48 60 105 85 186 81 50 -3 75 -9
97 -26 26 -19 34 -20 51 -10 11 7 20 16 20 20 0 13 -55 46 -103 62 -56 19 -97
19 -154 2z"/>
<path d="M7304 2189 c-72 -21 -120 -107 -94 -169 16 -39 50 -63 141 -100 73
-29 116 -62 119 -90 5 -38 -2 -63 -25 -85 -35 -36 -121 -36 -164 1 -17 14 -31
31 -31 37 -1 29 -16 38 -43 26 -25 -11 -25 -12 -10 -43 35 -70 129 -116 207
-102 24 5 54 22 80 46 40 37 41 41 41 100 0 61 -1 63 -43 100 -24 20 -72 47
-108 60 -87 30 -114 53 -114 95 0 48 37 75 102 75 43 0 54 -4 79 -31 21 -22
34 -29 49 -24 27 9 25 26 -7 58 -53 49 -113 65 -179 46z"/>
<path d="M10025 2191 c-76 -20 -146 -77 -182 -149 -28 -56 -25 -173 5 -232 32
-61 58 -88 116 -117 70 -35 137 -40 211 -14 33 12 71 32 85 46 22 23 23 26 8
41 -14 15 -19 14 -59 -13 -38 -25 -51 -28 -124 -28 -72 0 -86 3 -122 27 -61
40 -87 101 -81 191 5 82 29 129 87 168 29 20 47 24 116 24 73 0 85 -3 117 -27
35 -26 36 -27 52 -9 16 18 16 20 -16 44 -18 13 -43 29 -54 36 -29 14 -122 22
-159 12z"/>
<path d="M3080 1930 l0 -260 25 0 25 0 0 260 0 260 -25 0 -25 0 0 -260z"/>
<path d="M3790 1931 l0 -261 85 0 c46 0 107 5 135 11 231 49 260 390 41 486
-23 10 -77 17 -148 21 l-113 5 0 -262z m229 189 c39 -11 86 -51 107 -92 23
-44 18 -155 -8 -208 -34 -65 -87 -90 -195 -90 l-83 0 0 200 0 200 73 0 c39 0
88 -4 106 -10z"/>
<path d="M5437 2183 c-4 -3 -7 -120 -7 -260 l0 -253 25 0 25 0 0 260 c0 245
-1 260 -18 260 -10 0 -22 -3 -25 -7z"/>
<path d="M8520 2091 c0 -56 -2 -101 -5 -101 -2 0 -21 11 -41 25 -142 96 -311
-84 -235 -251 47 -104 165 -134 246 -62 l35 30 0 -31 c0 -26 4 -31 25 -31 l25
0 -2 258 -3 257 -22 3 c-23 3 -23 1 -23 -97z m-55 -121 c37 -23 55 -63 55
-122 0 -104 -93 -168 -180 -123 -45 23 -63 67 -58 143 4 58 8 68 36 93 40 36
98 39 147 9z"/>
<path d="M10360 1930 l0 -260 30 0 30 0 0 260 0 260 -30 0 -30 0 0 -260z"/>
<path d="M10900 1930 l0 -260 25 0 c20 0 25 5 25 25 0 16 6 25 15 25 8 0 15
-4 15 -10 0 -5 19 -19 42 -31 74 -38 143 -15 202 68 23 33 28 51 28 99 0 82
-22 128 -79 164 -70 45 -132 40 -190 -13 l-23 -20 0 106 0 107 -30 0 -30 0 0
-260z m246 42 c56 -45 71 -144 31 -203 -39 -58 -98 -74 -157 -44 -75 39 -86
183 -18 240 36 31 111 35 144 7z"/>
<path d="M7637 2133 c-4 -3 -7 -28 -7 -55 0 -47 -1 -48 -30 -48 -25 0 -30 -4
-30 -25 0 -21 5 -25 30 -25 l30 0 0 -126 0 -126 34 -34 c47 -47 116 -46 116 2
0 20 -5 24 -33 24 -52 0 -57 12 -57 142 l0 118 45 0 c41 0 45 2 45 25 0 23 -4
25 -45 25 l-45 0 0 55 c0 51 -2 55 -23 55 -13 0 -27 -3 -30 -7z"/>
<path d="M9477 2133 c-4 -3 -7 -28 -7 -55 0 -47 -1 -48 -30 -48 -25 0 -30 -4
-30 -25 0 -21 5 -25 30 -25 l30 0 0 -126 0 -126 34 -34 c47 -47 116 -46 116 2
0 20 -5 24 -33 24 -52 0 -57 12 -57 141 l0 118 43 3 c35 2 43 7 45 26 3 20 -1
22 -42 22 l-46 0 0 55 c0 51 -2 55 -23 55 -13 0 -27 -3 -30 -7z"/>
<path d="M1915 2029 c-95 -55 -130 -167 -86 -266 59 -129 255 -131 321 -3 24
48 26 128 4 175 -8 18 -31 48 -51 65 -31 29 -44 33 -102 37 -40 2 -74 -1 -86
-8z m155 -67 c90 -90 38 -252 -81 -252 -88 0 -142 85 -119 185 14 61 58 95
121 95 42 0 55 -5 79 -28z"/>
<path d="M2325 2024 c-45 -23 -66 -45 -86 -89 -65 -142 45 -293 197 -270 54 8
127 74 137 124 19 92 4 152 -50 203 -52 49 -138 63 -198 32z m150 -56 c101
-79 50 -258 -73 -258 -79 0 -122 52 -122 149 0 54 3 63 34 95 30 32 39 36 83
36 36 0 58 -6 78 -22z"/>
<path d="M2735 2030 c-30 -12 -72 -60 -89 -102 -35 -84 -8 -187 62 -233 58
-38 110 -43 161 -14 23 12 41 26 41 31 0 4 5 8 10 8 15 0 12 -77 -4 -108 -34
-66 -144 -75 -199 -17 -16 17 -29 23 -45 19 -27 -8 -27 -14 -2 -46 50 -64 174
-80 237 -32 70 53 73 66 73 292 l0 202 -25 0 c-20 0 -25 -5 -25 -25 0 -14 -4
-25 -10 -25 -5 0 -10 4 -10 9 0 5 -15 19 -34 30 -35 22 -103 27 -141 11z m142
-57 c49 -32 68 -133 37 -198 -27 -57 -105 -81 -163 -50 -73 37 -83 190 -16
245 19 15 83 29 105 21 8 -2 25 -11 37 -18z"/>
<path d="M3294 2021 c-58 -36 -88 -86 -92 -156 -5 -71 17 -126 67 -168 41 -34
123 -45 174 -23 38 15 87 58 87 74 0 16 -44 23 -55 9 -67 -86 -201 -47 -216
63 l-4 25 144 -2 143 -2 -4 50 c-9 88 -65 141 -155 146 -45 3 -65 0 -89 -16z
m146 -48 c32 -22 40 -33 40 -60 0 -22 -3 -23 -110 -23 -70 0 -110 4 -110 10 0
20 30 69 47 79 28 16 106 13 133 -6z"/>
<path d="M4365 2028 c-59 -32 -105 -108 -105 -173 0 -43 23 -107 51 -138 25
-30 87 -57 130 -57 56 0 149 53 149 86 0 22 -32 25 -54 6 -70 -64 -165 -52
-201 24 -33 69 -31 70 128 69 l142 0 -3 40 c-5 59 -39 112 -87 135 -45 22
-118 26 -150 8z m140 -54 c24 -15 49 -67 38 -78 -4 -3 -52 -6 -108 -6 -56 0
-104 3 -108 6 -11 12 14 60 41 77 34 21 105 22 137 1z"/>
<path d="M5088 2007 c-99 -76 -102 -219 -5 -304 44 -39 92 -49 155 -33 47 11
102 53 102 76 0 25 -33 25 -61 -1 -57 -55 -161 -38 -194 31 -31 66 -27 69 130
72 77 2 142 6 144 8 9 9 -20 106 -36 123 -38 39 -87 61 -140 61 -43 0 -59 -5
-95 -33z m163 -27 c19 -11 49 -59 49 -80 0 -7 -37 -10 -112 -8 -107 3 -113 4
-110 23 2 11 16 32 33 48 23 21 39 27 75 27 25 0 54 -5 65 -10z"/>
<path d="M5655 2023 c-16 -8 -39 -23 -49 -32 -27 -23 -56 -90 -56 -131 0 -56
31 -128 66 -155 127 -97 294 -16 294 143 0 62 -13 98 -48 136 -52 55 -144 73
-207 39z m146 -50 c53 -31 74 -124 43 -189 -43 -91 -167 -99 -218 -14 -20 35
-21 121 -1 160 8 16 25 36 37 44 30 21 103 20 139 -1z"/>
<path d="M6083 2021 c-17 -11 -36 -28 -42 -38 -9 -15 -10 -13 -11 15 0 29 -3
32 -30 32 l-30 0 0 -255 0 -255 30 0 30 0 0 100 c0 60 4 100 10 100 6 0 10 -4
10 -10 0 -14 75 -50 105 -50 63 0 123 44 156 115 41 89 10 188 -77 246 -38 25
-109 25 -151 0z m147 -59 c56 -56 53 -170 -6 -221 -84 -74 -194 -13 -194 107
0 95 41 142 123 142 40 0 54 -5 77 -28z"/>
<path d="M6500 2033 c-32 -13 -89 -81 -99 -119 -14 -52 -14 -71 4 -129 21 -72
92 -125 167 -125 42 1 106 30 137 63 l24 26 -28 13 c-23 10 -28 10 -36 -5 -6
-9 -23 -24 -39 -32 -78 -40 -145 -8 -179 87 -14 37 -3 39 155 34 150 -6 143
-10 123 68 -7 28 -25 57 -50 82 -36 35 -44 38 -101 41 -35 1 -70 0 -78 -4z
m131 -53 c25 -14 54 -69 41 -82 -5 -5 -56 -7 -113 -6 -98 3 -104 4 -101 23 2
11 16 32 33 48 23 21 39 27 75 27 25 0 54 -5 65 -10z"/>
<path d="M6913 2021 c-17 -11 -36 -28 -42 -38 -9 -15 -10 -13 -11 15 0 27 -4
32 -25 32 l-25 0 0 -180 0 -180 25 0 25 0 0 115 c0 124 10 160 52 189 12 9 39
16 60 16 34 0 38 3 38 25 0 22 -4 25 -32 25 -18 0 -47 -9 -65 -19z"/>
<path d="M8735 2021 c-68 -42 -95 -91 -95 -173 0 -118 92 -200 205 -184 41 7
109 48 119 73 6 15 -34 39 -43 26 -3 -5 -19 -19 -35 -31 -69 -53 -177 -5 -188
84 l-3 29 140 0 c155 0 154 -1 141 71 -19 97 -157 158 -241 105z m156 -60 c16
-16 29 -39 29 -50 0 -20 -5 -21 -110 -21 -70 0 -110 4 -110 10 0 20 30 69 47
79 10 6 40 11 66 11 41 0 53 -5 78 -29z"/>
<path d="M9152 2010 l-42 -30 0 25 c0 20 -5 25 -25 25 l-25 0 0 -180 0 -180
25 0 25 0 0 103 c0 121 11 169 47 197 37 29 103 27 131 -3 19 -20 22 -36 24
-157 l3 -135 25 0 25 0 3 127 c3 105 0 134 -14 164 -37 77 -129 97 -202 44z"/>
<path d="M11364 2025 c-19 -10 -39 -32 -49 -55 l-18 -39 28 -36 c30 -40 42
-46 127 -70 76 -21 97 -56 58 -95 -37 -37 -140 -17 -155 30 -7 23 -14 24 -37
6 -25 -18 -22 -30 12 -59 40 -34 94 -51 142 -43 53 9 83 30 103 72 31 66 -13
119 -120 144 -90 22 -118 56 -77 93 28 25 106 23 131 -4 13 -14 26 -19 40 -14
30 9 26 30 -11 56 -41 30 -130 36 -174 14z"/>
<path d="M4633 2018 c3 -7 33 -80 67 -162 76 -186 76 -186 104 -186 19 0 29
12 54 68 16 37 33 78 37 92 9 29 41 103 61 142 21 39 18 58 -10 58 -25 0 -39
-25 -86 -155 -12 -33 -30 -77 -40 -97 l-17 -38 -42 108 c-23 59 -48 123 -56
142 -10 29 -18 36 -45 38 -24 3 -31 0 -27 -10z"/>
<path d="M7842 1888 c3 -129 5 -146 25 -174 45 -63 148 -67 207 -7 l26 26 0
-32 c0 -26 4 -31 25 -31 l25 0 0 180 0 180 -25 0 c-25 0 -25 0 -25 -99 0 -125
-6 -155 -40 -191 -34 -36 -94 -41 -131 -11 -23 18 -24 27 -29 158 l-5 138 -28
3 -29 4 4 -144z"/>
<path d="M10500 1918 c0 -62 5 -131 11 -153 14 -52 54 -93 97 -101 44 -9 108
13 127 43 19 29 34 23 27 -12 -4 -22 -1 -25 27 -25 l31 0 -2 178 -3 177 -26 3
-27 3 -4 -132 -4 -131 -33 -30 c-30 -27 -39 -30 -78 -25 -73 8 -78 18 -81 177
l-4 140 -29 0 -29 0 0 -112z"/>
<path d="M2160 1155 l0 -95 41 0 c56 0 97 26 105 67 14 76 -23 123 -98 123
l-48 0 0 -95z m93 74 c30 -14 45 -44 41 -83 -4 -39 -31 -64 -74 -68 l-35 -3
-3 83 c-3 82 -3 82 22 82 14 0 36 -5 49 -11z"/>
<path d="M2810 1241 c0 -6 5 -13 10 -16 6 -3 10 1 10 9 0 9 -4 16 -10 16 -5 0
-10 -4 -10 -9z"/>
<path d="M2970 1240 c0 -5 4 -10 9 -10 6 0 13 5 16 10 3 6 -1 10 -9 10 -9 0
-16 -4 -16 -10z"/>
<path d="M3091 1160 c2 -122 19 -126 19 -6 0 61 -4 96 -11 96 -6 0 -9 -33 -8
-90z"/>
<path d="M3530 1240 c0 -5 7 -10 15 -10 8 0 15 5 15 10 0 6 -7 10 -15 10 -8 0
-15 -4 -15 -10z"/>
<path d="M4335 1230 c-3 -11 -14 -27 -23 -37 -12 -12 -13 -18 -4 -21 7 -2 12
-24 12 -58 0 -30 5 -54 10 -54 6 0 10 23 10 51 0 42 3 52 20 56 11 3 20 10 20
15 0 6 -7 7 -15 4 -27 -10 -31 25 -6 46 22 17 23 18 3 18 -12 0 -23 -9 -27
-20z"/>
<path d="M4470 1155 l0 -95 55 0 c33 0 55 4 55 11 0 6 -17 9 -42 7 -43 -3 -43
-3 -43 32 0 34 1 35 45 41 53 7 42 12 -33 18 -14 1 -18 8 -15 34 3 30 6 32 48
38 l45 6 -57 1 -58 2 0 -95z"/>
<path d="M4930 1234 c0 -8 5 -12 10 -9 6 4 8 11 5 16 -9 14 -15 11 -15 -7z"/>
<path d="M5540 1234 c0 -8 5 -12 10 -9 6 3 10 10 10 16 0 5 -4 9 -10 9 -5 0
-10 -7 -10 -16z"/>
<path d="M6370 1217 c0 -40 -8 -51 -26 -36 -20 17 -55 6 -77 -23 -20 -26 -20
-30 -4 -62 18 -39 47 -52 76 -37 11 6 27 8 35 5 14 -5 16 7 16 90 0 57 -4 96
-10 96 -5 0 -10 -15 -10 -33z m-19 -58 c22 -22 20 -66 -4 -81 -51 -33 -102 38
-60 84 21 23 38 23 64 -3z"/>
<path d="M6490 1154 c0 -61 4 -93 10 -89 6 3 10 39 10 78 l0 72 31 -52 c17
-29 34 -53 39 -53 5 0 22 24 39 53 l31 52 0 -77 c0 -45 4 -78 10 -78 6 0 10
38 10 95 0 54 -4 95 -10 95 -5 0 -24 -27 -42 -60 -18 -33 -35 -60 -38 -60 -3
0 -21 27 -39 60 -19 33 -39 60 -43 60 -4 0 -8 -43 -8 -96z"/>
<path d="M8177 1235 c-32 -24 -18 -57 36 -83 42 -20 48 -26 45 -50 -2 -21 -9
-28 -31 -30 -17 -2 -37 4 -48 14 -10 9 -22 15 -25 12 -8 -9 47 -48 67 -48 20
0 59 33 59 51 0 24 -22 48 -58 62 -50 20 -59 42 -27 63 18 12 28 13 44 5 28
-15 36 -14 21 4 -15 19 -59 19 -83 0z"/>
<path d="M8670 1218 c3 -48 1 -53 -12 -40 -20 20 -65 14 -82 -10 -24 -34 -20
-73 10 -97 32 -25 42 -26 66 -4 11 9 18 11 18 5 0 -7 5 -12 10 -12 6 0 10 38
10 95 0 61 -4 95 -11 95 -6 0 -10 -15 -9 -32z m-19 -48 c13 -7 19 -21 19 -43
0 -38 -15 -57 -45 -57 -30 0 -45 19 -45 57 0 44 32 64 71 43z"/>
<path d="M8722 1239 c2 -6 8 -10 13 -10 5 0 11 4 13 10 2 6 -4 11 -13 11 -9 0
-15 -5 -13 -11z"/>
<path d="M9240 1237 c0 -7 -13 -48 -30 -90 -34 -88 -34 -87 -20 -87 5 0 12 11
16 25 6 22 11 25 55 25 44 0 49 -3 55 -25 3 -14 11 -25 16 -25 6 0 7 8 3 18
-3 9 -18 52 -33 94 -20 57 -32 78 -44 78 -10 0 -18 -6 -18 -13z m60 -104 c0
-2 -18 -3 -40 -3 -44 0 -43 -8 -9 78 l11 27 19 -50 c10 -27 19 -51 19 -52z"/>
<path d="M10220 1155 c0 -71 3 -95 13 -93 6 1 22 -2 35 -6 29 -10 69 15 77 47
14 56 -41 107 -87 78 -16 -10 -18 -8 -18 29 0 22 -4 40 -10 40 -6 0 -10 -38
-10 -95z m92 8 c33 -29 16 -93 -25 -93 -32 0 -47 18 -47 57 0 47 38 67 72 36z"/>
<path d="M10630 1210 c0 -37 -2 -40 -19 -30 -31 16 -59 12 -75 -12 -33 -47
-11 -111 37 -109 86 3 77 -8 77 97 0 56 -4 94 -10 94 -5 0 -10 -18 -10 -40z
m-18 -47 c34 -30 16 -93 -27 -93 -34 0 -59 39 -46 73 15 38 44 46 73 20z"/>
<path d="M3450 1215 c0 -9 -7 -18 -15 -21 -14 -6 -14 -8 -1 -18 9 -6 16 -31
18 -61 3 -45 6 -50 28 -53 23 -2 24 -1 8 11 -13 10 -18 28 -18 60 0 35 4 47
18 50 16 4 16 5 0 6 -11 1 -18 9 -18 21 0 11 -4 20 -10 20 -5 0 -10 -7 -10
-15z"/>
<path d="M3610 1210 c0 -12 -7 -20 -17 -20 -17 -1 -17 -1 0 -11 12 -7 17 -23
17 -52 0 -45 13 -67 40 -67 13 1 12 3 -2 14 -13 9 -18 27 -18 60 0 37 3 46 18
47 13 0 12 2 -5 9 -15 6 -21 15 -17 25 3 8 1 15 -5 15 -6 0 -11 -9 -11 -20z"/>
<path d="M3853 1205 c-6 -14 -7 -25 -2 -25 5 0 9 -22 9 -48 0 -49 13 -72 40
-72 12 1 12 2 -2 11 -13 7 -18 23 -18 59 0 38 4 50 18 53 16 4 16 5 0 6 -11 1
-18 9 -18 21 0 27 -13 25 -27 -5z"/>
<path d="M8010 1211 c0 -11 -6 -22 -12 -24 -10 -4 -10 -6 0 -6 7 -1 12 -16 12
-42 0 -52 15 -79 43 -78 l22 0 -22 9 c-19 8 -23 17 -23 55 0 33 5 47 16 52 15
5 15 7 0 15 -9 5 -16 16 -16 23 0 8 -4 15 -10 15 -5 0 -10 -9 -10 -19z"/>
<path d="M8330 1211 c0 -11 -6 -22 -12 -24 -10 -4 -10 -6 0 -6 8 -1 12 -18 12
-49 0 -49 13 -72 40 -72 12 1 12 2 -2 11 -13 7 -18 23 -18 59 0 38 4 50 18 53
16 4 16 5 0 6 -11 1 -18 9 -18 21 0 11 -4 20 -10 20 -5 0 -10 -9 -10 -19z"/>
<path d="M2661 1174 c-12 -15 -21 -34 -21 -44 0 -47 68 -88 97 -59 16 16 26
-6 13 -31 -6 -11 -16 -21 -23 -21 -26 -3 -52 4 -59 14 -4 6 -11 8 -15 3 -11
-11 26 -36 54 -36 46 0 63 32 63 121 0 75 -1 80 -17 68 -13 -11 -17 -11 -20
-1 -8 21 -51 13 -72 -14z m73 0 c11 -4 16 -19 16 -45 0 -32 -4 -41 -22 -48
-31 -12 -62 9 -66 43 -6 45 27 67 72 50z"/>
<path d="M4781 1174 c-12 -15 -21 -34 -21 -44 0 -48 68 -88 98 -58 9 9 12 6
12 -15 0 -41 -59 -57 -82 -23 -4 6 -10 7 -14 3 -12 -11 28 -36 58 -37 43 0 58
32 58 123 0 71 -2 78 -15 67 -12 -10 -19 -10 -27 -2 -19 19 -45 14 -67 -14z
m77 -3 c8 -5 12 -23 10 -47 -3 -34 -6 -39 -31 -42 -36 -4 -57 13 -57 47 0 44
41 66 78 42z"/>
<path d="M5761 1174 c-26 -34 -27 -68 -1 -94 22 -22 42 -25 71 -9 19 9 20 8
17 -18 -2 -24 -8 -28 -36 -31 -18 -2 -40 2 -48 9 -9 8 -14 8 -14 1 0 -15 33
-32 63 -32 40 0 57 38 57 126 0 61 -3 74 -13 66 -8 -7 -18 -7 -27 -2 -26 16
-48 11 -69 -16z m77 -3 c8 -5 12 -23 10 -47 -2 -31 -8 -39 -28 -45 -32 -8 -60
16 -60 51 0 43 41 65 78 41z"/>
<path d="M7165 1175 c-30 -30 -31 -54 -4 -89 21 -27 57 -34 76 -15 16 16 26
-6 13 -31 -14 -27 -67 -31 -82 -7 -5 8 -8 8 -8 2 0 -19 23 -35 52 -35 42 0 61
38 65 126 3 72 -2 85 -24 63 -8 -8 -13 -8 -17 0 -12 19 -46 12 -71 -14z m79
-11 c22 -21 20 -50 -4 -74 -24 -24 -29 -24 -58 -4 -24 16 -28 44 -12 75 13 23
53 25 74 3z"/>
<path d="M9932 1180 c-30 -28 -30 -83 0 -104 26 -19 65 -21 70 -4 2 6 9 8 16
4 16 -10 -5 -53 -29 -59 -10 -3 -29 1 -43 9 -27 13 -34 6 -14 -14 21 -21 65
-14 87 14 17 22 21 41 21 100 0 43 -4 74 -10 74 -5 0 -10 -7 -10 -16 0 -14 -1
-14 -16 0 -21 22 -46 20 -72 -4z m85 -30 c18 -36 -4 -65 -48 -65 -32 0 -34 2
-37 39 -4 43 9 58 48 54 15 -2 30 -13 37 -28z"/>
<path d="M2359 1169 c-46 -46 8 -137 66 -111 14 6 25 17 25 24 0 9 -3 9 -12 0
-25 -25 -78 -8 -78 25 0 9 16 13 50 13 42 0 50 3 50 18 0 25 -31 52 -58 52
-12 0 -31 -9 -43 -21z m69 -1 c24 -24 13 -38 -28 -38 -43 0 -55 20 -22 39 23
14 36 13 50 -1z"/>
<path d="M2506 1168 c-24 -34 -20 -73 10 -97 15 -12 33 -21 41 -21 23 0 63 47
63 75 0 57 -82 89 -114 43z m78 -4 c19 -18 21 -65 4 -82 -7 -7 -21 -12 -33
-12 -30 0 -45 19 -45 57 0 47 43 69 74 37z"/>
<path d="M2817 1183 c-11 -10 -8 -123 3 -123 6 0 10 28 10 65 0 65 -1 71 -13
58z"/>
<path d="M2870 1125 c0 -37 4 -65 10 -65 6 0 10 22 10 50 0 44 3 51 28 64 15
9 21 15 12 16 -9 0 -21 -5 -28 -12 -9 -9 -12 -9 -12 0 0 7 -4 12 -10 12 -6 0
-10 -28 -10 -65z"/>
<path d="M3156 1130 c0 -33 3 -63 7 -66 4 -4 7 -3 8 2 4 71 2 118 -6 121 -6 2
-10 -21 -9 -57z"/>
<path d="M3194 1178 c-4 -7 -3 -8 5 -4 6 4 20 4 31 1 16 -5 20 -15 20 -55 0
-27 5 -52 10 -55 15 -9 13 98 -2 113 -15 15 -55 16 -64 0z"/>
<path d="M3312 1178 c-22 -22 -12 -39 34 -58 26 -12 44 -25 42 -33 -6 -17 -46
-21 -64 -6 -8 6 -17 9 -20 6 -3 -3 6 -13 21 -23 21 -13 31 -15 50 -6 45 21 29
62 -27 76 -16 3 -28 13 -28 21 0 18 39 30 53 16 17 -17 31 -13 17 4 -15 18
-61 20 -78 3z"/>
<path d="M3543 1125 c0 -38 2 -53 4 -32 2 20 2 52 0 70 -2 17 -4 1 -4 -38z"/>
<path d="M3698 1184 c-17 -16 -8 -94 12 -114 22 -22 45 -26 55 -10 4 6 15 8
26 5 17 -6 19 -1 19 54 0 33 -4 63 -10 66 -6 4 -10 -13 -10 -42 0 -54 -12 -73
-47 -73 -24 0 -31 15 -35 83 -2 22 -6 35 -10 31z"/>
<path d="M3959 1169 c-46 -46 8 -137 66 -111 14 6 25 17 25 24 0 9 -3 9 -12 0
-25 -25 -78 -8 -78 25 0 9 16 13 50 13 42 0 50 3 50 18 0 25 -31 52 -58 52
-12 0 -31 -9 -43 -21z m69 -1 c24 -24 13 -38 -28 -38 -43 0 -55 20 -22 39 23
14 36 13 50 -1z"/>
<path d="M4170 1170 c-20 -20 -26 -65 -12 -86 9 -13 46 -34 62 -34 20 0 60 49
60 74 0 31 -36 66 -67 66 -13 0 -32 -9 -43 -20z m74 -6 c19 -18 21 -65 4 -82
-7 -7 -21 -12 -33 -12 -30 0 -45 19 -45 57 0 47 43 69 74 37z"/>
<path d="M4620 1125 c0 -37 4 -65 10 -65 6 0 10 22 10 50 0 52 21 77 54 64 15
-6 18 -18 20 -76 2 -52 16 -40 16 13 0 30 -5 60 -12 67 -15 15 -51 15 -66 0
-9 -9 -12 -9 -12 0 0 7 -4 12 -10 12 -6 0 -10 -28 -10 -65z"/>
<path d="M4990 1126 c0 -37 4 -66 10 -66 6 0 10 22 10 48 0 51 12 72 42 72 22
0 41 -44 35 -83 -2 -15 0 -30 5 -33 13 -8 9 101 -4 114 -15 15 -55 16 -63 2
-5 -8 -11 -7 -21 1 -12 10 -14 1 -14 -55z"/>
<path d="M5157 1178 c-9 -7 -20 -27 -23 -45 -5 -26 -1 -37 19 -57 15 -14 34
-26 44 -26 23 1 59 27 50 37 -4 4 -13 1 -19 -5 -25 -25 -78 -8 -78 25 0 9 17
13 56 13 53 0 55 1 49 23 -9 28 -33 47 -60 47 -12 0 -29 -6 -38 -12z m67 -14
c22 -21 11 -34 -29 -34 -19 0 -36 4 -40 9 -7 12 22 41 40 41 7 0 21 -7 29 -16z"/>
<path d="M5300 1170 c-11 -11 -20 -31 -20 -45 0 -28 40 -75 63 -75 18 0 67 39
50 40 -6 0 -15 -4 -18 -10 -9 -14 -48 -13 -63 2 -26 26 -13 38 43 38 60 0 61
1 44 33 -23 43 -66 50 -99 17z m74 -6 c9 -8 14 -20 11 -24 -7 -11 -74 -10 -81
1 -6 10 24 39 41 39 7 0 21 -7 29 -16z"/>
<path d="M5440 1126 c0 -37 4 -65 9 -62 4 3 9 20 9 38 0 56 1 58 30 69 16 7
22 13 14 16 -7 3 -18 0 -26 -6 -9 -7 -16 -7 -24 1 -9 9 -12 -4 -12 -56z"/>
<path d="M5600 1126 c0 -37 4 -66 10 -66 6 0 10 22 10 50 0 38 4 52 19 60 33
17 51 2 51 -44 0 -22 5 -48 10 -56 7 -11 10 0 10 37 0 69 -29 99 -70 73 -9 -5
-19 -5 -27 2 -10 8 -13 -3 -13 -56z"/>
<path d="M5980 1175 c-15 -18 1 -20 18 -3 9 9 18 9 37 0 35 -16 31 -32 -8 -32
-33 0 -67 -24 -67 -48 0 -6 12 -19 26 -29 21 -13 30 -14 45 -5 10 6 25 9 34 6
12 -5 15 2 15 38 0 24 -7 54 -16 66 -18 26 -65 30 -84 7z m80 -70 c0 -20 -27
-37 -52 -33 -31 4 -36 36 -7 47 29 10 59 3 59 -14z"/>
<path d="M6145 1180 c-3 -5 -12 -7 -20 -3 -12 4 -15 -6 -15 -56 0 -34 4 -61
10 -61 6 0 10 23 10 50 0 44 3 52 25 62 37 17 55 -4 55 -64 0 -56 15 -58 18
-3 3 47 -20 85 -53 85 -13 0 -26 -4 -30 -10z"/>
<path d="M6733 1183 c-7 -2 -13 -9 -13 -14 0 -6 8 -5 20 1 27 14 60 4 60 -19
0 -14 -6 -17 -24 -14 -59 12 -93 -55 -41 -79 19 -9 28 -9 37 0 9 9 6 12 -15
12 -22 0 -27 5 -27 24 0 26 20 36 53 28 13 -3 17 -12 15 -30 -2 -14 3 -27 10
-29 9 -3 12 11 12 51 0 44 -4 57 -19 66 -21 10 -47 12 -68 3z"/>
<path d="M6860 1125 c0 -37 4 -65 10 -65 6 0 10 22 10 50 0 38 4 52 19 60 32
17 51 2 52 -41 2 -51 3 -56 12 -65 4 -4 7 17 7 47 0 30 -5 60 -12 67 -15 15
-51 15 -66 0 -9 -9 -12 -9 -12 0 0 7 -4 12 -10 12 -6 0 -10 -28 -10 -65z"/>
<path d="M7020 1175 c-8 -9 -9 -15 -2 -15 6 0 14 5 17 10 9 15 31 12 49 -6 21
-21 13 -32 -19 -26 -27 5 -65 -21 -65 -44 0 -24 46 -47 69 -35 11 6 26 8 34 5
12 -4 14 4 11 46 -2 29 -9 58 -15 66 -15 19 -63 18 -79 -1z m80 -61 c0 -20
-24 -44 -45 -44 -27 0 -39 14 -31 35 5 14 76 22 76 9z"/>
<path d="M7328 1173 c-39 -44 -24 -104 28 -117 27 -7 64 8 64 26 0 9 -3 9 -12
0 -19 -19 -66 -15 -78 7 -15 30 -14 31 45 31 60 0 67 9 39 48 -19 27 -64 29
-86 5z m63 -3 c34 -18 23 -40 -19 -40 -48 0 -57 8 -35 32 19 21 27 22 54 8z"/>
<path d="M7495 1180 c-3 -5 -12 -7 -20 -3 -12 4 -15 -6 -15 -56 0 -34 4 -61
10 -61 6 0 10 22 10 50 0 40 4 51 21 60 36 20 49 6 49 -55 0 -30 5 -55 10 -55
6 0 10 22 10 50 0 40 4 51 21 60 36 20 49 6 49 -55 0 -30 5 -55 10 -55 14 0
12 104 -2 118 -15 15 -51 15 -66 0 -9 -9 -15 -9 -24 0 -14 14 -54 16 -63 2z"/>
<path d="M7719 1177 c-26 -20 -32 -53 -14 -86 17 -35 53 -48 84 -31 22 11 29
30 11 30 -5 0 -10 -4 -10 -10 0 -19 -59 -11 -70 9 -15 30 -14 31 46 31 53 0
55 1 49 23 -13 43 -61 61 -96 34z m66 -10 c25 -19 11 -37 -30 -37 -40 0 -51
13 -29 34 19 20 34 20 59 3z"/>
<path d="M7850 1125 c0 -37 4 -65 10 -65 6 0 10 22 10 50 0 38 4 52 19 60 29
15 50 2 56 -33 2 -18 6 -43 8 -57 3 -14 5 -3 6 23 0 27 -4 57 -9 68 -12 21
-50 25 -68 7 -9 -9 -12 -9 -12 0 0 7 -4 12 -10 12 -6 0 -10 -28 -10 -65z"/>
<path d="M8510 1135 c0 -30 0 -58 -1 -62 0 -4 4 -9 10 -11 7 -2 11 20 11 62 0
37 -4 66 -10 66 -5 0 -10 -25 -10 -55z"/>
<path d="M8730 1125 c0 -37 4 -65 10 -65 6 0 10 28 10 65 0 37 -4 65 -10 65
-6 0 -10 -28 -10 -65z"/>
<path d="M8799 1169 c-46 -46 8 -137 66 -111 14 6 25 17 25 24 0 9 -3 9 -12 0
-25 -25 -78 -8 -78 25 0 9 17 13 55 13 60 0 61 1 44 33 -23 43 -66 50 -100 16z
m75 -8 c20 -22 12 -30 -32 -29 -40 1 -51 16 -27 35 25 18 39 16 59 -6z"/>
<path d="M8944 1176 c-25 -19 -9 -47 34 -58 40 -11 50 -27 27 -44 -16 -12 -22
-11 -43 2 -30 20 -38 13 -12 -11 36 -33 99 3 73 43 -5 9 -24 20 -41 24 -18 5
-32 15 -32 23 0 18 39 30 53 16 17 -17 31 -13 17 4 -16 19 -50 19 -76 1z"/>
<path d="M9469 1174 c-5 -90 -13 -106 -46 -102 -26 3 -28 7 -31 56 -2 28 -7
52 -13 52 -15 0 -10 -84 7 -108 15 -22 48 -30 58 -13 3 5 14 7 24 5 15 -5 17
2 17 55 0 54 -13 100 -16 55z"/>
<path d="M9520 1125 c0 -37 4 -65 10 -65 6 0 10 23 10 50 0 45 3 52 26 61 15
5 24 12 21 15 -3 3 -15 1 -26 -6 -14 -7 -21 -7 -21 0 0 5 -4 10 -10 10 -6 0
-10 -28 -10 -65z"/>
<path d="M9635 1179 c-11 -17 2 -21 23 -8 17 10 23 10 36 0 25 -21 19 -38 -12
-33 -17 2 -36 -3 -51 -15 -20 -16 -22 -23 -12 -40 13 -25 45 -38 63 -26 9 5 3
9 -16 13 -16 3 -31 10 -33 16 -6 17 24 43 44 39 10 -2 22 -4 26 -4 5 -1 7 -13
5 -28 -2 -15 2 -28 10 -30 21 -8 16 91 -6 110 -21 19 -67 23 -77 6z"/>
<path d="M9761 1126 c2 -74 18 -90 21 -21 1 25 2 53 2 62 1 9 -5 18 -12 21
-10 3 -12 -12 -11 -62z"/>
<path d="M9804 1178 c-5 -8 -2 -9 9 -5 35 13 47 -3 47 -59 0 -30 5 -54 10 -54
14 0 12 104 -2 118 -15 15 -55 16 -64 0z"/>
<path d="M10090 1180 c-8 -5 -11 -12 -7 -16 3 -4 13 -1 21 5 20 17 56 4 56
-19 0 -13 -5 -17 -21 -13 -11 3 -31 0 -45 -7 -49 -27 -15 -92 39 -74 12 5 28
7 35 6 8 -2 12 14 12 52 0 44 -4 57 -19 66 -24 12 -51 13 -71 0z m68 -84 c-4
-30 -68 -37 -68 -7 0 24 25 40 52 33 13 -3 18 -12 16 -26z"/>
<path d="M10397 1183 c-15 -14 -6 -23 13 -13 14 8 26 8 40 0 33 -18 25 -37
-14 -32 -61 7 -83 -65 -26 -83 12 -4 27 -2 34 4 8 6 21 9 30 5 13 -5 16 1 16
38 0 55 -22 88 -59 88 -15 0 -31 -3 -34 -7z m73 -77 c0 -19 -22 -36 -47 -36
-30 0 -42 29 -20 45 20 14 67 8 67 -9z"/>
<path d="M2977 1173 c-11 -10 -8 -101 3 -108 6 -4 10 17 10 54 0 62 -1 66 -13
54z"/>
<path d="M4930 1120 c0 -33 4 -60 10 -60 6 0 10 27 10 60 0 33 -4 60 -10 60
-6 0 -10 -27 -10 -60z"/>
<path d="M5540 1120 c0 -33 4 -60 10 -60 6 0 10 27 10 60 0 33 -4 60 -10 60
-6 0 -10 -27 -10 -60z"/>
<path d="M8410 1137 c0 -60 53 -113 75 -77 3 6 -5 10 -18 10 -29 0 -37 16 -37
71 0 21 -4 39 -10 39 -5 0 -10 -19 -10 -43z"/>
<path d="M9066 1065 c4 -8 10 -12 15 -9 14 8 10 24 -6 24 -9 0 -12 -6 -9 -15z"/>
</g>
</svg>
