<?xml version="1.0" standalone="no"?>
<!DOCTYPE svg PUBLIC "-//W3C//DTD SVG 20010904//EN"
 "http://www.w3.org/TR/2001/REC-SVG-20010904/DTD/svg10.dtd">
<svg version="1.0" xmlns="http://www.w3.org/2000/svg"
 width="3000.000000pt" height="3000.000000pt" viewBox="0 0 3000.000000 3000.000000"
 preserveAspectRatio="xMidYMid meet">

<g transform="translate(0.000000,3000.000000) scale(0.100000,-0.100000)"
fill="#000000" stroke="none">
<path d="M18380 21290 c-36 -4 -103 -11 -150 -15 -47 -4 -130 -18 -185 -32
-55 -14 -120 -29 -145 -34 -54 -10 -205 -61 -278 -95 -29 -13 -57 -24 -64 -24
-6 0 -38 -14 -72 -31 -33 -18 -69 -36 -79 -41 -50 -25 -135 -72 -159 -89 -14
-11 -30 -19 -35 -19 -4 0 -24 -14 -43 -30 -19 -16 -38 -30 -42 -30 -11 0 -132
-92 -141 -107 -4 -7 -13 -13 -19 -13 -6 0 -22 -11 -37 -25 -183 -178 -291
-286 -291 -294 0 -5 -10 -18 -23 -28 -12 -10 -30 -29 -40 -43 -9 -14 -37 -52
-62 -85 -25 -33 -52 -73 -61 -89 -9 -16 -25 -38 -35 -49 -10 -12 -19 -25 -19
-30 0 -5 -13 -29 -30 -54 -16 -24 -30 -48 -30 -53 0 -5 -13 -29 -30 -53 -16
-25 -30 -51 -30 -58 0 -8 -14 -38 -30 -68 -17 -30 -30 -59 -30 -65 0 -6 -13
-42 -29 -81 -41 -100 -82 -230 -97 -305 -6 -36 -22 -110 -35 -165 -21 -93 -23
-122 -23 -435 0 -314 2 -341 23 -435 13 -55 29 -129 36 -165 20 -108 93 -317
156 -445 16 -34 29 -67 29 -74 0 -7 14 -32 30 -56 17 -24 30 -48 30 -54 0 -5
14 -30 30 -54 17 -25 30 -49 30 -53 0 -5 14 -25 30 -44 16 -19 30 -38 30 -42
0 -7 65 -99 97 -138 106 -129 325 -360 342 -360 3 0 17 -11 31 -25 40 -40 117
-102 150 -122 16 -9 30 -21 30 -25 0 -4 6 -8 14 -8 7 0 29 -12 49 -27 19 -16
56 -40 81 -56 26 -15 45 -31 42 -35 -13 -21 -312 -92 -389 -92 -23 0 -27 4
-27 28 0 15 7 52 15 82 8 30 15 58 15 63 0 4 -62 7 -137 7 -76 0 -172 5 -213
11 -41 5 -106 14 -145 18 -38 5 -97 19 -130 31 -33 12 -71 25 -85 28 -31 6
-139 77 -162 106 -21 26 -22 21 -4 -46 17 -62 90 -224 111 -245 8 -8 15 -20
15 -26 0 -6 14 -26 32 -44 l31 -32 -84 -93 c-46 -51 -92 -101 -101 -112 -10
-11 -18 -24 -18 -28 0 -5 8 -11 18 -14 9 -3 49 -19 87 -34 85 -34 227 -68 318
-76 l67 -7 0 -62 0 -62 43 -16 c159 -60 379 -44 757 53 149 39 325 96 378 124
17 9 40 16 52 16 11 0 38 9 60 20 22 11 63 26 92 34 29 8 87 26 128 39 376
126 730 126 1150 0 47 -14 96 -27 110 -30 31 -5 207 -59 280 -85 30 -11 84
-28 120 -38 36 -10 92 -27 125 -38 136 -46 261 -74 373 -82 137 -11 359 -13
426 -4 l46 7 0 62 0 62 68 7 c94 10 235 43 317 76 39 15 78 31 88 34 9 3 17 9
17 13 0 9 -158 187 -190 214 -18 16 -18 17 11 45 16 15 29 33 29 39 0 6 8 20
19 31 30 33 131 271 131 308 0 6 -14 -5 -31 -22 -17 -18 -37 -32 -44 -32 -7 0
-15 -4 -17 -8 -14 -33 -219 -103 -358 -122 -47 -6 -164 -14 -261 -17 l-176 -6
13 -61 c17 -80 17 -86 -4 -86 -9 0 -62 12 -117 26 -55 14 -119 30 -142 35 -23
4 -59 15 -80 24 l-37 16 42 24 c23 13 50 31 58 40 8 8 22 15 29 15 8 0 18 6
22 13 4 7 24 24 43 37 33 22 53 38 143 113 33 27 186 177 273 267 13 14 24 31
24 38 0 6 4 12 9 12 5 0 28 26 52 58 23 31 46 59 51 60 4 2 8 9 8 15 0 7 14
28 30 47 16 19 30 39 30 43 0 10 42 71 53 75 4 2 7 11 7 20 0 8 6 23 14 31 24
29 156 297 156 318 0 6 14 41 30 78 17 37 30 74 30 83 0 10 11 49 24 87 13 39
39 147 57 240 34 170 34 170 34 465 0 295 0 295 -34 465 -18 93 -44 201 -57
240 -13 38 -24 77 -24 87 0 9 -13 46 -30 83 -16 37 -30 72 -30 77 0 13 -38 96
-90 199 -69 134 -90 172 -115 205 -14 18 -25 36 -25 41 0 4 -14 24 -30 43 -16
19 -30 40 -30 47 0 6 -4 13 -8 15 -5 2 -23 23 -41 48 -65 91 -273 309 -376
395 -20 17 -42 35 -48 41 -30 26 -132 100 -156 113 -14 8 -28 17 -31 21 -3 4
-33 24 -67 44 -34 20 -65 41 -68 46 -3 6 -12 10 -20 10 -8 0 -34 14 -58 30
-25 17 -49 30 -53 30 -5 0 -35 13 -69 29 -99 48 -201 91 -216 91 -9 0 -44 12
-80 26 -35 14 -84 29 -109 34 -25 4 -92 19 -150 33 -58 14 -154 30 -215 37
-143 15 -412 21 -495 10z m530 -65 c69 -9 161 -26 205 -37 44 -12 105 -27 135
-34 98 -22 274 -89 405 -155 33 -16 66 -29 73 -29 6 0 12 -4 12 -8 0 -4 26
-21 58 -37 31 -16 59 -31 62 -35 3 -3 29 -21 59 -39 30 -18 61 -39 68 -47 8
-8 21 -14 28 -14 8 0 18 -6 22 -13 4 -7 46 -43 93 -80 47 -37 90 -71 95 -76
120 -114 175 -171 234 -241 40 -47 83 -98 97 -114 13 -15 24 -31 24 -35 0 -3
14 -22 30 -41 16 -19 30 -39 30 -44 0 -4 14 -25 30 -46 17 -21 30 -42 30 -48
0 -5 8 -20 18 -33 47 -62 201 -397 215 -469 3 -14 15 -52 27 -85 12 -33 26
-80 30 -105 4 -25 21 -101 36 -170 27 -122 28 -132 28 -440 0 -308 -1 -318
-28 -440 -15 -69 -32 -145 -36 -170 -5 -25 -20 -77 -34 -116 -14 -39 -26 -78
-26 -85 0 -15 -43 -121 -92 -229 -31 -67 -44 -93 -85 -170 -49 -91 -61 -110
-85 -142 -14 -18 -27 -38 -29 -45 -2 -7 -14 -25 -27 -40 -12 -15 -59 -74 -103
-131 -45 -57 -88 -106 -95 -109 -8 -3 -14 -10 -14 -16 0 -19 -193 -197 -298
-276 -28 -22 -59 -46 -68 -55 -8 -9 -22 -16 -29 -16 -8 0 -18 -6 -22 -14 -4
-8 -32 -28 -62 -45 -29 -18 -60 -38 -68 -46 -20 -21 -39 -19 -143 15 -50 17
-99 30 -108 30 -10 0 -51 12 -92 26 -41 14 -95 29 -120 33 -25 5 -92 20 -150
35 -58 14 -127 29 -154 32 -26 3 -44 9 -40 13 11 10 108 41 126 41 18 0 162
55 233 90 34 17 64 30 69 30 4 0 28 14 53 30 24 17 50 30 57 30 8 0 19 7 27
16 7 8 29 24 48 34 33 16 60 35 145 102 78 61 187 162 241 223 33 37 69 78 80
90 22 24 31 35 94 126 25 35 48 66 53 67 4 2 8 10 8 17 0 8 10 29 23 48 38 56
144 280 157 332 5 17 19 62 33 100 13 39 38 135 53 215 27 134 29 163 29 370
0 208 -2 236 -29 370 -16 80 -40 177 -53 215 -14 39 -27 81 -30 95 -5 27 -25
72 -97 220 -51 105 -88 172 -97 180 -4 3 -22 30 -42 60 -19 31 -42 62 -51 69
-9 7 -16 18 -16 23 0 5 -12 23 -27 40 -58 64 -283 288 -290 288 -4 0 -19 12
-34 26 -15 15 -36 32 -47 38 -41 24 -138 90 -150 103 -7 7 -22 13 -33 13 -10
0 -19 3 -19 8 0 4 -21 18 -47 31 -27 13 -73 37 -104 52 -31 16 -62 29 -68 29
-6 0 -35 11 -64 25 -30 13 -72 28 -93 34 -21 5 -79 20 -129 34 -247 69 -614
76 -910 16 -73 -14 -179 -46 -266 -80 -41 -16 -80 -29 -85 -29 -9 0 -140 -66
-224 -112 -71 -40 -155 -95 -169 -112 -7 -9 -18 -16 -23 -16 -32 0 -338 -295
-396 -382 -13 -21 -29 -38 -33 -38 -5 0 -9 -7 -9 -15 0 -8 -8 -23 -17 -33 -26
-26 -103 -154 -151 -249 -40 -80 -72 -150 -72 -159 0 -6 -12 -39 -26 -75 -15
-35 -30 -80 -34 -99 -5 -19 -19 -80 -33 -135 -16 -64 -30 -161 -38 -267 -16
-210 -1 -448 38 -603 14 -55 28 -116 33 -135 4 -19 19 -64 34 -99 14 -36 26
-69 26 -75 0 -10 41 -100 78 -171 47 -89 110 -192 153 -250 16 -22 37 -51 47
-65 51 -74 176 -204 294 -306 53 -46 101 -84 106 -84 5 0 17 -9 27 -20 16 -18
59 -45 164 -105 130 -75 325 -160 399 -176 60 -12 156 -41 166 -51 6 -4 0 -8
-15 -8 -26 0 -200 -45 -344 -90 -49 -15 -103 -31 -120 -34 -16 -4 -59 -17 -95
-30 -169 -60 -175 -61 -217 -39 -57 29 -131 75 -170 106 -20 15 -42 27 -49 27
-8 0 -14 4 -14 8 0 5 -27 28 -60 52 -33 24 -60 47 -60 52 0 4 -6 8 -14 8 -8 0
-24 14 -36 30 -12 17 -26 30 -31 30 -9 0 -181 174 -231 233 -14 18 -44 53 -67
79 -22 26 -48 61 -58 78 -9 16 -21 30 -25 30 -4 0 -8 6 -8 13 0 6 -14 28 -30
47 -16 19 -30 39 -30 43 0 5 -13 28 -30 52 -16 24 -30 47 -30 51 0 4 -13 29
-30 56 -16 26 -30 53 -30 60 0 6 -13 33 -30 60 -16 26 -30 54 -30 61 0 8 -13
41 -30 75 -16 34 -30 68 -30 74 0 7 -13 51 -29 98 -97 282 -133 655 -101 1020
11 127 56 347 92 455 11 33 26 80 33 105 7 25 24 70 39 99 14 30 26 61 26 68
0 7 11 30 24 51 12 20 27 48 31 61 4 14 21 46 36 72 16 25 29 49 29 53 0 4 14
27 30 51 17 24 30 47 30 52 0 4 14 24 30 43 16 19 30 38 30 42 0 14 108 153
153 196 15 14 27 30 27 34 0 4 48 54 108 112 59 58 118 116 132 130 14 14 31
26 38 26 7 0 12 4 12 9 0 5 26 28 58 52 31 23 59 46 60 51 2 4 9 8 15 8 7 0
28 14 47 30 19 16 38 30 43 30 4 0 25 12 47 26 58 39 196 110 333 174 69 32
232 89 297 104 30 7 93 23 140 34 80 20 170 34 335 53 109 12 407 3 545 -16z
m-185 -515 c120 -12 264 -38 350 -62 39 -11 93 -26 120 -34 28 -8 74 -25 103
-39 29 -14 57 -25 62 -25 5 0 32 -13 58 -30 27 -16 55 -30 62 -30 6 0 32 -13
57 -30 24 -16 48 -30 53 -30 5 0 15 -6 22 -13 7 -7 29 -23 49 -35 134 -82 406
-336 443 -413 5 -10 12 -19 16 -19 4 0 25 -27 46 -60 22 -33 42 -60 47 -60 4
0 7 -6 7 -14 0 -7 9 -25 20 -39 24 -30 144 -270 155 -307 3 -14 18 -56 32 -93
14 -37 31 -96 39 -130 44 -201 55 -261 52 -299 -3 -41 -4 -42 -42 -45 -59 -3
-75 -24 -71 -88 l4 -52 -36 -6 c-20 -4 -41 -3 -47 1 -11 6 -16 8 -35 11 -5 0
-11 9 -13 19 -3 11 -23 22 -56 31 -29 7 -54 17 -58 22 -9 15 -41 10 -48 -7 -6
-16 -8 -16 -24 0 -26 22 -33 21 -72 -18 -19 -18 -40 -31 -47 -29 -7 3 -20 -3
-30 -12 -16 -17 -18 -16 -31 11 -9 18 -33 38 -63 53 -44 22 -52 23 -76 10 -20
-11 -27 -11 -30 -1 -6 16 -53 15 -77 -3 -11 -8 -30 -12 -47 -8 -21 4 -30 1
-35 -11 -3 -9 -14 -16 -23 -16 -9 0 -21 -10 -26 -22 -7 -17 -17 -22 -35 -19
-69 10 -278 11 -323 1 -59 -12 -70 -5 -84 50 -12 44 -24 47 -216 49 -140 1
-150 0 -196 -25 -41 -21 -50 -31 -55 -60 -7 -33 -8 -34 -55 -34 -54 0 -84 23
-81 62 4 47 0 58 -22 58 -22 0 -78 -54 -78 -77 0 -7 -6 -13 -12 -13 -21 0 -63
-73 -64 -110 -2 -84 -5 -101 -14 -95 -5 3 -7 12 -3 20 3 9 -5 24 -20 36 -16
12 -24 26 -20 35 3 8 -2 21 -11 27 -10 7 -17 17 -16 22 2 6 2 27 1 48 -1 26
-5 37 -17 37 -8 0 -13 4 -9 9 3 5 1 13 -5 16 -6 4 -8 15 -5 25 3 10 1 21 -5
25 -6 3 -8 11 -4 16 3 5 -7 35 -22 67 -26 55 -30 74 -33 175 -1 32 -7 53 -21
67 -11 11 -20 24 -20 28 0 15 -25 62 -33 62 -4 0 -6 -15 -5 -32 3 -36 -23 -49
-28 -15 -4 32 -14 32 -14 1 0 -21 -3 -25 -9 -14 -6 8 -8 17 -5 21 2 4 0 10 -6
14 -5 3 -10 -3 -10 -14 0 -31 -20 -25 -21 7 l-2 27 -4 -28 c-5 -31 -23 -27
-24 6 0 21 -1 21 -9 2 -16 -37 -11 -45 28 -46 20 -1 29 -3 18 -6 -26 -7 -135
8 -116 16 12 4 14 14 9 36 -5 22 -7 24 -8 8 -2 -35 -21 -38 -21 -3 0 17 -4 29
-10 25 -5 -3 -7 -12 -4 -19 3 -8 1 -17 -5 -21 -7 -4 -11 6 -11 25 0 40 -19 36
-40 -8 -8 -17 -22 -37 -31 -44 -17 -14 -39 -80 -37 -113 0 -11 5 -26 11 -33 7
-9 4 -17 -11 -28 -12 -8 -22 -24 -22 -34 0 -10 -4 -22 -10 -25 -5 -3 -10 -20
-10 -37 0 -17 -7 -39 -15 -48 -8 -9 -16 -31 -18 -49 -2 -18 -8 -36 -14 -39 -5
-4 -13 -27 -16 -51 -3 -24 -11 -47 -18 -51 -6 -5 -15 -25 -18 -46 -6 -36 -31
-61 -31 -31 0 17 -24 30 -57 32 -12 0 -25 4 -29 8 -12 12 -24 8 -24 -9 0 -12
-7 -14 -30 -9 -19 4 -30 3 -30 -4 0 -6 -13 -11 -30 -11 -20 0 -30 5 -30 15 0
20 -30 8 -55 -22 -18 -21 -26 -24 -58 -18 -21 4 -37 13 -37 21 0 17 -57 47
-76 40 -8 -3 -14 -1 -14 4 0 13 -68 42 -107 46 -28 2 -34 -2 -53 -39 -12 -23
-20 -33 -17 -21 2 12 0 29 -5 38 -6 10 -5 16 2 16 5 0 10 5 10 10 0 6 -7 10
-15 10 -8 0 -15 5 -15 10 0 6 -7 10 -15 10 -8 0 -15 -5 -15 -12 0 -7 -7 -5
-17 4 -10 9 -34 15 -53 15 -20 -1 -42 3 -49 8 -9 5 -18 3 -25 -7 -6 -8 -24
-17 -40 -20 l-29 -6 7 97 c9 147 33 308 57 386 11 39 25 89 29 112 5 22 21 65
35 94 14 29 25 58 25 64 0 15 91 197 107 213 7 7 13 22 13 32 0 10 4 20 9 22
8 3 68 90 97 140 6 11 23 32 38 47 14 15 26 30 26 35 0 7 224 232 288 289 17
15 35 27 40 27 5 0 17 9 26 19 10 11 42 34 72 52 30 18 54 37 54 41 0 4 8 8
19 8 10 0 23 6 29 13 13 16 173 95 272 135 270 108 610 160 875 132z m-665
-1510 c12 -8 12 -10 -5 -10 -11 0 -27 5 -35 10 -12 8 -12 10 5 10 11 0 27 -5
35 -10z m-64 -172 c-3 -13 -6 -26 -6 -30 0 -5 -4 -8 -10 -8 -5 0 -10 14 -10
30 0 21 5 30 16 30 12 0 15 -6 10 -22z m14 -83 c0 -16 -6 -25 -15 -25 -15 0
-21 31 -8 43 13 14 23 6 23 -18z m8 -77 c-2 -13 -7 -23 -13 -23 -5 0 -11 10
-13 23 -2 15 2 22 13 22 11 0 15 -7 13 -22z m12 -103 c0 -24 -5 -35 -15 -35
-10 0 -15 11 -15 35 0 24 5 35 15 35 10 0 15 -11 15 -35z m1784 -28 c23 -18
64 -39 93 -46 47 -11 58 -11 117 9 36 12 67 29 70 36 3 9 21 14 49 14 35 0 49
-6 71 -29 16 -17 44 -32 64 -36 63 -11 112 -29 112 -41 0 -5 -12 -22 -27 -36
-25 -24 -33 -25 -77 -18 -27 4 -55 15 -61 24 -7 9 -21 16 -32 16 -12 0 -25 11
-32 26 -6 15 -14 24 -18 21 -3 -4 -14 -2 -24 3 -24 13 -47 3 -51 -23 -2 -16
-12 -23 -40 -28 -21 -3 -46 -13 -56 -22 -10 -9 -36 -19 -58 -23 -34 -5 -50 -1
-90 21 -27 15 -60 38 -75 51 -34 33 -83 32 -105 -1 -9 -14 -26 -25 -39 -25
-12 0 -30 -9 -40 -20 -18 -19 -65 -28 -65 -12 0 5 -19 16 -42 26 -103 44 -124
56 -141 75 -17 21 -17 21 25 15 98 -13 150 -27 155 -40 8 -21 17 -18 54 18 52
48 117 77 173 78 41 0 56 -6 90 -33z m646 -26 c0 -12 -29 -23 -41 -15 -18 10
-9 24 16 24 14 0 25 -4 25 -9z m-2410 -46 c0 -18 -5 -25 -20 -25 -15 0 -20 7
-20 25 0 18 5 25 20 25 15 0 20 -7 20 -25z m2491 -108 c-16 -16 -35 6 -26 33
l7 22 15 -22 c11 -16 12 -25 4 -33z m-2051 23 c0 -18 -7 -20 -60 -20 -53 0
-60 2 -60 20 0 18 7 20 60 20 53 0 60 -2 60 -20z m180 0 c0 -18 -7 -20 -60
-20 -53 0 -60 2 -60 20 0 18 7 20 60 20 53 0 60 -2 60 -20z m180 0 c0 -18 -7
-20 -60 -20 -53 0 -60 2 -60 20 0 18 7 20 60 20 53 0 60 -2 60 -20z m170 0 c0
-18 -7 -20 -60 -20 -53 0 -60 2 -60 20 0 18 7 20 60 20 53 0 60 -2 60 -20z
m180 0 c0 -18 -7 -20 -60 -20 -53 0 -60 2 -60 20 0 18 7 20 60 20 53 0 60 -2
60 -20z m-2030 -31 c0 -22 -25 -48 -47 -49 -16 0 -17 24 -3 51 15 27 50 25 50
-2z m3230 -64 l0 -25 -630 0 -630 0 0 25 0 25 630 0 630 0 0 -25z m-2020 -10
c0 -24 -2 -25 -65 -25 -63 0 -65 1 -65 25 0 24 2 25 65 25 63 0 65 -1 65 -25z
m170 0 c0 -24 -3 -25 -60 -25 -57 0 -60 1 -60 25 0 24 3 25 60 25 57 0 60 -1
60 -25z m180 0 c0 -24 -3 -25 -60 -25 -57 0 -60 1 -60 25 0 24 3 25 60 25 57
0 60 -1 60 -25z m180 0 c0 -24 -3 -25 -60 -25 -57 0 -60 1 -60 25 0 24 3 25
60 25 57 0 60 -1 60 -25z m180 0 c0 -24 -2 -25 -65 -25 -63 0 -65 1 -65 25 0
24 2 25 65 25 63 0 65 -1 65 -25z m364 -93 c-4 -12 -10 -22 -15 -22 -11 0 -12
44 -2 54 12 11 23 -9 17 -32z m566 34 c0 -3 -4 -17 -10 -31 -12 -31 -30 -24
-30 11 0 17 5 24 20 24 11 0 20 -2 20 -4z m-190 -20 c0 -11 -19 -15 -25 -6 -3
5 1 10 9 10 9 0 16 -2 16 -4z m85 -6 c3 -5 1 -10 -4 -10 -6 0 -11 5 -11 10 0
6 2 10 4 10 3 0 8 -4 11 -10z m-1015 -30 c0 -30 -1 -30 -55 -30 -30 0 -55 3
-55 8 0 4 -3 17 -6 30 -6 21 -4 22 55 22 l61 0 0 -30z m150 9 c0 -18 -5 -20
-47 -17 -36 2 -49 7 -51 21 -3 14 4 17 47 17 45 0 51 -3 51 -21z m150 -5 c0
-23 -3 -25 -42 -22 -36 2 -44 7 -46 26 -3 20 1 22 42 22 43 0 46 -2 46 -26z
m140 6 c0 -17 -7 -20 -45 -20 -38 0 -45 3 -45 20 0 17 7 20 45 20 38 0 45 -3
45 -20z m-1390 -25 l0 -35 -70 0 -70 0 0 35 0 35 70 0 70 0 0 -35z m590 5 l0
-30 -75 0 -75 0 0 30 0 30 75 0 75 0 0 -30z m190 5 c0 -24 -3 -25 -60 -25 -57
0 -60 1 -60 25 0 24 3 25 60 25 57 0 60 -1 60 -25z m-980 -10 c0 -25 -1 -25
-84 -25 -74 0 -84 2 -89 19 -3 11 -2 22 1 25 3 3 43 6 89 6 82 0 83 0 83 -25z
m388 -2 c3 -22 0 -23 -62 -23 -64 0 -66 1 -66 25 0 25 1 26 63 23 56 -3 62 -5
65 -25z m212 7 c0 -18 -7 -20 -79 -20 -74 0 -79 1 -74 20 5 18 14 20 79 20 67
0 74 -2 74 -20z m-1012 -32 l3 -38 -60 0 -61 0 0 33 c0 19 3 37 7 41 4 4 30 6
58 4 l50 -3 3 -37z m192 7 l0 -35 -75 0 -75 0 0 28 c0 16 3 32 7 35 3 4 37 7
75 7 l68 0 0 -35z m2134 26 c3 -5 -1 -12 -10 -15 -22 -9 -24 -8 -24 9 0 16 25
21 34 6z m-2734 -36 c0 -24 -2 -25 -65 -25 -63 0 -65 1 -65 25 0 24 2 25 65
25 63 0 65 -1 65 -25z m230 -10 l0 -35 -84 0 c-88 0 -96 4 -96 51 0 17 8 19
90 19 l90 0 0 -35z m-400 -1 c0 -24 -2 -25 -52 -22 -46 3 -53 6 -56 26 -3 21
0 22 52 22 53 0 56 -1 56 -26z m1606 -13 c12 -11 362 -22 366 -11 2 5 108 12
236 16 202 6 232 5 232 -8 0 -13 -32 -16 -197 -21 -149 -4 -200 -9 -208 -19
-16 -21 -532 -19 -545 2 -7 11 -5 16 10 18 10 2 24 10 30 18 14 15 61 19 76 5z
m1196 -53 c-4 -18 -11 -20 -58 -16 -30 3 -56 7 -59 10 -12 12 7 34 43 49 35
15 38 15 58 -3 14 -13 20 -27 16 -40z m369 39 c-6 -6 -11 -20 -12 -31 0 -20
-1 -20 -11 1 -14 28 -4 55 17 47 12 -5 13 -10 6 -17z m277 11 c15 -15 15 -43
2 -69 -9 -15 -15 -17 -30 -9 -28 15 -29 90 -2 90 10 0 23 -5 30 -12z m-118
-49 c0 -24 -4 -29 -25 -29 -22 0 -25 4 -25 34 0 19 6 36 13 39 20 7 37 -13 37
-44z m-2070 5 c0 -24 -2 -25 -52 -22 -46 3 -53 6 -56 26 -3 21 0 22 52 22 53
0 56 -1 56 -26z m-752 -16 l-3 -33 -77 -3 -78 -3 0 36 0 35 81 0 80 0 -3 -32z
m190 5 c3 -22 1 -23 -78 -23 -71 0 -81 2 -76 16 3 9 6 20 6 25 0 6 31 9 73 7
66 -3 72 -5 75 -25z m202 2 c0 -25 -1 -25 -80 -25 -79 0 -80 0 -80 25 0 25 1
25 80 25 79 0 80 0 80 -25z m190 5 c0 -18 -7 -20 -60 -20 -53 0 -60 2 -60 20
0 18 7 20 60 20 53 0 60 -2 60 -20z m1980 1 c-1 -3 -7 -17 -15 -31 l-13 -25
-7 27 c-4 15 -4 31 -1 37 7 10 36 4 36 -8z m-2770 -16 c0 -25 -1 -25 -90 -25
-89 0 -90 0 -90 25 0 25 1 25 90 25 89 0 90 0 90 -25z m2260 -21 l0 -35 -42 3
c-32 2 -44 8 -46 21 -7 35 6 47 48 47 39 0 40 -1 40 -36z m-2480 6 c0 -18 -7
-20 -65 -20 -36 0 -65 2 -65 4 0 2 -3 11 -6 20 -5 14 4 16 65 16 64 0 71 -2
71 -20z m2360 -20 l0 -40 -45 0 -45 0 0 40 0 40 45 0 45 0 0 -40z m-910 1 c0
-10 3 -33 6 -50 l7 -31 -56 0 c-59 0 -67 8 -67 73 0 26 2 27 55 27 47 0 55 -3
55 -19z m780 -26 l0 -45 -40 0 -40 0 0 45 0 45 40 0 40 0 0 -45z m-932 3 c-3
-29 -6 -33 -33 -33 -27 0 -30 4 -33 33 -3 31 -2 32 33 32 35 0 36 -1 33 -32z
m516 1 c15 -74 12 -79 -49 -79 l-55 0 0 55 0 55 49 0 c46 0 49 -1 55 -31z
m296 -14 l0 -45 -60 0 -60 0 0 45 0 45 60 0 60 0 0 -45z m939 31 c9 -11 8 -15
-5 -20 -23 -9 -24 -8 -24 14 0 23 13 26 29 6z m-1413 -6 l44 0 0 -45 0 -45
-85 0 -85 0 0 28 c0 15 -3 38 -7 51 -6 24 -5 24 42 18 26 -4 67 -7 91 -7z
m318 -21 c11 -58 10 -59 -49 -59 l-55 0 0 38 c0 48 4 52 55 52 40 0 43 -2 49
-31z m-839 -29 l0 -35 -85 0 c-81 0 -85 1 -88 23 -7 48 2 53 90 50 l83 -3 0
-35z m1681 25 c8 -21 -6 -41 -17 -24 -12 19 -11 39 1 39 6 0 13 -7 16 -15z
m-1906 -30 l0 -35 -65 0 -65 0 0 35 0 35 65 0 65 0 0 -35z m1827 -31 c-2 -2
-26 -5 -53 -6 -48 -3 -49 -3 -49 27 0 29 2 30 50 35 49 5 50 4 53 -23 2 -16 2
-31 -1 -33z m-2607 5 l0 -52 -37 7 c-21 3 -50 6 -65 6 -26 0 -28 3 -28 45 l0
45 65 0 65 0 0 -51z m220 11 l0 -40 -73 0 c-41 0 -76 2 -78 5 -3 2 -3 20 -1
40 l4 35 74 0 74 0 0 -40z m180 0 l0 -40 -75 0 c-41 0 -75 4 -75 9 0 5 3 23 6
40 l7 31 68 0 69 0 0 -40z m180 10 l0 -30 -60 0 -60 0 0 30 0 30 60 0 60 0 0
-30z m2636 13 c22 -29 17 -33 -41 -33 -30 0 -55 2 -55 5 0 3 8 14 18 24 22 25
61 26 78 4z m-3388 -45 c2 -27 0 -48 -4 -48 -20 0 -54 46 -54 72 0 26 3 29 28
26 25 -3 27 -7 30 -50z m2610 -39 c-18 -12 -91 -20 -99 -12 -4 4 -10 22 -13
39 l-7 32 58 8 58 9 6 -35 c4 -20 2 -38 -3 -41z m516 32 c9 -14 -12 -63 -24
-56 -16 10 -12 65 4 65 8 0 17 -4 20 -9z m-1801 -17 c47 -16 55 -27 38 -52 -6
-11 -17 -11 -50 -2 -36 10 -41 14 -41 40 0 17 1 30 3 30 2 0 24 -7 50 -16z
m1115 -21 c-3 -37 -4 -38 -44 -41 -36 -3 -42 0 -48 20 -14 52 -9 58 45 58 l50
0 -3 -37z m568 16 c3 -6 0 -15 -7 -20 -14 -8 -32 9 -23 23 7 11 22 10 30 -3z
m-1798 -36 c3 -21 0 -23 -47 -23 -48 0 -51 2 -51 26 0 24 2 25 48 22 40 -3 47
-6 50 -25z m275 16 c30 -8 37 -14 37 -36 0 -18 -4 -24 -14 -20 -8 3 -31 9 -50
13 -29 5 -36 11 -36 30 0 27 8 29 63 13z m-793 -29 l0 -30 -65 0 -65 0 0 30 0
30 65 0 65 0 0 -30z m180 -5 l0 -35 -70 0 -70 0 0 35 0 35 70 0 70 0 0 -35z
m805 23 c1 -2 5 -15 9 -30 6 -28 6 -28 -48 -28 -59 0 -60 0 -70 44 l-7 29 56
-6 c32 -3 58 -7 60 -9z m395 -23 l0 -35 -70 0 -70 0 0 30 c0 29 1 29 63 33 34
2 65 4 70 5 4 1 7 -14 7 -33z m180 6 c0 -25 -4 -29 -37 -35 -21 -3 -52 -6 -69
-6 -29 0 -32 3 -36 35 l-4 35 73 0 73 0 0 -29z m1065 9 c0 -20 -51 -25 -70 -7
-19 20 -8 29 35 25 23 -2 35 -8 35 -18z m-2805 -20 l0 -30 -80 0 -80 0 0 30 0
30 80 0 80 0 0 -30z m540 5 c0 -24 -2 -25 -65 -25 -63 0 -65 1 -65 25 0 24 2
25 65 25 63 0 65 -1 65 -25z m810 -4 c0 -39 -8 -43 -74 -35 -53 6 -56 8 -56
35 0 29 0 29 65 29 l65 0 0 -29z m940 20 c0 -17 -18 -21 -24 -6 -3 9 0 15 9
15 8 0 15 -4 15 -9z m-2717 -36 l18 -25 -51 0 c-47 0 -50 2 -50 25 0 22 4 25
33 25 22 -1 37 -8 50 -25z m247 5 c0 -19 -7 -20 -90 -20 -83 0 -90 1 -90 20 0
19 7 20 90 20 83 0 90 -1 90 -20z m984 -20 c13 0 17 -7 14 -27 -4 -34 -27 -40
-57 -16 -18 15 -21 24 -16 46 7 26 9 27 24 12 10 -8 25 -15 35 -15z m1396 -5
c0 -50 -117 -78 -141 -33 -18 34 19 58 87 58 51 0 54 -1 54 -25z m250 -40 l0
-45 -61 0 c-60 0 -60 0 -57 27 2 22 12 29 53 44 68 24 65 25 65 -26z m-452 23
c27 -27 15 -40 -55 -62 -29 -9 -49 24 -33 54 12 23 68 28 88 8z m-1089 -4 c31
-7 38 -18 22 -42 -13 -21 -91 5 -91 30 0 19 16 22 69 12z m925 0 c23 -9 20
-41 -6 -58 -28 -17 -89 -28 -104 -18 -18 12 -33 47 -26 59 4 7 28 13 52 16 25
2 50 4 57 5 6 1 18 -1 27 -4z m886 -14 c0 -11 -7 -20 -15 -20 -8 0 -15 9 -15
20 0 11 7 20 15 20 8 0 15 -9 15 -20z m-2462 1 c8 -4 12 -19 10 -32 -3 -22 -9
-24 -59 -27 -57 -3 -89 14 -74 38 16 26 95 39 123 21z m432 -21 l0 -30 -75 0
c-73 0 -75 1 -75 24 0 26 14 31 108 34 40 2 42 1 42 -28z m396 22 c18 -6 19
-11 12 -41 -9 -33 -9 -33 -56 -26 -56 8 -72 20 -72 51 0 22 4 24 48 23 26 -1
56 -4 68 -7z m1520 -3 c12 -19 -13 -32 -50 -25 -51 10 -48 36 3 36 22 0 43 -5
47 -11z m-2122 -16 c11 -28 -7 -34 -90 -31 -61 2 -79 6 -79 18 0 18 35 28 106
29 44 1 58 -3 63 -16z m764 1 c27 -4 32 -9 32 -33 0 -28 0 -28 -57 -23 -60 4
-83 19 -83 53 0 18 5 18 108 3z m-1140 -18 c5 -25 -14 -36 -69 -36 -50 0 -76
18 -65 45 4 13 19 15 68 13 52 -2 63 -6 66 -22z m1342 -17 c0 -29 0 -29 -60
-29 l-60 0 0 33 0 32 60 -3 c59 -4 60 -4 60 -33z m208 14 c4 -30 -34 -45 -102
-41 -40 2 -52 7 -54 21 -8 41 4 48 80 45 67 -3 73 -5 76 -25z m632 -35 c0 -20
-5 -28 -17 -28 -10 0 -42 -3 -70 -6 -49 -6 -53 -5 -53 13 0 27 15 38 75 56 55
16 65 11 65 -35z m-2560 17 c0 -24 -2 -25 -65 -25 -63 0 -65 1 -65 25 0 24 2
25 65 25 63 0 65 -1 65 -25z m202 0 c-4 -24 -7 -25 -76 -25 -40 0 -76 3 -79 6
-3 4 -2 15 4 25 8 16 22 19 83 19 73 0 73 0 68 -25z m864 -10 c16 -8 39 -15
52 -15 16 0 22 -6 22 -21 0 -19 -4 -20 -36 -14 -48 8 -74 26 -74 47 0 22 0 22
36 3z m-122 -21 c9 -3 16 -17 16 -30 0 -21 -5 -24 -35 -24 -30 0 -35 3 -35 23
0 36 17 45 54 31z m327 -4 c14 0 19 -7 19 -25 0 -20 -5 -25 -25 -25 -38 0 -75
21 -75 43 0 17 5 19 31 13 17 -3 40 -6 50 -6z m1126 -6 c8 -21 -7 -34 -53 -44
-51 -12 -74 -4 -74 24 0 32 7 36 67 36 39 0 55 -4 60 -16z m-1553 -4 c14 -5
26 -16 26 -25 0 -12 -15 -15 -85 -15 -84 0 -85 0 -85 25 0 24 3 25 59 25 33 0
71 -4 85 -10z m-881 -21 c18 -29 1 -49 -41 -49 -62 0 -85 40 -34 59 36 13 63
10 75 -10z m468 11 c14 0 19 -7 19 -30 0 -26 -4 -30 -28 -30 -32 0 -72 25 -72
45 0 15 27 25 48 19 8 -2 22 -4 33 -4z m229 -13 l25 -10 -33 -9 c-19 -5 -57
-8 -85 -6 -46 3 -52 6 -55 26 -3 23 -2 23 60 16 35 -4 74 -11 88 -17z m785 -4
c-9 -37 -8 -36 -54 -28 -45 7 -54 15 -45 39 4 12 20 16 56 16 50 0 50 0 43
-27z m202 13 c1 -1 -1 -15 -6 -32 -7 -27 -11 -29 -62 -32 -68 -3 -81 5 -73 45
l6 31 67 -6 c36 -2 67 -5 68 -6z m581 -7 c20 -32 -1 -48 -74 -55 -56 -6 -62
-5 -78 17 -9 13 -16 31 -16 41 0 16 10 18 78 18 68 0 79 -3 90 -21z m447 -11
c-6 -15 -75 -31 -75 -18 0 3 15 15 32 27 33 23 53 19 43 -9z m-2365 7 c7 -8
10 -22 6 -30 -7 -20 -114 -21 -142 -1 -24 18 -14 28 39 37 68 11 84 10 97 -6z
m-176 -18 c8 -14 8 -20 -4 -27 -23 -15 -94 -12 -116 5 -19 15 -19 15 1 30 27
22 104 16 119 -8z m1885 9 c8 -10 6 -19 -10 -40 -18 -23 -28 -26 -78 -26 -58
0 -81 11 -81 40 0 30 23 40 91 40 44 0 70 -5 78 -14z m-967 -20 c19 -28 1 -52
-32 -41 -21 7 -35 38 -25 55 8 12 46 3 57 -14z m758 -11 l0 -36 -62 3 c-63 3
-63 3 -66 36 l-3 32 65 0 66 0 0 -35z m930 -5 c0 -11 -7 -20 -15 -20 -8 0 -15
9 -15 20 0 11 7 20 15 20 8 0 15 -9 15 -20z m-1528 -13 c17 -25 4 -52 -26 -55
-52 -6 -76 5 -76 37 0 15 3 31 8 35 10 11 85 -3 94 -17z m1271 2 c5 -17 -2
-24 -38 -39 -71 -30 -80 -30 -83 7 -3 29 0 33 30 42 57 16 85 13 91 -10z
m-2093 -33 c0 -8 3 -21 6 -29 8 -21 -28 -30 -83 -22 -44 6 -60 22 -49 50 8 21
126 22 126 1z m540 0 c0 -17 -22 -26 -65 -26 -35 0 -51 12 -40 30 10 16 105
13 105 -4z m478 -23 c3 -31 2 -33 -30 -33 -48 0 -108 19 -108 33 0 27 25 38
80 35 54 -3 55 -4 58 -35z m901 24 c8 -10 7 -18 -3 -32 -15 -21 -112 -32 -136
-16 -26 18 1 45 51 52 72 10 76 10 88 -4z m297 -3 c-3 -9 -6 -20 -6 -25 0 -5
-16 -9 -35 -9 -40 0 -45 12 -13 34 30 21 62 21 54 0z m-2024 -18 c15 -23 7
-26 -67 -26 -66 0 -75 2 -75 18 0 10 2 21 4 23 9 9 131 -4 138 -15z m203 -1
c0 -18 -8 -20 -79 -23 -84 -3 -108 6 -86 33 10 12 29 15 89 13 68 -3 76 -5 76
-23z m-550 -1 c30 -23 3 -35 -75 -32 -59 3 -65 5 -68 26 -3 21 0 22 60 22 40
-1 70 -6 83 -16z m1317 -12 c26 -22 13 -32 -43 -32 -52 0 -72 17 -50 43 13 17
69 10 93 -11z m-1505 2 c2 -6 -10 -17 -26 -24 -24 -10 -36 -9 -60 1 -56 25
-47 40 21 37 34 -2 63 -8 65 -14z m2074 -5 c17 -32 -1 -41 -77 -40 -69 1 -93
13 -73 38 12 14 38 20 96 22 34 1 45 -3 54 -20z m-1048 -7 c28 -3 37 -9 37
-23 0 -30 -4 -34 -25 -31 -43 7 -85 33 -85 54 0 15 4 18 18 12 9 -4 34 -9 55
-12z m672 -5 c31 -24 8 -37 -63 -37 -74 0 -98 10 -89 34 8 21 124 23 152 3z
m194 -1 c18 -21 -11 -34 -84 -38 -52 -3 -60 -1 -63 16 -6 26 15 36 79 36 37 0
61 -5 68 -14z m-1011 -48 c-3 -20 -8 -23 -48 -21 l-45 3 69 -25 c39 -14 78
-25 88 -25 9 0 30 -16 45 -35 40 -49 103 -74 333 -127 72 -17 122 -20 330 -20
228 0 254 2 375 28 72 14 144 29 160 31 34 5 203 55 280 83 28 10 66 24 85 31
19 6 63 25 98 41 35 15 68 28 75 28 13 0 -53 -59 -68 -60 -5 0 -25 -12 -42
-28 -18 -15 -68 -41 -110 -57 l-78 -30 57 -5 c62 -6 73 -12 65 -34 -10 -25
-74 -37 -247 -47 -91 -5 -169 -14 -175 -20 -6 -6 -3 -15 8 -26 15 -15 25 -16
89 -5 117 18 213 25 262 18 40 -6 46 -10 46 -31 0 -13 -6 -27 -12 -32 -7 -4
-141 -13 -298 -20 -236 -10 -295 -16 -345 -32 l-60 -20 240 0 c175 0 267 -4
339 -16 55 -9 103 -18 107 -20 4 -3 23 6 43 20 47 32 62 31 69 0 2 -14 2 -24
0 -21 -2 2 -22 -14 -43 -35 -21 -21 -46 -39 -55 -39 -19 0 -73 -27 -93 -46 -7
-8 -19 -14 -26 -14 -7 0 -37 -13 -67 -30 -30 -16 -60 -30 -66 -30 -7 0 -42
-13 -78 -30 -36 -16 -73 -30 -83 -30 -10 0 -22 -4 -27 -9 -6 -5 -44 -19 -85
-32 -71 -22 -88 -23 -350 -20 -165 1 -303 -2 -344 -9 -84 -13 -179 -1 -316 41
-52 16 -100 29 -106 29 -32 0 -287 120 -356 167 -26 18 -51 34 -55 36 -5 1 -7
5 -6 8 1 3 -10 12 -25 20 -15 8 -29 16 -32 19 -3 3 -19 16 -37 28 -24 17 -33
31 -35 60 -3 34 -5 37 -35 38 -46 1 -125 52 -134 87 l-7 27 36 -19 c31 -16 78
-22 282 -35 277 -18 439 -21 425 -7 -6 5 -152 17 -325 26 -365 19 -391 22
-405 52 -6 12 -22 31 -36 42 l-24 20 130 2 c72 0 152 4 180 7 l49 7 -27 18
c-25 16 -44 17 -211 11 l-183 -7 -5 27 -5 26 359 0 c333 0 359 -1 365 -17 3
-10 17 -29 30 -43 33 -33 139 -165 151 -186 5 -9 14 -14 21 -10 14 9 -6 41
-79 126 -31 36 -67 91 -81 123 -19 46 -30 59 -53 65 -16 4 -31 13 -34 20 -3 9
20 12 83 12 84 0 86 -1 83 -22z m247 12 c3 -5 31 -10 61 -10 51 0 54 -1 54
-25 0 -19 -5 -25 -22 -24 -48 1 -101 24 -109 47 -8 22 4 32 16 12z m1235 -16
c13 -13 13 -16 0 -24 -8 -5 -33 -10 -55 -10 -23 0 -46 -5 -52 -11 -8 -8 -13
-5 -18 10 -3 11 -3 26 0 32 20 31 95 33 125 3z m-2127 -1 c20 -12 2 -23 -35
-23 -53 0 -118 17 -118 31 0 10 134 3 153 -8z m257 -3 c0 -13 -120 -13 -140 0
-10 7 9 10 63 10 45 0 77 -4 77 -10z m1714 -12 c8 -14 7 -22 -7 -35 -13 -14
-34 -18 -87 -18 -77 0 -98 11 -81 43 9 17 23 22 74 25 86 5 88 4 101 -15z
m-2189 3 c-20 -18 -63 -21 -69 -6 -4 12 3 15 36 15 25 0 38 -4 33 -9z m1378
-31 c12 0 28 5 35 12 9 9 12 5 12 -20 0 -36 0 -36 -70 -21 -44 9 -50 14 -50
36 0 25 1 25 25 9 13 -9 35 -16 48 -16z m-372 5 c24 -9 71 -22 104 -29 33 -8
94 -23 135 -34 104 -28 272 -52 355 -52 84 0 426 26 545 41 46 5 109 19 139
29 61 20 71 19 71 -10 0 -12 -9 -21 -22 -24 -260 -54 -505 -86 -648 -86 -77 0
-323 28 -395 44 -33 8 -87 20 -120 26 -88 17 -229 74 -233 94 -4 20 13 20 69
1z m579 -19 c0 -28 -1 -28 -37 -22 -21 3 -44 6 -50 6 -7 0 -13 10 -13 23 0 20
5 22 50 22 48 0 50 -1 50 -29z m148 8 c6 -2 12 -13 12 -24 0 -18 -6 -20 -55
-20 -54 0 -55 1 -55 29 0 28 1 29 43 24 23 -2 48 -6 55 -9z m237 3 c17 -13 16
-15 -15 -25 -18 -7 -64 -12 -101 -12 -67 0 -69 1 -69 25 0 25 1 25 83 25 54 0
90 -5 102 -13z m525 0 c0 -8 -9 -22 -20 -32 -19 -17 -22 -17 -37 -3 -9 9 -13
24 -10 32 8 20 67 22 67 3z m220 -341 c0 -2 -8 -10 -17 -17 -16 -13 -17 -12
-4 4 13 16 21 21 21 13z m-70 -50 c0 -2 -8 -10 -17 -17 -16 -13 -17 -12 -4 4
13 16 21 21 21 13z m-830 -404 c133 -15 464 -91 670 -153 52 -16 100 -29 107
-29 7 0 56 -14 110 -31 340 -108 493 -140 693 -145 l135 -3 0 -223 0 -223 -85
-9 c-56 -6 -137 -5 -235 2 -201 16 -272 28 -385 63 -52 16 -100 29 -107 29 -6
0 -47 13 -90 29 -43 16 -96 33 -118 39 -22 5 -67 19 -100 30 -437 152 -875
222 -1115 178 -208 -38 -205 -37 -445 -109 -68 -20 -136 -44 -222 -78 -40 -16
-78 -29 -85 -29 -6 0 -46 -13 -87 -29 -105 -41 -265 -91 -291 -91 -12 0 -67
-12 -123 -26 -164 -42 -474 -50 -559 -16 l-28 12 0 222 0 223 238 1 c216 1
244 3 317 24 44 12 105 28 135 35 30 7 83 24 117 39 34 14 68 26 75 26 6 0 48
13 92 29 150 52 481 152 507 151 9 0 68 13 130 30 63 16 134 30 159 31 25 0
63 4 85 9 48 11 386 5 505 -8z m-2725 -91 c33 -16 83 -35 110 -41 145 -36 227
-50 290 -50 39 0 108 -3 154 -7 83 -6 83 -6 60 -25 -48 -36 -165 -86 -221 -93
l-58 -6 0 -176 0 -175 -97 4 c-74 3 -124 13 -203 38 -58 18 -111 39 -119 46
-11 10 3 30 89 118 l103 106 -34 33 c-46 44 -89 98 -89 114 0 7 -13 35 -30 61
-29 47 -38 82 -23 82 4 0 34 -13 68 -29z m4877 2 c-3 -16 -15 -44 -27 -63 -12
-19 -29 -51 -38 -70 -18 -38 -72 -101 -100 -116 -15 -8 -1 -26 89 -118 71 -72
103 -111 96 -118 -5 -5 -57 -26 -113 -45 -82 -27 -126 -36 -206 -40 l-103 -6
0 180 0 179 -50 3 c-63 3 -173 46 -230 91 l-25 20 35 0 c19 1 100 5 180 10
164 9 365 54 435 96 52 31 63 31 57 -3z"/>
<path d="M18423 21143 l-73 -4 0 -35 c0 -21 4 -33 10 -29 6 3 10 13 10 21 0
17 50 39 60 27 13 -14 19 -230 7 -242 -8 -8 4 -11 48 -11 55 0 57 1 42 18 -11
12 -17 50 -22 130 l-8 112 24 0 c12 0 33 -10 46 -22 l23 -21 0 31 c0 36 18 33
-167 25z"/>
<path d="M18681 21132 c10 -16 10 -45 1 -138 -6 -65 -10 -119 -9 -120 1 -1 45
-6 97 -9 l95 -7 11 41 11 41 -29 -31 c-25 -26 -35 -30 -71 -27 -47 3 -55 19
-43 83 5 27 10 32 26 28 12 -3 24 -19 29 -37 l9 -31 1 35 c1 19 3 53 6 75 3
22 2 33 -1 25 -11 -25 -36 -50 -51 -50 -14 0 -17 29 -7 79 5 25 12 31 31 31
34 0 60 -16 77 -48 l15 -27 1 41 0 42 -87 6 c-49 4 -96 10 -106 13 -16 4 -17
2 -6 -15z"/>
<path d="M18233 21123 c-26 -5 -30 -18 -9 -26 8 -3 16 -18 19 -34 3 -24 4 -22
6 9 0 24 7 41 19 47 18 11 8 12 -35 4z"/>
<path d="M18034 21077 c11 -8 21 -37 27 -82 18 -120 22 -128 60 -149 32 -17
41 -18 82 -7 62 18 80 53 65 131 -14 79 -19 75 -16 -14 2 -67 0 -80 -17 -92
-55 -40 -94 -3 -105 98 -14 127 -15 128 -68 128 -40 0 -43 -2 -28 -13z"/>
<path d="M17905 21045 c-30 -13 -30 -13 -4 -14 14 -1 30 -6 37 -13 9 -9 12 -7
12 9 0 30 -10 33 -45 18z"/>
<path d="M19154 21041 c-58 -27 -74 -53 -74 -127 0 -56 3 -65 31 -93 17 -17
38 -31 47 -31 15 1 15 2 0 11 -30 17 -25 131 7 185 27 46 49 58 88 49 42 -11
54 -56 32 -123 -27 -87 -42 -110 -78 -121 l-32 -9 36 -1 c80 -2 129 40 145
124 10 55 -30 115 -93 138 -59 21 -58 21 -109 -2z"/>
<path d="M17772 21007 c-59 -20 -63 -23 -57 -47 9 -35 20 -44 22 -18 2 20 37
57 55 58 6 0 17 -27 59 -158 20 -63 22 -74 9 -82 -23 -14 -10 -12 44 9 27 10
44 21 39 24 -10 6 -22 37 -67 171 -8 26 -13 52 -10 57 9 15 -27 9 -94 -14z"/>
<path d="M19477 20954 c3 -8 -1 -29 -10 -47 -9 -18 -31 -67 -51 -109 l-34 -77
34 -20 c43 -26 43 -26 37 -2 -7 28 35 104 53 97 9 -3 18 -6 20 -6 2 0 4 -14 4
-32 0 -40 14 -28 34 32 14 41 14 73 0 36 -8 -20 -64 -22 -64 -3 0 16 38 97 46
97 2 0 20 -6 38 -14 33 -14 54 -53 40 -79 -3 -7 4 -1 15 13 30 37 26 46 -26
66 -27 10 -65 28 -85 41 -44 27 -60 29 -51 7z"/>
<path d="M17598 20934 c-42 -23 -46 -28 -33 -41 8 -8 15 -20 15 -27 0 -6 16
-43 36 -81 22 -45 34 -80 32 -97 -4 -27 -4 -27 29 -13 45 19 70 34 57 35 -6 0
-28 35 -48 78 -21 42 -45 90 -52 106 -13 26 -13 31 2 47 22 24 19 23 -38 -7z"/>
<path d="M17428 20850 c-20 -9 -49 -26 -65 -37 -15 -11 -38 -23 -49 -27 -12
-4 -30 -16 -40 -27 -17 -18 -17 -21 -1 -36 16 -16 17 -16 17 3 0 22 29 54 48
54 7 0 12 -6 12 -12 0 -7 13 -32 28 -55 68 -106 84 -134 79 -147 -3 -8 11 -3
33 12 32 20 37 27 25 36 -7 6 -24 31 -36 56 -13 25 -33 59 -44 75 -30 42 -37
65 -24 81 15 19 38 18 61 -3 21 -18 23 -8 5 24 -12 21 -12 21 -49 3z"/>
<path d="M19800 20764 c-14 -35 -13 -38 6 -20 19 19 33 20 57 2 20 -15 19 -17
-52 -128 -42 -67 -63 -84 -84 -71 -7 3 -4 -2 5 -13 9 -10 30 -27 47 -37 30
-17 31 -17 31 0 0 10 11 31 25 47 14 16 25 33 25 37 0 12 70 103 81 107 18 7
39 -21 39 -52 l0 -31 20 25 c24 31 24 33 2 45 -32 17 -136 88 -150 102 -21 20
-42 15 -52 -13z"/>
<path d="M17170 20682 c0 -7 -9 -12 -19 -12 -28 0 -81 -60 -81 -91 0 -26 30
-61 62 -72 10 -3 45 -1 79 5 55 9 64 9 75 -6 8 -12 9 -27 4 -47 -10 -36 4 -30
25 10 17 33 9 69 -19 94 -18 15 -33 17 -103 11 -92 -6 -107 3 -85 52 9 19 19
24 50 24 21 0 43 -5 50 -12 6 -6 14 -9 17 -7 3 3 -9 18 -25 34 -17 16 -30 23
-30 17z"/>
<path d="M20090 20587 c0 -10 -12 -31 -27 -46 -16 -15 -50 -51 -76 -80 -38
-41 -54 -52 -70 -47 -13 3 2 -15 38 -49 33 -29 73 -66 88 -82 l28 -28 21 25
20 25 -40 3 c-26 2 -47 11 -62 28 l-23 24 30 38 c17 20 36 37 44 37 19 0 24
-42 7 -62 -12 -15 -11 -15 10 -4 12 6 22 16 22 22 0 6 15 24 33 41 l32 30 -31
-16 c-25 -12 -35 -13 -48 -3 -15 11 -13 16 19 55 l37 42 30 -32 c22 -23 29
-39 26 -59 -5 -30 10 -30 29 0 11 17 3 27 -63 88 -56 52 -74 65 -74 50z"/>
<path d="M16956 20511 c-25 -26 -26 -29 -8 -24 15 4 33 -7 67 -42 25 -26 44
-50 41 -52 -2 -3 -48 1 -101 8 l-96 13 -32 -33 c-18 -18 -24 -29 -15 -25 13 4
36 -12 84 -57 37 -35 74 -76 84 -92 l17 -28 24 20 c23 19 23 20 3 15 -16 -4
-37 10 -88 61 -37 37 -65 69 -63 71 2 2 55 -3 117 -11 182 -24 178 -28 76 74
-70 70 -88 94 -83 110 7 27 6 27 -27 -8z"/>
<path d="M17181 20409 c27 -34 34 -39 39 -24 3 9 17 23 31 31 23 13 21 13 -28
14 -29 0 -53 5 -53 10 0 6 -5 10 -11 10 -6 0 4 -19 22 -41z"/>
<path d="M20244 20321 c-68 -31 -101 -102 -76 -162 20 -45 68 -87 107 -94 l40
-6 -40 15 c-22 9 -41 16 -42 16 -2 0 -9 16 -18 36 -13 33 -13 39 6 80 12 24
28 44 35 44 8 0 17 6 20 14 5 14 54 36 80 36 7 0 26 -12 43 -26 33 -27 41 -67
21 -105 -16 -29 3 -23 36 13 16 17 24 28 19 25 -6 -3 -23 17 -39 44 -18 33
-40 56 -66 69 -48 25 -73 25 -126 1z"/>
<path d="M16727 20269 c-15 -17 -27 -34 -27 -37 0 -3 -6 -13 -14 -21 -13 -14
-11 -16 15 -17 19 -1 42 -13 63 -33 17 -17 35 -31 38 -31 12 0 78 -67 78 -79
0 -8 13 0 28 15 32 32 48 66 29 59 -16 -6 -41 9 -122 74 -55 44 -66 58 -62 78
2 12 4 23 3 23 -1 0 -14 -14 -29 -31z"/>
<path d="M20528 20109 c-2 -15 -15 -29 -33 -38 -16 -8 -32 -17 -35 -21 -3 -4
-32 -24 -65 -43 -57 -33 -61 -34 -79 -19 -17 15 -17 13 2 -15 12 -17 22 -35
22 -40 0 -4 9 -19 20 -33 13 -16 18 -19 14 -7 -7 20 25 57 50 57 8 0 18 5 21
10 11 18 24 11 50 -27 l25 -37 -27 -15 c-15 -8 -33 -20 -41 -27 -13 -13 -27
-18 -45 -15 -9 2 -4 -10 26 -53 19 -26 21 -27 28 -10 4 10 32 32 63 48 31 16
56 32 56 36 0 12 78 42 90 35 7 -4 0 14 -15 41 -37 64 -44 71 -38 40 4 -16 1
-26 -7 -26 -6 0 -23 -9 -37 -20 -30 -23 -53 -26 -53 -7 0 8 -9 22 -20 32 -11
10 -20 22 -20 26 0 11 91 60 101 53 13 -8 -1 26 -27 65 -21 32 -22 32 -26 10z"/>
<path d="M16524 19988 c-3 -13 -19 -41 -34 -64 -37 -55 -46 -94 -23 -94 10 0
38 -14 62 -30 24 -17 49 -30 54 -30 19 0 77 -51 77 -67 0 -11 6 -8 20 10 11
14 20 30 20 36 0 5 13 29 29 53 46 69 47 83 9 109 l-33 24 18 -27 c22 -35 22
-49 -4 -92 l-21 -36 -48 27 c-54 30 -53 49 2 55 29 3 28 4 -26 30 -59 29 -66
30 -40 4 9 -10 13 -24 9 -36 -6 -19 -7 -19 -37 -2 -73 41 -69 34 -46 71 13 20
32 34 51 38 l30 6 -22 19 c-30 24 -38 23 -47 -4z"/>
<path d="M20706 19798 c-4 -16 -25 -31 -72 -53 -37 -16 -62 -31 -56 -33 6 -2
33 8 61 23 28 14 51 23 51 21 0 -2 -16 -35 -37 -73 -63 -118 -92 -177 -89
-181 4 -3 47 15 144 59 66 31 102 37 102 17 0 -6 2 -9 5 -6 3 2 -1 22 -9 44
-11 28 -15 33 -15 17 -1 -18 -15 -29 -67 -53 -37 -16 -69 -30 -71 -30 -2 0 4
12 15 28 11 15 30 50 42 79 12 29 28 57 36 63 14 12 10 29 -17 73 l-17 28 -6
-23z"/>
<path d="M16383 19678 c-17 -19 -38 -58 -48 -91 -10 -32 -22 -60 -26 -63 -5
-3 -9 -10 -9 -17 0 -6 6 -3 13 7 12 17 17 16 80 -13 37 -17 75 -31 83 -31 25
0 74 -33 74 -50 1 -8 7 -1 14 15 16 39 30 94 18 77 -9 -14 -57 -7 -68 9 -3 5
-14 9 -25 9 -41 0 -16 20 50 40 37 11 73 20 80 20 6 0 11 1 11 3 0 1 4 16 9
33 10 35 13 35 -83 8 -27 -8 -51 -14 -53 -14 -2 0 -3 9 -3 20 0 26 -43 70 -68
70 -10 0 -32 -15 -49 -32z m68 -49 c16 -16 20 -28 15 -52 -3 -17 -8 -32 -10
-34 -6 -6 -106 42 -106 52 0 6 7 21 16 33 19 28 58 28 85 1z"/>
<path d="M20480 19694 c0 -5 6 -19 14 -29 13 -18 14 -18 20 2 4 11 16 25 29
30 19 9 16 11 -20 9 -24 0 -43 -6 -43 -12z"/>
<path d="M20679 19445 c-77 -50 -78 -184 -2 -234 52 -34 86 -36 138 -11 53 25
75 61 75 120 0 125 -111 191 -211 125z m171 -45 c21 -11 33 -51 25 -83 -7 -27
-98 -67 -155 -69 -56 -2 -80 16 -80 60 0 31 6 41 34 60 57 39 136 53 176 32z"/>
<path d="M16315 19388 c-61 -33 -96 -124 -71 -180 32 -71 84 -104 152 -93 75
11 139 106 120 180 -7 27 -51 76 -84 94 -26 14 -91 14 -117 -1z m93 -63 c29
-9 52 -20 52 -25 0 -6 6 -10 14 -10 31 0 35 -61 6 -90 -50 -50 -230 4 -230 69
0 10 9 30 21 45 24 31 60 34 137 11z"/>
<path d="M20674 19090 c8 -47 26 -189 26 -201 0 -5 21 -9 48 -9 l47 0 -47 27
c-46 25 -48 28 -48 69 0 49 -6 46 117 64 101 14 112 13 123 -12 6 -16 7 -8 3
27 -3 28 -8 52 -10 54 -2 3 -56 -1 -120 -8 -110 -12 -118 -12 -131 6 -12 16
-13 14 -8 -17z"/>
<path d="M16424 19021 c22 -23 27 -36 24 -67 l-3 -39 -100 2 c-120 3 -142 7
-148 31 -3 9 -5 1 -6 -18 -1 -19 -4 -53 -6 -75 -5 -32 -4 -36 4 -17 12 25 23
26 155 12 49 -5 92 -14 96 -20 13 -21 20 20 20 121 l0 99 -32 0 -32 0 28 -29z"/>
<path d="M20785 18818 c-44 -15 -85 -58 -85 -87 0 -23 1 -24 13 -7 16 22 81
33 157 26 47 -4 56 -9 71 -35 21 -38 10 -71 -28 -86 -42 -16 -169 -6 -193 16
-19 18 -20 17 -20 -4 0 -31 49 -77 94 -89 29 -8 48 -7 85 5 41 13 51 22 70 59
27 57 27 89 -3 144 -21 39 -30 46 -72 57 -56 15 -50 14 -89 1z"/>
<path d="M16377 18753 c35 -7 64 -51 61 -92 l-3 -36 -105 -8 c-73 -6 -110 -5
-122 2 -16 10 -18 6 -18 -51 0 -57 1 -61 14 -42 13 18 29 22 122 27 78 5 111
4 122 -5 13 -11 14 0 10 89 -2 56 -6 104 -9 107 -3 3 -25 8 -50 10 -24 2 -34
2 -22 -1z"/>
<path d="M20723 18460 c-48 -29 -75 -89 -71 -157 3 -56 4 -57 38 -66 19 -4 40
-15 46 -23 10 -12 13 -11 18 8 3 13 6 34 6 48 0 21 -5 25 -29 26 -47 2 -61 11
-61 42 0 62 55 89 141 71 61 -13 109 -54 109 -92 0 -32 -35 -76 -74 -93 l-31
-13 32 -1 c17 0 40 -3 50 -7 15 -6 16 -4 5 9 -10 12 -9 20 8 41 24 31 27 114
5 157 -33 64 -128 89 -192 50z"/>
<path d="M16410 18453 c14 -3 30 -9 37 -15 15 -12 28 -88 17 -98 -5 -4 -30
-10 -56 -14 -55 -7 -64 8 -26 44 l22 20 -25 -1 c-13 0 -42 -6 -64 -14 -35 -11
-37 -13 -13 -14 16 -1 32 -9 38 -21 12 -23 11 -24 -57 -38 -38 -9 -42 -8 -47
12 -11 42 -6 67 22 91 l27 23 -35 -7 c-34 -7 -35 -8 -32 -51 1 -25 8 -73 14
-107 11 -57 12 -60 27 -43 17 18 146 50 205 50 19 0 37 -6 40 -12 3 -7 4 -4 2
7 -2 11 -12 59 -22 108 l-17 87 -41 -1 c-28 -1 -33 -3 -16 -6z"/>
<path d="M16276 18095 c8 -46 14 -58 14 -27 0 20 5 22 63 23 l62 1 -65 10
c-35 5 -68 14 -73 21 -4 7 -5 -6 -1 -28z"/>
<path d="M20593 18095 c-21 -69 -25 -92 -15 -76 9 12 17 12 55 -3 43 -16 96
-68 142 -139 13 -21 20 -25 26 -15 13 20 10 38 -6 38 -8 0 -25 12 -38 27 -12
14 -30 33 -39 42 -26 22 -23 29 20 40 49 14 99 14 104 0 2 -7 10 7 18 30 7 22
10 44 6 48 -3 4 -45 -1 -92 -10 -78 -15 -89 -15 -124 -1 -26 11 -40 23 -42 37
-2 17 -6 12 -15 -18z"/>
<path d="M16465 18080 c3 -5 -4 -17 -15 -27 -11 -10 -33 -30 -48 -44 -40 -39
-66 -51 -81 -36 -7 7 -6 -3 3 -25 9 -21 16 -46 16 -57 0 -16 6 -14 39 17 66
63 173 157 182 160 5 2 9 8 9 13 0 5 -25 9 -56 9 -33 0 -53 -4 -49 -10z"/>
<path d="M16820 17289 c5 -16 15 -38 23 -50 14 -19 13 -25 -10 -70 -15 -27
-24 -51 -22 -53 2 -2 29 5 59 15 54 18 56 18 109 -1 30 -11 57 -18 59 -15 2 2
-8 26 -23 54 -25 45 -26 52 -14 73 8 13 20 35 27 51 11 27 11 27 -16 21 -15
-4 -40 -13 -56 -21 -23 -12 -34 -13 -55 -3 -14 7 -40 16 -57 20 -31 7 -32 7
-24 -21z"/>
<path d="M20112 17293 c7 -16 19 -38 27 -51 12 -21 11 -28 -14 -73 -15 -28
-25 -52 -23 -54 2 -2 29 5 61 15 56 19 58 19 114 -1 31 -10 58 -18 59 -16 2 1
-10 25 -25 52 l-28 49 28 53 c16 29 24 53 19 53 -5 0 -33 -9 -60 -19 -44 -17
-55 -18 -83 -7 -18 8 -44 16 -59 20 -27 6 -27 6 -16 -21z"/>
<path d="M17310 16943 c-14 -6 -45 -33 -38 -33 2 0 21 9 43 20 35 18 32 27 -5
13z"/>
<path d="M19781 16946 c8 -7 79 -35 79 -31 0 7 -58 35 -71 35 -7 0 -10 -2 -8
-4z"/>
<path d="M17385 16905 c-41 -18 -7 -19 36 0 23 10 28 14 14 14 -11 0 -33 -6
-50 -14z"/>
<path d="M19710 16905 c46 -18 74 -17 35 0 -16 8 -39 14 -50 14 -13 0 -8 -5
15 -14z"/>
<path d="M17325 16880 c-3 -6 1 -7 9 -4 18 7 21 14 7 14 -6 0 -13 -4 -16 -10z"/>
<path d="M17460 16883 c-8 -3 -30 -14 -48 -25 -37 -22 -37 -37 -1 -17 13 6 46
20 74 30 42 16 45 18 20 18 -16 0 -37 -3 -45 -6z"/>
<path d="M19611 16886 c4 -4 130 -56 136 -56 16 0 -17 25 -54 41 -39 16 -94
27 -82 15z"/>
<path d="M19780 16886 c0 -2 7 -7 16 -10 8 -3 12 -2 9 4 -6 10 -25 14 -25 6z"/>
<path d="M17535 16842 c-33 -9 -62 -19 -65 -22 -3 -3 -18 -14 -33 -24 -49 -30
-22 -28 41 4 32 16 68 30 78 30 11 0 37 7 59 15 38 13 38 14 10 14 -16 -1 -57
-8 -90 -17z"/>
<path d="M19515 16845 c22 -8 48 -14 58 -14 10 -1 46 -15 80 -32 62 -31 62
-31 37 -5 -27 27 -143 67 -190 65 -20 -1 -17 -4 15 -14z"/>
<path d="M17635 16815 c-68 -17 -137 -50 -161 -76 l-19 -22 41 21 c23 12 86
35 140 53 55 17 104 32 109 34 30 10 -68 1 -110 -10z"/>
<path d="M19395 16823 c43 -9 202 -66 240 -86 34 -17 38 -17 26 -3 -34 40
-188 97 -256 95 -20 -1 -23 -3 -10 -6z"/>
<path d="M17698 16774 c-61 -12 -205 -81 -193 -92 3 -3 10 -1 17 5 16 12 228
79 288 91 l45 10 -45 0 c-25 0 -75 -6 -112 -14z"/>
<path d="M19320 16778 c30 -5 87 -21 125 -35 69 -24 106 -36 155 -48 19 -5 17
-1 -10 14 -100 57 -194 83 -286 80 -36 -2 -35 -2 16 -11z"/>
<path d="M17862 20183 c23 -6 88 -108 88 -139 0 -6 14 -36 30 -67 17 -31 30
-62 30 -68 0 -6 11 -32 24 -58 12 -26 29 -63 35 -84 7 -20 23 -57 37 -82 13
-26 24 -54 24 -63 0 -9 7 -26 15 -36 15 -20 15 -20 30 0 8 10 15 24 15 31 0 6
13 38 29 70 16 32 43 92 61 133 104 241 150 327 185 350 l30 20 -100 -1 c-91
0 -97 -1 -65 -12 30 -10 35 -17 38 -46 3 -33 -3 -51 -93 -246 -12 -27 -28 -65
-35 -82 -7 -18 -16 -33 -20 -33 -4 0 -13 19 -20 43 -8 23 -26 66 -42 96 -15
30 -28 59 -28 66 0 6 -14 39 -31 73 -39 80 -38 124 6 133 17 4 -35 7 -115 7
-80 0 -137 -2 -128 -5z"/>
<path d="M18547 20180 c65 -15 63 -7 63 -289 0 -270 -2 -284 -45 -294 -11 -3
37 -5 107 -6 l127 -1 -24 25 -25 24 0 249 c0 273 1 278 60 292 23 5 -24 8
-130 8 -99 0 -152 -3 -133 -8z"/>
<path d="M18900 20113 l0 -78 19 42 c24 52 54 72 120 80 l51 6 0 -259 c0 -142
-3 -269 -6 -281 -3 -12 -13 -24 -23 -26 -9 -3 40 -5 109 -5 69 0 118 2 109 5
-34 9 -39 49 -39 308 l0 255 38 0 c59 0 103 -28 134 -85 l28 -50 0 83 0 82
-270 0 -270 0 0 -77z"/>
<path d="M18160 17393 c46 -53 89 -73 154 -73 39 0 57 5 70 19 16 17 15 19
-15 25 -17 3 -43 6 -58 6 -14 0 -53 12 -86 26 -100 43 -104 43 -65 -3z"/>
<path d="M19385 17406 c-39 -14 -53 -22 -39 -24 11 -2 50 8 85 22 80 31 40 33
-46 2z"/>
<path d="M17778 17231 c-21 -10 -41 -20 -44 -24 -12 -12 79 -28 120 -21 41 7
41 7 18 22 l-24 15 24 13 c22 13 21 13 -17 13 -22 0 -57 -8 -77 -18z"/>
<path d="M17960 17104 c-30 -8 -58 -18 -62 -22 -4 -4 75 -8 175 -8 l182 -2
-75 18 c-114 28 -159 31 -220 14z"/>
<path d="M18645 17109 c-77 -3 -153 -8 -170 -9 l-30 -2 35 -9 c19 -5 118 -10
220 -12 145 -1 193 1 220 13 l35 15 -30 6 c-37 8 -97 8 -280 -2z"/>
<path d="M18520 17051 l-35 -7 34 -7 c48 -10 192 -8 165 3 -31 12 -125 19
-164 11z"/>
<path d="M17965 17030 c72 -12 107 -12 100 0 -3 6 -39 9 -78 9 l-72 -2 50 -7z"/>
<path d="M18573 16983 c32 -2 81 -2 110 0 29 2 3 3 -58 3 -60 0 -84 -1 -52 -3z"/>
<path d="M17930 16960 c8 -5 33 -9 55 -9 35 1 37 2 15 9 -14 4 -38 8 -55 9
-23 0 -26 -2 -15 -9z"/>
<path d="M19134 16675 c-4 -9 -2 -21 4 -27 15 -15 44 -1 40 19 -4 23 -36 29
-44 8z"/>
<path d="M18444 16665 c-10 -8 -14 -15 -7 -15 6 0 15 5 18 10 9 14 57 12 78
-4 26 -20 23 -90 -5 -110 l-22 -16 21 0 c27 0 53 35 53 73 0 61 -85 100 -136
62z"/>
<path d="M18797 16653 c-4 -3 -7 -22 -6 -42 l1 -36 9 39 c9 39 8 52 -4 39z"/>
<path d="M18861 16578 c-18 -99 -18 -100 -43 -96 -18 2 -24 12 -29 43 l-7 40
2 -44 1 -44 85 -18 c125 -26 115 -32 135 71 10 50 15 94 11 98 -12 11 -23 -18
-36 -95 l-13 -75 -45 6 c-25 3 -46 7 -48 9 -1 1 4 34 12 72 17 89 17 105 1
105 -9 0 -18 -25 -26 -72z"/>
<path d="M18417 16618 c-3 -12 -2 -28 2 -36 5 -9 8 -1 9 22 2 41 -3 46 -11 14z"/>
<path d="M18459 16624 c17 -12 22 -24 19 -45 -5 -31 6 -39 16 -13 14 36 -8 74
-42 74 -13 0 -11 -4 7 -16z"/>
<path d="M18174 16604 c5 -12 36 -152 36 -160 0 -1 -20 -7 -45 -14 -25 -7 -43
-15 -41 -17 4 -4 105 25 114 33 7 5 -52 174 -61 174 -5 0 -6 -7 -3 -16z"/>
<path d="M17881 16578 c-5 -13 -6 -30 -2 -38 4 -9 7 -2 9 18 3 29 6 33 30 30
21 -2 28 -9 30 -32 4 -32 -13 -48 -43 -40 -19 5 -19 4 -2 -6 40 -26 89 44 55
78 -21 21 -68 15 -77 -10z"/>
<path d="M19088 16593 c6 -2 18 -2 25 0 6 3 1 5 -13 5 -14 0 -19 -2 -12 -5z"/>
<path d="M17830 16558 c-39 -64 -19 -151 43 -188 41 -25 64 -25 105 0 29 18
33 25 30 58 -3 34 -6 37 -37 40 -20 2 -37 -2 -42 -10 -13 -21 -10 -55 6 -72
41 -41 -16 -34 -62 7 -32 30 -37 41 -41 91 -4 49 -2 60 18 81 13 14 18 25 12
25 -7 0 -21 -15 -32 -32z m157 -124 c12 -19 12 -24 -2 -38 -9 -9 -20 -16 -23
-16 -15 0 -33 42 -27 61 8 25 33 21 52 -7z"/>
<path d="M18020 16587 c0 -1 11 -36 25 -77 13 -41 25 -83 25 -92 0 -10 5 -18
10 -18 12 0 13 13 1 59 -6 20 -15 57 -22 84 -7 27 -17 47 -25 47 -8 0 -14 -1
-14 -3z"/>
<path d="M19145 16553 c-3 -21 -12 -61 -20 -90 -7 -28 -11 -54 -7 -57 13 -13
22 -4 22 22 0 15 9 54 19 87 15 48 23 59 38 57 15 -2 16 -1 3 7 -31 21 -49 13
-55 -26z"/>
<path d="M19067 16543 c-4 -15 -13 -50 -22 -78 -8 -27 -12 -45 -7 -40 12 14
46 134 40 140 -3 3 -8 -7 -11 -22z"/>
<path d="M17633 16553 c-18 -7 -16 -32 2 -39 23 -9 48 15 34 32 -12 15 -16 16
-36 7z"/>
<path d="M19236 16509 c-31 -36 -41 -69 -32 -104 13 -51 83 -51 101 -1 13 36
-4 60 -44 64 -36 4 -37 9 -12 39 11 13 33 23 57 26 l39 4 -42 1 c-35 2 -45 -3
-67 -29z m42 -77 c4 -26 -13 -52 -34 -52 -20 0 -33 32 -23 58 12 31 53 27 57
-6z"/>
<path d="M18430 16511 c0 -10 7 -22 16 -25 27 -10 284 -7 284 4 0 6 -54 10
-141 10 -121 0 -140 2 -135 15 3 9 0 15 -9 15 -8 0 -15 -9 -15 -19z"/>
<path d="M19365 16506 c24 -36 11 -89 -30 -125 l-34 -29 70 -23 c50 -16 68
-27 64 -37 -12 -33 -17 -62 -9 -62 9 0 68 168 79 223 11 55 -11 25 -38 -52
l-29 -79 -31 10 c-18 5 -40 12 -49 15 -16 5 -16 6 1 22 34 30 46 77 31 122 -7
21 -19 39 -27 39 -11 0 -10 -5 2 -24z"/>
<path d="M17737 16484 c-3 -3 3 -25 13 -48 9 -23 21 -61 25 -84 6 -38 4 -43
-17 -51 -12 -6 -18 -10 -11 -10 20 -1 63 22 63 34 0 6 -9 30 -20 53 -11 22
-20 50 -20 61 0 38 -16 61 -33 45z"/>
<path d="M17596 16442 c-6 -10 43 -157 59 -180 2 -2 18 4 36 13 30 13 31 14 7
10 -29 -5 -47 15 -49 52 -1 33 -44 119 -53 105z"/>
<path d="M17454 16392 c-34 -27 -35 -49 -8 -118 15 -36 24 -67 21 -70 -2 -3
-17 -6 -32 -7 -25 -2 -29 4 -58 76 -16 42 -36 77 -43 77 -11 0 -10 -8 1 -42
48 -150 38 -140 110 -124 20 5 37 2 49 -7 19 -14 19 -14 -2 -35 -30 -30 -27
-35 8 -17 18 9 30 23 30 35 0 11 5 20 10 20 6 0 10 5 10 10 0 6 -11 8 -25 4
-31 -8 -33 9 -2 24 20 10 19 10 -9 5 -35 -6 -32 -10 -55 84 -10 42 -10 55 0
67 36 43 111 -13 111 -83 0 -20 -5 -42 -12 -49 -9 -9 -9 -12 0 -12 20 0 34 40
27 79 -8 42 -60 101 -89 101 -12 0 -30 -8 -42 -18z"/>
<path d="M19749 16369 c-8 -25 -18 -39 -29 -39 -20 0 -40 -19 -40 -39 0 -11 5
-8 16 8 14 19 23 22 53 18 20 -3 28 -3 19 -1 -21 6 -22 13 -9 48 8 18 15 23
31 19 18 -5 20 -11 14 -36 -9 -44 -12 -61 -13 -74 -2 -26 -42 -55 -67 -49 -32
8 -31 -2 2 -15 35 -13 69 9 77 50 4 21 12 31 24 31 13 0 14 3 5 8 -9 6 -10 16
-1 40 9 27 14 30 29 22 20 -11 47 -14 38 -5 -3 3 -35 17 -72 30 l-66 24 -11
-40z"/>
<path d="M20430 16311 c0 -22 21 -33 40 -21 18 11 4 40 -20 40 -13 0 -20 -7
-20 -19z"/>
<path d="M17180 16300 c-21 -7 -19 -8 17 -9 76 -2 120 -86 71 -138 -12 -13
-17 -23 -12 -23 35 1 57 64 41 116 -8 27 -20 40 -44 50 -36 15 -37 15 -73 4z"/>
<path d="M20046 16288 c-3 -13 -5 -36 -5 -53 1 -26 3 -24 16 18 13 43 16 47
41 42 23 -4 24 -4 7 4 -33 16 -52 12 -59 -11z"/>
<path d="M17092 16281 c-18 -3 -48 -19 -67 -34 -30 -23 -35 -34 -35 -68 0 -62
31 -109 71 -109 5 0 18 9 28 19 31 31 15 75 -28 79 -18 2 -39 -2 -47 -9 -12
-9 -14 -7 -14 17 0 34 5 42 44 72 48 37 63 30 61 -25 -1 -29 -1 -34 2 -13 5
35 18 60 34 60 16 0 58 -54 65 -82 4 -19 0 -37 -10 -53 -20 -31 -3 -33 18 -3
21 29 20 78 -2 103 -22 27 -64 55 -77 54 -5 -1 -25 -4 -43 -8z m-24 -133 c16
-16 15 -43 -2 -57 -21 -18 -59 25 -45 50 11 22 30 24 47 7z"/>
<path d="M19866 16258 c6 -44 -15 -81 -51 -90 -25 -6 -23 -7 8 -3 22 2 45 9
52 15 20 16 28 66 15 89 -16 31 -29 25 -24 -11z"/>
<path d="M20117 16226 c-19 -71 -22 -116 -8 -116 5 0 12 15 15 33 3 19 12 42
20 52 13 18 15 18 40 2 30 -20 35 -61 11 -106 -17 -35 -32 -41 -98 -42 l-52
-1 43 -10 c66 -15 123 8 135 53 11 42 3 109 -15 120 -7 5 -23 9 -35 9 -25 0
-26 3 -17 38 5 17 11 21 26 16 14 -4 18 -2 14 5 -4 6 -19 11 -34 11 -26 0 -29
-5 -45 -64z"/>
<path d="M19956 16247 c-20 -26 -26 -46 -26 -84 0 -46 3 -53 37 -82 20 -17 46
-31 57 -31 18 1 17 3 -8 17 -16 8 -40 27 -54 42 -20 21 -23 33 -19 67 2 24 14
52 26 65 19 21 27 39 17 39 -3 0 -16 -15 -30 -33z"/>
<path d="M19681 16244 c0 -11 3 -14 6 -6 3 7 2 16 -1 19 -3 4 -6 -2 -5 -13z"/>
<path d="M20310 16146 c0 -105 19 -136 22 -36 4 114 3 123 -9 128 -10 3 -13
-20 -13 -92z"/>
<path d="M16675 16210 c-24 -26 -25 -89 -3 -103 22 -14 72 2 76 24 4 22 -25
49 -51 48 l-22 0 23 -9 c15 -6 22 -18 22 -35 0 -23 -4 -26 -27 -23 -25 3 -28
7 -26 36 0 20 11 44 24 58 12 13 18 24 12 24 -5 0 -18 -9 -28 -20z"/>
<path d="M16774 16205 c15 -13 26 -35 26 -49 0 -30 -34 -65 -70 -72 -33 -7
-53 -18 -58 -32 -3 -9 22 -11 90 -10 l93 2 -77 3 c-81 4 -102 16 -44 26 59 10
86 34 86 78 0 42 -27 79 -56 79 -13 0 -11 -6 10 -25z"/>
<path d="M20410 16211 c-13 -25 -13 -161 0 -161 6 0 10 28 10 63 0 34 6 74 14
90 13 23 13 27 1 27 -8 0 -19 -9 -25 -19z"/>
<path d="M20500 16215 c7 -9 15 -13 17 -11 7 7 -7 26 -19 26 -6 0 -6 -6 2 -15z"/>
<path d="M19646 16184 c-25 -25 -3 -44 23 -20 14 13 28 16 53 12 42 -9 16 9
-28 18 -23 5 -36 2 -48 -10z"/>
<path d="M20028 16180 c-11 -38 -10 -56 3 -43 6 6 9 23 7 39 l-3 29 -7 -25z"/>
<path d="M20521 16135 c0 -43 3 -54 9 -40 12 27 12 67 0 85 -7 11 -10 -3 -9
-45z"/>
<path d="M17110 16147 c0 -15 27 -43 34 -36 3 2 -4 15 -15 28 -13 16 -19 18
-19 8z"/>
<path d="M17402 16148 c-7 -7 -12 -17 -12 -24 0 -13 30 -28 38 -19 3 3 0 5 -7
5 -9 0 -12 9 -9 25 6 29 6 29 -10 13z"/>
<path d="M20500 16060 c-13 -8 -12 -10 3 -10 9 0 17 5 17 10 0 12 -1 12 -20 0z"/>
<path d="M15010 20623 c-41 -15 -40 56 -40 -2158 0 -1903 2 -2123 16 -2143 17
-25 51 -29 80 -8 19 14 19 49 22 2141 l2 2126 -24 24 c-26 26 -30 27 -56 18z"/>
<path d="M11020 17742 c-47 -17 -38 -67 17 -97 17 -10 34 -23 37 -31 8 -20 92
-28 152 -14 30 7 54 17 54 21 0 9 129 39 170 39 29 0 90 -27 90 -40 0 -3 4
-11 8 -18 10 -15 62 0 62 18 0 10 -59 71 -104 108 -16 13 -106 17 -106 4 0 -7
-105 -42 -128 -42 -7 0 -12 -4 -12 -10 0 -12 -65 -30 -108 -30 -22 0 -40 7
-53 23 -10 12 -29 34 -41 48 -13 15 -29 24 -38 21z"/>
<path d="M13080 17621 c0 -5 -9 -11 -20 -14 -40 -10 -49 -90 -11 -102 9 -3 27
-14 38 -24 20 -19 143 -61 177 -61 9 0 16 -4 16 -8 0 -5 28 -17 63 -27 34 -10
64 -21 67 -24 3 -3 21 -14 40 -24 36 -18 66 -67 57 -91 -3 -7 -26 -19 -50 -26
-25 -7 -48 -18 -51 -26 -3 -8 -11 -14 -17 -14 -6 0 -34 -22 -61 -50 -27 -27
-60 -53 -73 -56 -14 -3 -25 -10 -25 -15 0 -5 -7 -9 -15 -9 -8 0 -15 -4 -15
-10 0 -5 -16 -16 -35 -24 -19 -8 -35 -20 -35 -25 0 -6 -6 -11 -13 -11 -22 0
-67 -58 -67 -85 0 -14 11 -37 25 -50 24 -25 55 -33 55 -16 0 5 16 15 35 21 19
6 47 25 62 41 15 16 33 29 38 29 13 0 46 24 90 65 52 48 78 68 110 85 17 9 44
28 60 43 56 53 62 57 73 57 6 0 17 9 25 20 7 11 30 26 50 35 29 12 37 22 43
50 7 42 1 63 -23 72 -10 4 -33 22 -51 41 -18 18 -50 41 -70 50 -21 9 -48 27
-61 38 -12 12 -42 25 -67 29 -24 3 -44 10 -44 14 0 5 -25 16 -55 26 -30 9 -55
20 -55 24 0 8 -91 41 -114 41 -9 0 -16 5 -16 10 0 6 -18 10 -40 10 -22 0 -40
-4 -40 -9z"/>
<path d="M10365 17575 c-22 -19 -45 -35 -52 -35 -6 0 -18 -6 -26 -14 -8 -8
-32 -19 -55 -25 -23 -7 -48 -18 -56 -26 -8 -8 -17 -15 -20 -15 -12 0 -101 -44
-113 -56 -7 -7 -29 -18 -48 -24 -19 -6 -35 -15 -35 -20 0 -4 -11 -11 -25 -14
-22 -6 -50 -26 -96 -71 -18 -17 -29 -59 -29 -105 0 -41 10 -60 31 -60 10 0 19
-4 19 -8 0 -5 36 -19 80 -31 44 -13 80 -27 80 -31 0 -5 16 -14 35 -20 19 -6
38 -17 42 -25 8 -13 91 -45 118 -45 8 0 15 -4 15 -8 0 -5 18 -16 40 -26 22
-10 40 -21 40 -25 0 -4 18 -14 41 -21 22 -8 46 -21 52 -29 7 -9 27 -24 46 -35
66 -37 181 -5 181 50 0 8 5 14 10 14 6 0 10 7 10 15 0 8 -4 15 -10 15 -5 0
-10 5 -10 11 0 18 -23 34 -67 47 -23 7 -48 18 -55 26 -8 7 -37 21 -65 30 -28
9 -54 23 -57 31 -3 8 -33 19 -66 26 -34 7 -69 20 -79 29 -9 10 -33 23 -53 31
-21 7 -38 16 -38 19 0 3 -18 14 -40 24 -22 10 -40 23 -40 30 0 17 70 86 86 86
7 0 17 6 21 13 9 16 69 47 90 47 7 0 13 5 13 10 0 6 9 10 20 10 24 0 100 30
100 39 0 4 25 18 55 30 30 13 55 28 55 33 0 6 12 21 26 34 49 46 4 104 -81
104 -43 0 -56 -5 -90 -35z"/>
<path d="M12330 17422 c-19 -2 -37 -7 -40 -10 -3 -4 -21 -15 -41 -25 -36 -18
-69 -62 -69 -91 0 -9 -4 -16 -10 -16 -5 0 -10 -20 -10 -45 0 -25 5 -45 10 -45
6 0 10 -11 10 -24 0 -24 27 -97 39 -106 3 -3 11 -14 17 -24 6 -11 19 -24 29
-30 11 -6 26 -17 34 -25 21 -20 150 -10 163 13 5 9 15 16 23 16 8 0 17 11 21
25 3 14 14 29 23 34 13 8 16 29 16 133 0 114 -2 125 -22 146 -13 12 -23 26
-23 31 0 5 -13 12 -30 16 -16 4 -30 10 -30 15 0 10 -62 16 -110 12z m57 -186
c20 -18 24 -30 19 -49 -14 -59 -80 -78 -110 -32 -21 31 -20 50 2 80 22 31 56
31 89 1z"/>
<path d="M11260 17412 c0 -4 -16 -14 -36 -21 -19 -7 -38 -19 -41 -27 -3 -8
-11 -14 -18 -14 -33 0 -49 -152 -24 -227 12 -37 16 -42 77 -110 45 -49 96 -63
158 -43 45 14 121 88 130 125 3 14 5 73 2 130 -3 104 -4 105 -36 135 -18 16
-48 32 -67 36 -19 3 -35 10 -35 15 0 5 -25 9 -55 9 -30 0 -55 -4 -55 -8z m94
-148 c9 -3 16 -15 16 -25 0 -10 5 -19 10 -19 14 0 12 -28 -2 -46 -32 -37 -41
-44 -58 -44 -25 0 -70 46 -70 72 0 45 58 80 104 62z"/>
<path d="M11701 16777 c-1 -26 26 -87 38 -87 6 0 11 -7 11 -15 0 -8 3 -15 8
-15 4 0 22 -13 40 -29 39 -35 98 -47 147 -31 19 6 35 15 35 19 0 3 16 15 35
25 19 11 35 24 35 29 0 5 6 15 14 21 8 6 17 27 21 46 l8 35 -38 -43 c-21 -23
-42 -42 -47 -42 -5 0 -16 -7 -24 -15 -11 -11 -37 -15 -93 -15 -71 0 -80 2
-109 28 -18 16 -32 34 -32 39 0 6 -7 13 -15 17 -9 3 -20 16 -25 28 -7 18 -9
19 -9 5z"/>
<path d="M11483 16533 c-18 -2 -33 -8 -33 -14 0 -5 -9 -9 -20 -9 -24 0 -131
-36 -139 -47 -3 -5 -24 -17 -46 -28 -22 -11 -46 -25 -53 -32 -52 -49 -332 -38
-365 14 -4 7 -14 13 -22 13 -7 0 -22 11 -32 24 -10 13 -28 27 -40 31 -23 6
-23 5 -23 -82 1 -95 12 -172 27 -182 5 -3 16 -23 24 -43 18 -45 67 -108 85
-108 7 0 19 -8 26 -17 7 -10 31 -27 53 -38 22 -11 43 -23 46 -28 13 -19 131
-36 244 -37 115 0 275 24 275 41 0 4 16 13 35 19 19 6 41 17 48 24 6 6 29 22
49 34 52 32 98 74 98 90 0 7 7 15 15 18 45 18 71 170 41 248 -18 47 -42 68
-91 80 -16 4 -32 11 -35 15 -6 10 -124 20 -167 14z"/>
<path d="M12103 16533 c-18 -2 -33 -8 -33 -12 0 -5 -19 -12 -42 -15 -55 -9
-83 -33 -97 -82 -23 -81 -5 -216 31 -242 10 -7 18 -18 18 -25 0 -14 69 -77 84
-77 6 0 26 -14 45 -30 18 -17 52 -35 75 -41 22 -6 44 -16 47 -21 22 -36 321
-51 433 -22 33 9 63 19 66 22 3 4 23 16 45 27 22 11 45 27 51 35 7 9 27 21 46
29 33 13 38 20 69 101 7 19 16 37 19 40 22 17 43 244 24 262 -10 10 -44 -4
-44 -19 0 -8 -16 -21 -35 -29 -19 -8 -35 -18 -35 -23 0 -4 -23 -15 -51 -24
-92 -30 -279 -17 -317 22 -9 10 -33 24 -52 31 -19 8 -37 17 -40 21 -11 14 -67
37 -110 44 -25 4 -47 11 -50 15 -6 10 -105 19 -147 13z"/>
<path d="M16081 14665 c-243 -55 -462 -180 -590 -337 -64 -78 -143 -237 -171
-343 -72 -277 -43 -520 94 -800 113 -229 256 -379 461 -480 219 -108 419 -127
650 -60 297 86 521 279 624 535 47 119 47 121 4 149 -47 31 -205 130 -255 160
l-37 22 -32 -63 c-77 -152 -166 -244 -301 -313 -170 -85 -332 -70 -497 46 -88
61 -149 137 -206 254 -73 150 -89 284 -53 435 42 173 180 306 368 355 92 24
239 17 342 -17 66 -22 78 -23 83 -10 3 8 13 102 22 209 12 141 13 197 5 205
-6 6 -50 22 -99 35 -112 32 -314 40 -412 18z"/>
<path d="M9082 14600 c-288 -41 -533 -228 -672 -513 -80 -166 -95 -237 -94
-462 0 -208 7 -257 64 -404 84 -218 277 -414 490 -500 121 -48 231 -64 405
-59 136 4 159 8 245 37 52 18 126 50 163 72 76 45 200 157 223 201 13 25 13
32 -7 70 -12 24 -40 68 -63 99 -22 31 -62 86 -88 122 -27 37 -54 67 -62 67 -8
0 -43 -21 -78 -47 -139 -105 -236 -138 -385 -131 -77 3 -101 9 -156 36 -109
54 -198 176 -226 310 -16 75 -14 218 4 285 68 263 314 395 570 307 69 -24 101
-43 191 -115 38 -30 74 -55 81 -55 20 0 51 40 112 145 89 152 123 224 116 245
-3 11 -38 49 -77 85 -92 85 -234 157 -365 185 -107 23 -299 33 -391 20z"/>
<path d="M10770 14603 c-387 -41 -689 -295 -806 -678 -26 -85 -28 -101 -28
-285 0 -171 3 -205 22 -275 45 -162 132 -313 248 -428 123 -122 258 -198 434
-244 80 -21 117 -25 240 -25 157 0 238 13 356 57 278 105 492 349 571 650 22
85 26 123 26 250 2 198 -24 316 -103 475 -66 131 -184 266 -305 350 -61 42
-195 103 -270 123 -113 30 -269 42 -385 30z m205 -494 c156 -29 285 -152 337
-322 17 -57 20 -87 16 -176 -4 -93 -8 -116 -35 -173 -39 -84 -143 -194 -220
-236 -202 -107 -463 -28 -570 174 -91 171 -84 380 17 532 112 167 267 236 455
201z"/>
<path d="M13833 14426 c27 -614 29 -801 13 -1146 -9 -190 -16 -394 -16 -453 0
-102 1 -107 23 -112 12 -2 283 -7 602 -9 319 -3 599 -8 623 -11 41 -7 43 -6
57 28 17 41 53 241 62 345 5 62 3 75 -13 93 -18 21 -24 21 -159 13 -77 -5
-230 -9 -340 -9 -171 0 -207 3 -248 19 -59 22 -67 39 -74 162 -6 88 -5 92 17
104 17 9 96 10 319 6 163 -4 321 -7 351 -9 l55 -2 2 75 c2 41 10 142 19 223
11 100 13 152 6 159 -7 7 -39 6 -98 -1 -49 -6 -202 -12 -341 -14 -251 -2 -252
-2 -275 21 -20 20 -23 35 -26 116 -5 130 1 136 141 136 114 0 497 -17 567 -25
71 -8 72 -6 60 131 -21 223 -28 276 -40 288 -8 8 -186 11 -652 12 l-641 1 6
-141z"/>
<path d="M12023 14551 c-28 -3 -54 -9 -56 -11 -2 -3 -7 -413 -10 -913 -5 -874
-4 -908 13 -917 24 -13 781 -13 914 0 139 14 216 35 332 90 168 81 296 217
389 412 70 148 89 242 89 433 -1 132 -4 174 -22 238 -46 168 -125 307 -238
422 -90 92 -172 143 -298 186 -153 53 -234 61 -666 64 -217 2 -418 0 -447 -4z
m797 -407 c66 -15 161 -63 209 -107 53 -49 112 -141 133 -211 29 -93 31 -271
4 -361 -25 -84 -73 -170 -122 -219 -107 -108 -301 -159 -474 -126 -97 18 -90
-22 -90 515 0 447 1 473 19 489 39 36 206 46 321 20z"/>
<path d="M21225 14463 c-135 -10 -289 -12 -532 -9 -265 4 -344 3 -350 -7 -9
-14 -7 -62 13 -402 19 -315 22 -606 10 -1030 -8 -302 -8 -321 9 -335 14 -12
62 -16 237 -18 227 -4 283 0 290 21 2 6 -3 153 -11 326 l-15 314 23 18 c21 17
44 19 270 18 135 0 279 -4 320 -8 89 -9 97 -3 106 74 10 78 0 335 -14 369
l-11 29 -183 -9 c-100 -5 -242 -9 -314 -9 -124 0 -134 1 -155 22 -29 30 -38
140 -15 195 26 62 49 64 436 39 183 -11 337 -18 342 -15 13 8 11 67 -6 180 -8
54 -15 126 -15 160 0 88 -10 94 -141 93 -57 -1 -189 -8 -294 -16z"/>
<path d="M17031 14461 c-11 -7 -11 -52 -1 -277 6 -148 15 -366 18 -484 l7
-214 95 -67 95 -66 -1 -74 c0 -60 -7 -89 -33 -151 -37 -88 -94 -180 -157 -255
-39 -46 -44 -57 -44 -101 0 -58 15 -78 63 -87 18 -4 131 -5 250 -3 180 2 220
6 228 18 10 15 9 67 -8 495 -5 144 -4 162 11 178 16 15 48 17 336 17 l319 0
12 -22 c12 -22 10 -121 -7 -513 -3 -82 -2 -135 5 -145 9 -13 50 -15 265 -15
196 0 258 3 268 13 10 10 13 66 12 240 -2 235 -2 1075 0 1357 l1 160 -265 0
-265 0 0 -135 c0 -74 2 -214 5 -312 3 -97 1 -180 -3 -185 -10 -9 -629 -17
-664 -8 -43 11 -45 27 -23 331 15 213 17 290 9 300 -9 11 -64 14 -263 14 -138
0 -257 -4 -265 -9z"/>
<path d="M18924 14436 c-3 -8 -1 -116 5 -238 23 -475 24 -673 6 -1038 -9 -195
-15 -382 -13 -415 l3 -60 620 -5 c544 -5 622 -3 637 10 10 9 25 55 37 115 23
113 47 293 40 300 -3 2 -30 0 -60 -5 -29 -5 -182 -12 -339 -15 -398 -8 -410
-3 -410 170 0 58 4 95 12 103 16 16 443 15 561 -2 48 -7 91 -10 96 -7 4 3 11
53 15 111 4 58 13 150 20 205 7 55 11 106 8 113 -4 10 -18 12 -56 8 -28 -3
-176 -9 -328 -12 l-276 -6 -26 25 c-24 24 -26 32 -26 120 0 129 -3 127 181
127 79 0 238 -5 352 -11 144 -8 211 -9 219 -1 7 7 7 42 0 113 -6 57 -14 142
-18 188 -10 129 2 123 -272 114 -287 -10 -384 -10 -714 1 -239 7 -268 6 -274
-8z"/>
<path d="M16750 10470 l0 -860 150 0 150 0 0 860 0 860 -150 0 -150 0 0 -860z"/>
<path d="M17390 10470 l0 -860 150 0 150 0 0 860 0 860 -150 0 -150 0 0 -860z"/>
<path d="M9893 11198 c7 -18 139 -383 293 -811 l279 -777 155 2 155 3 290 805
291 805 -145 3 c-80 1 -150 1 -156 -2 -6 -2 -103 -259 -215 -570 -112 -311
-206 -566 -210 -566 -3 0 -89 233 -189 518 -101 284 -192 541 -203 570 l-19
52 -170 0 -169 0 13 -32z"/>
<path d="M11530 10420 l0 -810 155 0 155 0 0 810 0 810 -155 0 -155 0 0 -810z"/>
<path d="M12080 11075 l0 -155 215 0 215 0 0 -655 0 -655 155 0 155 0 0 655 0
655 215 0 215 0 0 155 0 155 -585 0 -585 0 0 -155z"/>
<path d="M13923 11198 c7 -18 139 -383 293 -811 l279 -777 155 2 155 3 290
805 291 805 -145 3 c-80 1 -150 1 -156 -2 -6 -2 -103 -259 -215 -570 -112
-311 -206 -566 -210 -566 -3 0 -89 233 -189 518 -101 284 -192 541 -203 570
l-19 52 -170 0 -169 0 13 -32z"/>
<path d="M9260 10780 l-455 -208 0 -153 0 -152 455 -208 455 -208 3 141 c2
105 -1 143 -10 149 -7 4 -149 67 -315 140 -167 72 -303 135 -303 138 0 4 142
69 315 145 l315 139 0 143 c0 79 -1 144 -2 143 -2 0 -208 -94 -458 -209z"/>
<path d="M21472 10794 l3 -146 312 -141 c172 -78 309 -145 305 -149 -4 -4
-142 -64 -307 -134 -165 -69 -306 -133 -312 -142 -9 -11 -13 -58 -13 -150 0
-103 3 -133 13 -129 8 4 887 394 904 401 1 1 5 69 8 151 l8 151 -339 159
c-187 87 -394 184 -462 216 l-123 58 3 -145z"/>
<path d="M15807 10855 c-142 -39 -267 -145 -336 -286 -60 -124 -75 -192 -75
-339 1 -143 16 -214 71 -328 109 -230 380 -354 648 -297 96 21 166 57 238 125
l61 57 -79 105 -80 105 -39 -33 c-87 -74 -210 -102 -317 -70 -71 20 -144 83
-175 151 -44 93 -77 85 367 85 l392 0 -5 138 c-4 116 -9 150 -33 221 -64 188
-188 313 -364 365 -66 19 -206 20 -274 1z m239 -279 c60 -28 107 -82 134 -154
33 -89 52 -82 -235 -82 -140 0 -255 4 -255 8 0 29 34 115 60 150 69 96 190
128 296 78z"/>
<path d="M18392 10856 c-194 -48 -350 -213 -409 -436 -24 -89 -23 -290 1 -380
62 -230 221 -391 431 -435 318 -67 604 135 671 475 22 110 15 275 -16 375 -62
201 -211 352 -395 400 -70 18 -209 18 -283 1z m248 -306 c112 -57 176 -224
151 -389 -15 -93 -42 -152 -93 -204 -93 -92 -243 -90 -337 4 -59 60 -85 130
-89 245 -5 113 11 188 53 254 67 106 206 146 315 90z"/>
<path d="M19870 10856 c-72 -20 -122 -51 -173 -105 l-47 -50 0 74 0 75 -145 0
-145 0 0 -620 0 -620 149 0 150 0 3 358 c4 409 6 421 87 502 53 52 100 70 190
70 l61 0 0 165 0 165 -42 -1 c-24 0 -63 -6 -88 -13z"/>
<path d="M20577 10855 c-142 -39 -267 -145 -336 -286 -60 -124 -75 -192 -75
-339 1 -143 16 -214 71 -328 109 -230 380 -354 648 -297 96 21 166 57 238 125
l61 57 -79 105 -80 105 -39 -33 c-87 -74 -210 -102 -317 -70 -71 20 -144 83
-175 151 -44 93 -77 85 367 85 l392 0 -5 138 c-4 116 -9 150 -33 221 -64 188
-188 313 -364 365 -66 19 -206 20 -274 1z m239 -279 c60 -28 107 -82 134 -154
33 -89 52 -82 -235 -82 -140 0 -255 4 -255 8 0 29 34 115 60 150 69 96 190
128 296 78z"/>
<path d="M12370 7610 l0 -860 149 0 150 0 3 374 3 373 35 69 c28 55 45 74 84
98 97 60 228 40 283 -43 44 -66 46 -89 50 -488 l4 -383 150 0 150 0 -3 433
c-4 371 -7 440 -22 492 -43 150 -112 242 -223 297 -55 27 -77 32 -161 36 -137
6 -227 -25 -319 -112 l-33 -30 0 302 0 302 -150 0 -150 0 0 -860z"/>
<path d="M11455 8389 c-308 -47 -541 -288 -610 -628 -26 -129 -17 -365 19
-486 82 -272 270 -465 517 -532 45 -12 99 -17 184 -16 139 0 235 26 344 90 61
37 205 176 199 193 -2 4 -45 56 -97 114 l-95 106 -59 -60 c-133 -134 -308
-165 -471 -83 -185 94 -283 354 -230 611 42 208 172 343 359 374 124 21 243
-22 342 -122 l58 -59 98 109 98 110 -20 29 c-71 99 -227 203 -354 235 -76 20
-208 27 -282 15z"/>
<path d="M16450 8120 l0 -150 -80 0 -80 0 0 -140 0 -140 80 0 80 0 0 -312 c0
-320 4 -358 43 -450 22 -52 93 -126 147 -153 124 -63 327 -54 411 18 l26 22
-39 122 -40 122 -39 -19 c-47 -25 -111 -26 -150 -3 -56 33 -59 53 -59 367 l0
286 125 0 125 0 0 140 0 140 -125 0 -125 0 0 150 0 150 -150 0 -150 0 0 -150z"/>
<path d="M14015 7995 c-76 -16 -153 -46 -207 -79 -87 -52 -85 -38 -25 -178
l52 -124 60 38 c76 50 151 71 245 71 142 -1 214 -64 233 -205 l6 -38 -163 0
c-176 0 -230 -7 -319 -40 -231 -87 -279 -440 -84 -615 73 -66 140 -88 267 -89
101 -1 108 0 175 34 49 24 80 48 103 78 l32 44 0 -71 0 -71 146 0 146 0 -5
423 c-3 348 -7 433 -21 485 -48 186 -156 296 -328 337 -77 18 -232 18 -313 0z
m365 -785 c0 -138 -91 -232 -226 -233 -107 -1 -167 52 -167 147 0 115 53 145
256 146 l137 0 0 -60z"/>
<path d="M15503 7995 c-61 -18 -125 -59 -162 -100 l-31 -36 0 66 0 65 -145 0
-145 0 0 -845 0 -845 150 0 150 0 0 286 0 286 53 -46 c190 -167 506 -105 662
130 143 215 151 582 17 803 -101 168 -244 252 -426 250 -44 0 -100 -6 -123
-14z m186 -305 c98 -50 151 -163 151 -320 0 -154 -51 -261 -150 -312 -145 -77
-305 4 -356 179 -23 79 -16 251 13 314 65 145 214 205 342 139z"/>
<path d="M17617 7995 c-142 -39 -267 -145 -336 -286 -60 -124 -75 -192 -75
-339 1 -143 16 -214 71 -328 109 -230 380 -354 648 -297 96 21 166 57 238 125
l61 57 -79 105 -80 105 -39 -33 c-87 -74 -210 -102 -317 -70 -71 20 -144 83
-175 151 -44 93 -77 85 367 85 l392 0 -5 138 c-4 116 -9 150 -33 221 -64 188
-188 313 -364 365 -66 19 -206 20 -274 1z m239 -279 c60 -28 107 -82 134 -154
33 -89 52 -82 -235 -82 -140 0 -255 4 -255 8 0 29 34 115 60 150 69 96 190
128 296 78z"/>
<path d="M19070 7996 c-72 -20 -122 -51 -173 -105 l-47 -50 0 74 0 75 -145 0
-145 0 0 -620 0 -620 149 0 150 0 3 358 c4 409 6 421 87 502 53 52 100 70 190
70 l61 0 0 165 0 165 -42 -1 c-24 0 -63 -6 -88 -13z"/>
</g>
</svg>
