<svg width="1009" height="499" viewBox="0 0 1009 499" fill="none" xmlns="http://www.w3.org/2000/svg">
<path d="M629.932 129.812C627.153 131.866 623.708 133.438 619.599 134.526C615.61 135.493 611.379 135.977 606.907 135.977C595.304 135.977 586.299 133.015 579.893 127.093C573.608 121.17 570.466 112.468 570.466 100.985V60.9174H555.417V39.1614H570.466V15.4111H598.749V39.1614H623.043V60.9174H598.749V100.622C598.749 104.733 599.776 107.934 601.83 110.231C604.006 112.407 607.028 113.495 610.895 113.495C615.368 113.495 619.175 112.286 622.318 109.869L629.932 129.812ZM696.03 35.5348C708.116 35.5348 717.847 39.1614 725.22 46.4128C732.713 53.6651 736.461 64.4225 736.461 78.6848V134.526H708.177V83.0364C708.177 75.3005 706.484 69.5598 703.101 65.8125C699.716 61.9445 694.821 60.011 688.416 60.011C681.284 60.011 675.603 62.2467 671.373 66.7189C667.142 71.0705 665.027 77.5969 665.027 86.2991V134.526H636.745V0H665.027V47.1387C668.773 43.3914 673.307 40.5515 678.625 38.617C683.943 36.5628 689.745 35.5348 696.03 35.5348ZM849.64 86.1186C849.64 86.4806 849.459 89.0194 849.097 93.7329H775.307C776.636 99.7757 779.779 104.551 784.734 108.056C789.69 111.561 795.853 113.313 803.227 113.313C808.304 113.313 812.776 112.588 816.643 111.138C820.632 109.567 824.318 107.15 827.703 103.886L842.751 120.203C833.565 130.719 820.148 135.977 802.501 135.977C791.503 135.977 781.774 133.861 773.313 129.631C764.852 125.279 758.324 119.296 753.731 111.682C749.139 104.068 746.842 95.4251 746.842 85.7557C746.842 76.2069 749.078 67.6253 753.55 60.011C758.143 52.2751 764.368 46.2921 772.225 42.0622C780.202 37.7106 789.086 35.5348 798.876 35.5348C808.425 35.5348 817.066 37.5899 824.802 41.6992C832.538 45.8085 838.581 51.7316 842.932 59.4666C847.405 67.0819 849.64 75.9656 849.64 86.1186ZM799.057 56.9288C792.652 56.9288 787.273 58.7416 782.921 62.3673C778.57 65.994 775.91 70.9489 774.944 77.235H822.989C822.022 71.0705 819.362 66.1755 815.012 62.5488C810.66 58.8015 805.342 56.9288 799.057 56.9288ZM666.374 181.301V315.827H639.36V304.587C632.349 313.048 622.197 317.278 608.901 317.278C599.715 317.278 591.376 315.223 583.881 311.114C576.508 307.004 570.707 301.142 566.477 293.528C562.247 285.912 560.131 277.09 560.131 267.057C560.131 257.026 562.247 248.202 566.477 240.588C570.707 232.972 576.508 227.111 583.881 223.001C591.376 218.891 599.715 216.837 608.901 216.837C621.351 216.837 631.081 220.765 638.091 228.622V181.301H666.374ZM613.796 294.071C620.928 294.071 626.85 291.654 631.565 286.819C636.278 281.864 638.635 275.276 638.635 267.057C638.635 258.839 636.278 252.312 631.565 247.477C626.85 242.521 620.928 240.043 613.796 240.043C606.545 240.043 600.562 242.521 595.847 247.477C591.134 252.312 588.777 258.839 588.777 267.057C588.777 275.276 591.134 281.864 595.847 286.819C600.562 291.654 606.545 294.071 613.796 294.071ZM722.828 216.837C737.936 216.837 749.54 220.463 757.638 227.715C765.736 234.846 769.786 245.664 769.786 260.168V315.827H743.315V303.68C737.997 312.745 728.086 317.278 713.582 317.278C706.088 317.278 699.561 316.009 694.002 313.471C688.562 310.932 684.393 307.427 681.491 302.955C678.591 298.483 677.141 293.406 677.141 287.725C677.141 278.661 680.524 271.529 687.294 266.332C694.183 261.135 704.759 258.536 719.021 258.536H741.502C741.502 252.372 739.629 247.658 735.882 244.395C732.135 241.01 726.515 239.318 719.021 239.318C713.823 239.318 708.687 240.165 703.61 241.856C698.654 243.427 694.424 245.603 690.919 248.383L680.766 228.622C686.084 224.874 692.43 221.974 699.803 219.918C707.297 217.864 714.972 216.837 722.828 216.837ZM720.653 298.241C725.487 298.241 729.778 297.153 733.525 294.978C737.271 292.681 739.931 289.358 741.502 285.006V275.034H722.104C710.5 275.034 704.698 278.842 704.698 286.457C704.698 290.083 706.088 292.983 708.868 295.159C711.769 297.213 715.697 298.241 720.653 298.241ZM843.972 216.837C853.038 216.837 861.256 218.952 868.629 223.182C876.123 227.292 881.984 233.154 886.215 240.769C890.446 248.262 892.561 257.026 892.561 267.057C892.561 277.09 890.446 285.912 886.215 293.528C881.984 301.021 876.123 306.884 868.629 311.114C861.256 315.223 853.038 317.278 843.972 317.278C831.523 317.278 821.732 313.349 814.601 305.494V351H786.319V218.287H813.332V229.528C820.342 221.067 830.556 216.837 843.972 216.837ZM839.077 294.071C846.329 294.071 852.251 291.654 856.845 286.819C861.558 281.864 863.915 275.276 863.915 267.057C863.915 258.839 861.558 252.312 856.845 247.477C852.251 242.521 846.329 240.043 839.077 240.043C831.825 240.043 825.842 242.521 821.128 247.477C816.535 252.312 814.239 258.839 814.239 267.057C814.239 275.276 816.535 281.864 821.128 286.819C825.842 291.654 831.825 294.071 839.077 294.071ZM960.084 216.837C969.149 216.837 977.365 218.952 984.744 223.182C992.233 227.292 998.096 233.154 1002.32 240.769C1006.55 248.262 1008.68 257.026 1008.68 267.057C1008.68 277.09 1006.55 285.912 1002.32 293.528C998.096 301.021 992.233 306.884 984.744 311.114C977.365 315.223 969.149 317.278 960.084 317.278C947.63 317.278 937.838 313.349 930.708 305.494V351H902.429V218.287H929.442V229.528C936.452 221.067 946.663 216.837 960.084 216.837ZM955.188 294.071C962.438 294.071 968.361 291.654 972.958 286.819C977.664 281.864 980.028 275.276 980.028 267.057C980.028 258.839 977.664 252.312 972.958 247.477C968.361 242.521 962.438 240.043 955.188 240.043C947.939 240.043 941.956 242.521 937.24 247.477C932.643 252.312 930.349 258.839 930.349 267.057C930.349 275.276 932.643 281.864 937.24 286.819C941.956 291.654 947.939 294.071 955.188 294.071ZM567.02 362.603H595.304V497.129H567.02V362.603ZM612.488 399.589H640.77V497.129H612.488V399.589ZM626.63 385.991C621.432 385.991 617.201 384.481 613.938 381.458C610.675 378.437 609.043 374.69 609.043 370.218C609.043 365.746 610.675 362 613.938 358.977C617.201 355.955 621.432 354.445 626.63 354.445C631.827 354.445 636.057 355.895 639.32 358.796C642.584 361.697 644.215 365.323 644.215 369.674C644.215 374.388 642.584 378.316 639.32 381.458C636.057 384.481 631.827 385.991 626.63 385.991ZM690.771 498.58C682.672 498.58 674.755 497.613 667.021 495.679C659.285 493.625 653.12 491.086 648.527 488.065L657.955 467.758C662.306 470.538 667.564 472.835 673.728 474.648C679.893 476.34 685.936 477.185 691.859 477.185C703.825 477.185 709.808 474.225 709.808 468.302C709.808 465.523 708.175 463.528 704.913 462.319C701.649 461.11 696.632 460.083 689.864 459.237C681.887 458.028 675.299 456.639 670.103 455.068C664.905 453.496 660.372 450.716 656.504 446.727C652.757 442.739 650.884 437.058 650.884 429.685C650.884 423.52 652.636 418.082 656.143 413.367C659.768 408.533 664.965 404.787 671.734 402.127C678.623 399.468 686.721 398.139 696.029 398.139C702.918 398.139 709.747 398.923 716.515 400.495C723.405 401.946 729.086 404 733.558 406.659L724.13 426.784C715.548 421.949 706.181 419.532 696.029 419.532C689.985 419.532 685.452 420.378 682.431 422.071C679.409 423.762 677.899 425.937 677.899 428.597C677.899 431.619 679.53 433.733 682.794 434.943C686.057 436.151 691.253 437.299 698.385 438.387C706.362 439.716 712.89 441.167 717.966 442.739C723.043 444.189 727.454 446.909 731.201 450.897C734.947 454.886 736.822 460.446 736.822 467.577C736.822 473.62 735.009 478.999 731.382 483.713C727.756 488.426 722.438 492.113 715.428 494.772C708.538 497.31 700.319 498.58 690.771 498.58ZM808.117 492.415C805.338 494.47 801.893 496.042 797.784 497.129C793.795 498.096 789.565 498.58 785.092 498.58C773.489 498.58 764.485 495.619 758.079 489.696C751.793 483.773 748.651 475.07 748.651 463.588V423.52H733.603V401.764H748.651V378.014H776.934V401.764H801.228V423.52H776.934V463.225C776.934 467.336 777.961 470.538 780.017 472.835C782.191 475.011 785.214 476.099 789.081 476.099C793.554 476.099 797.361 474.889 800.503 472.472L808.117 492.415ZM827.397 498.58C822.442 498.58 818.272 496.887 814.887 493.503C811.503 490.119 809.811 485.889 809.811 480.812C809.811 475.614 811.503 471.445 814.887 468.302C818.272 465.039 822.442 463.407 827.397 463.407C832.352 463.407 836.522 465.039 839.907 468.302C843.291 471.445 844.983 475.614 844.983 480.812C844.983 485.889 843.291 490.119 839.907 493.503C836.522 496.887 832.352 498.58 827.397 498.58Z" fill="black"/>
<path d="M443.105 25.7217C401.782 25.7217 379.875 48.1259 298.225 60.5724C298.225 60.5724 290.259 55.1898 266.858 53.1047C243.459 51.0187 230.514 54.5975 230.514 54.5975C179.731 47.6273 124.965 0 92.3227 0C73.6848 3.31655 54.7647 39.1634 52.8651 57.4593C59.2459 52.6161 138.941 40.1037 184.274 67.045C229.606 93.9852 250.429 146.206 251.193 167.167C251.193 167.167 265.863 107.87 336.561 78.9939C407.258 50.1172 470.488 78.9939 470.488 78.9939C470.488 47.6273 443.105 25.7217 443.105 25.7217ZM248.005 188.111C247.883 188.622 222.268 252.758 155.335 284.117C88.4029 315.476 17.4949 290.279 17.4949 290.279C17.4949 290.279 17.9227 334.402 40.8244 376.223C63.7272 418.044 102.927 440.342 102.927 440.342C104.553 437.462 116.003 422.525 136.397 428.082C156.792 433.641 155.335 448.415 155.335 450.406C156.331 448.912 171.765 435.47 189.191 442.441C206.616 449.411 210.101 463.351 210.101 478.287C210.101 463.351 219.561 447.917 233.999 444.432C248.437 440.947 260.756 447.76 263.453 449.416C264.209 449.149 272.833 426.508 296.731 428.5C320.629 430.492 325.142 455.702 325.142 456.813C325.142 456.813 356.484 456.384 403.351 407.34C450.217 358.295 455.701 315.601 455.701 315.601C455.701 315.601 386.897 328.702 325.142 295.658C263.387 262.614 247.372 190.032 248.005 188.111ZM234.507 267.185L270.353 289.091C269.855 308.508 235.199 346.301 227.536 358.295C222.939 347.834 198.66 305.023 197.804 287.41C199.337 285.878 229.643 270.005 234.507 267.185Z" fill="black"/>
<path d="M237.277 496.024C237.277 496.024 224.824 480.962 236.133 468.173C247.441 455.385 262.378 465.762 263.872 467.334C265.008 468.529 266.644 469.824 267.805 465.762C269.048 461.409 280.798 448.912 297.228 455.385C313.657 461.857 313.657 480.279 309.675 489.24C307.684 490.734 297.228 496.024 274.327 497.704C251.426 499.384 239.974 496.708 237.277 496.024Z" fill="black"/>
<path d="M179.145 496.355C179.145 496.355 191.598 481.292 180.29 468.503C168.981 455.716 154.045 466.092 152.551 467.663C151.415 468.859 149.778 470.153 148.617 466.092C147.374 461.74 135.624 449.243 119.195 455.715C102.765 462.187 102.765 480.609 106.748 489.57C108.738 491.064 119.195 496.355 142.096 498.034C164.997 499.714 176.449 497.039 179.145 496.355Z" fill="black"/>
<path fill-rule="evenodd" clip-rule="evenodd" d="M419.369 276.321C473.03 262.972 506.593 212.199 494.333 162.919C482.074 113.637 428.634 84.5092 374.972 97.8582C321.311 111.208 287.748 161.979 300.008 211.261C312.267 260.542 365.707 289.671 419.369 276.321ZM395.314 187.204C413.201 182.753 424.39 165.83 420.303 149.402C416.216 132.975 398.403 123.266 380.516 127.716C362.629 132.165 351.441 149.089 355.528 165.516C359.614 181.944 377.427 191.653 395.314 187.204Z" fill="black"/>
<path fill-rule="evenodd" clip-rule="evenodd" d="M121.886 263.036C175.548 249.686 209.111 198.914 196.851 149.633C184.592 100.352 131.152 71.2231 77.4899 84.5731C23.8288 97.9221 -9.73459 148.694 2.52548 197.975C14.7846 247.257 68.2243 276.385 121.886 263.036ZM131.724 181.073C149.611 176.624 160.799 159.699 156.712 143.273C152.626 126.846 134.813 117.136 116.926 121.586C99.0385 126.036 87.8504 142.96 91.9368 159.387C96.0241 175.813 113.837 185.523 131.724 181.073Z" fill="black"/>
</svg>
