<?xml version="1.0" standalone="no"?>
<!DOCTYPE svg PUBLIC "-//W3C//DTD SVG 20010904//EN"
 "http://www.w3.org/TR/2001/REC-SVG-20010904/DTD/svg10.dtd">
<svg version="1.0" xmlns="http://www.w3.org/2000/svg"
 width="1280.000000pt" height="193.000000pt" viewBox="0 0 1280.000000 193.000000"
 preserveAspectRatio="xMidYMid meet">

<g transform="translate(0.000000,193.000000) scale(0.100000,-0.100000)"
fill="#000000" stroke="none">
<path d="M517 1417 c-109 -63 -200 -117 -203 -119 -11 -12 -12 -51 -2 -74 12
-25 32 -32 43 -14 3 6 0 10 -8 10 -8 0 -20 7 -27 15 -16 20 4 20 42 1 20 -10
29 -11 39 -2 9 7 8 5 -1 -7 -12 -16 -12 -20 1 -28 19 -12 39 -11 39 2 0 5 4 8
9 5 5 -4 11 -1 13 5 2 7 11 10 19 7 10 -4 6 -9 -13 -18 -23 -11 -27 -17 -21
-39 l6 -25 -29 19 c-24 15 -26 15 -15 2 7 -9 9 -17 3 -17 -12 0 -24 28 -17 40
8 12 -35 20 -60 10 -24 -9 -53 9 -38 24 4 4 -1 4 -11 0 -12 -5 -17 -4 -13 2 3
6 -3 16 -15 23 -11 7 -17 8 -13 2 3 -6 2 -11 -4 -11 -6 0 -6 -11 -1 -30 5 -18
5 -32 -1 -36 -5 -3 -8 -13 -7 -22 3 -18 53 -71 68 -73 6 -1 15 -2 20 -3 6 0
14 -6 18 -12 10 -16 100 -64 119 -64 9 0 22 -8 29 -17 7 -10 17 -19 23 -19 6
-1 16 -2 22 -3 5 0 7 -7 3 -13 -5 -8 0 -7 11 2 10 8 20 14 22 13 1 -2 2 0 1 5
-2 4 -11 6 -21 5 -10 -2 -15 2 -12 7 3 6 -4 10 -18 10 -22 0 -25 6 -31 50 -6
48 -17 62 -31 40 -10 -15 -35 -12 -35 5 0 8 5 15 10 15 6 0 10 -4 10 -10 0 -5
12 2 26 15 14 13 23 29 19 34 -7 12 8 15 19 4 13 -13 93 -11 93 3 0 7 -7 10
-15 6 -11 -4 -13 -1 -7 7 4 8 2 16 -4 21 -8 4 41 38 126 87 122 71 140 84 152
117 11 30 12 44 2 76 -14 46 -44 70 -98 76 -34 5 -59 -7 -236 -109z m13 -246
c0 -9 -4 -23 -10 -31 -7 -12 -10 -11 -16 5 -5 12 -3 20 5 23 9 3 9 7 0 18 -10
12 -9 13 5 8 9 -3 16 -14 16 -23z m-231 -31 c19 -39 16 -51 -6 -29 -6 6 -9 19
-5 27 5 14 4 15 -10 2 -14 -14 -13 -17 13 -35 34 -24 39 -41 7 -23 -40 23 -49
40 -33 65 11 16 12 23 2 26 -9 4 -9 6 0 6 7 1 21 -17 32 -39z m268 6 c0 -8 -8
-11 -19 -8 -10 2 -15 8 -12 13 8 14 31 11 31 -5z m-217 -7 c0 -5 -5 -7 -12 -3
-8 5 -9 1 -4 -12 5 -14 4 -16 -5 -7 -6 6 -8 16 -5 22 9 14 26 14 26 0z m50
-21 c0 -9 4 -8 10 2 5 8 10 11 10 5 -1 -13 -30 -51 -31 -39 0 5 -2 17 -4 27
-2 9 1 17 6 17 5 0 9 -6 9 -12z m15 -85 c22 -15 49 -18 40 -4 -3 5 -1 12 5 16
6 4 9 -4 8 -19 -1 -15 -3 -26 -5 -26 -3 0 -55 21 -80 33 -13 6 -23 14 -23 18
0 10 27 1 55 -18z"/>
<path d="M2220 1451 c-125 -39 -200 -138 -200 -266 0 -147 102 -259 249 -272
154 -14 281 100 281 254 l0 33 -125 0 -125 0 0 -25 c0 -25 0 -25 95 -25 87 0
95 -2 95 -19 0 -52 -47 -118 -104 -148 -34 -18 -137 -20 -177 -5 -137 54 -178
248 -75 360 65 73 199 87 278 30 l30 -21 20 20 20 20 -32 23 c-60 43 -164 61
-230 41z"/>
<path d="M8181 1438 c-82 -40 -101 -147 -38 -206 13 -12 62 -38 108 -57 46
-19 94 -46 107 -60 32 -37 29 -84 -7 -119 -25 -24 -38 -28 -82 -28 -49 0 -56
3 -89 39 -21 21 -39 45 -41 52 -4 11 -9 11 -27 2 -28 -15 -28 -28 3 -73 36
-53 102 -82 173 -75 94 10 147 65 146 153 0 48 -4 58 -34 89 -23 23 -61 45
-115 66 -114 43 -149 90 -110 146 19 27 76 44 116 36 16 -3 40 -18 54 -34 27
-33 34 -34 59 -16 17 13 17 16 -14 50 -51 59 -133 73 -209 35z"/>
<path d="M10964 1450 c-66 -21 -127 -72 -159 -134 -26 -51 -30 -71 -30 -135 0
-65 4 -84 30 -130 83 -151 294 -188 417 -74 l27 26 -22 17 c-20 17 -22 17 -57
-11 -70 -56 -190 -57 -260 -1 -118 94 -104 302 25 370 74 38 169 33 229 -13
32 -24 33 -24 49 -7 16 17 16 20 -6 39 -55 51 -169 76 -243 53z"/>
<path d="M3900 1185 l0 -265 25 0 25 0 0 265 0 265 -25 0 -25 0 0 -265z"/>
<path d="M4620 1186 l0 -266 98 0 c122 0 189 19 244 68 56 51 78 106 78 197 0
87 -22 145 -71 192 -55 52 -100 66 -231 71 l-118 4 0 -266z m264 184 c72 -35
114 -127 101 -220 -8 -55 -24 -87 -62 -122 -38 -36 -73 -48 -165 -55 l-78 -6
0 212 0 211 82 0 c61 0 92 -5 122 -20z"/>
<path d="M6290 1185 l0 -265 30 0 30 0 0 265 0 265 -30 0 -30 0 0 -265z"/>
<path d="M9438 1344 l-3 -106 -24 21 c-14 12 -36 24 -50 27 -14 3 -34 7 -44 9
-27 5 -81 -13 -112 -37 -61 -48 -83 -163 -46 -243 46 -103 170 -137 250 -70
36 31 41 31 41 -1 0 -21 4 -25 23 -22 l22 3 3 263 2 262 -29 0 -30 0 -3 -106z
m-73 -108 c87 -37 107 -169 36 -240 -27 -26 -39 -31 -81 -31 -40 0 -54 5 -80
30 -75 72 -57 201 34 241 40 17 49 17 91 0z"/>
<path d="M11320 1185 l0 -265 25 0 25 0 0 265 0 265 -25 0 -25 0 0 -265z"/>
<path d="M11870 1185 l0 -265 25 0 c20 0 25 5 25 25 0 30 11 32 35 5 66 -73
210 -38 256 64 78 172 -92 350 -241 252 -22 -14 -41 -26 -42 -26 -2 0 -2 47 0
105 l3 105 -30 0 -31 0 0 -265z m225 51 c87 -37 107 -169 36 -240 -27 -26 -39
-31 -81 -31 -42 0 -54 5 -80 31 -72 71 -53 202 34 240 40 17 49 17 91 0z"/>
<path d="M8538 1338 c-3 -52 -4 -53 -35 -56 -27 -3 -33 -7 -33 -28 0 -21 5
-24 35 -24 l35 0 0 -131 0 -131 29 -29 c23 -23 39 -29 70 -29 38 0 41 2 41 29
0 24 -3 28 -22 24 -13 -2 -32 2 -43 11 -18 13 -20 28 -23 135 l-4 121 46 0
c42 0 46 2 46 24 0 22 -5 25 -42 28 l-43 3 -3 53 c-3 47 -5 52 -27 52 -22 0
-24 -5 -27 -52z"/>
<path d="M10410 1335 c0 -54 0 -55 -30 -55 -25 0 -30 -4 -30 -25 0 -21 5 -25
30 -25 l30 0 0 -107 c0 -135 11 -178 51 -199 17 -8 45 -14 62 -12 27 2 33 8
35 31 3 25 1 28 -18 22 -13 -4 -31 0 -45 9 -24 16 -25 20 -25 136 l0 120 45 0
c41 0 45 2 45 25 0 23 -4 25 -45 25 l-45 0 0 55 c0 54 0 55 -30 55 -30 0 -30
-1 -30 -55z"/>
<path d="M2750 1290 c-68 -13 -110 -50 -135 -119 -26 -74 -13 -139 38 -198 56
-63 134 -80 212 -44 75 34 105 85 105 177 0 126 -98 208 -220 184z m84 -54
c92 -38 112 -168 37 -240 -36 -34 -86 -43 -134 -23 -104 44 -102 206 3 259 42
22 51 22 94 4z"/>
<path d="M3168 1290 c-47 -9 -101 -50 -122 -93 -18 -40 -21 -132 -5 -174 34
-90 150 -138 242 -99 44 18 95 78 103 121 30 161 -69 272 -218 245z m112 -68
c33 -24 60 -78 60 -120 0 -72 -64 -142 -130 -142 -42 0 -90 32 -112 73 -65
128 71 269 182 189z"/>
<path d="M3581 1289 c-78 -16 -131 -89 -131 -182 0 -72 17 -113 63 -154 61
-53 140 -56 204 -7 l33 25 0 -41 c0 -86 -55 -137 -139 -127 -34 4 -52 13 -72
35 -20 22 -33 29 -48 25 -26 -7 -27 -23 -1 -56 45 -57 179 -74 238 -30 65 49
67 54 70 289 l3 214 -25 0 c-19 0 -26 -5 -26 -20 0 -25 -8 -25 -36 1 -27 26
-86 38 -133 28z m109 -62 c34 -16 60 -72 60 -127 0 -156 -196 -190 -241 -42
-22 74 10 149 75 178 32 14 62 11 106 -9z"/>
<path d="M4154 1288 c-158 -34 -180 -285 -32 -357 76 -36 154 -24 211 34 33
34 33 39 3 53 -19 9 -25 8 -30 -4 -8 -21 -68 -54 -99 -54 -57 0 -112 44 -123
98 l-6 32 146 0 146 0 0 34 c0 19 -5 47 -11 63 -15 41 -68 91 -103 98 -17 4
-38 8 -46 10 -8 1 -34 -1 -56 -7z m89 -51 c38 -17 53 -33 62 -70 l7 -27 -116
0 c-64 0 -116 3 -116 8 0 21 45 75 73 87 41 18 50 18 90 2z"/>
<path d="M5264 1294 c-5 -1 -21 -5 -36 -8 -88 -19 -143 -140 -113 -244 40
-132 198 -175 297 -81 l42 40 -24 13 c-23 12 -28 10 -56 -16 -73 -68 -183 -34
-208 64 l-6 27 147 3 148 3 -2 39 c-3 49 -31 104 -66 129 -23 18 -99 37 -123
31z m65 -60 c27 -10 45 -26 55 -49 9 -18 16 -36 16 -39 0 -3 -52 -6 -115 -6
-123 0 -127 2 -101 49 13 24 69 60 93 61 7 0 30 -7 52 -16z"/>
<path d="M5997 1288 c-153 -41 -169 -293 -24 -359 76 -34 146 -22 205 34 38
37 39 41 11 53 -17 8 -27 5 -49 -18 -15 -15 -39 -30 -54 -34 -66 -16 -139 29
-152 94 l-6 32 146 0 146 0 0 29 c0 82 -56 154 -132 170 -27 6 -50 11 -51 10
-1 -1 -19 -6 -40 -11z m97 -52 c36 -15 66 -50 66 -78 0 -16 -11 -18 -116 -18
-115 0 -115 0 -108 23 9 31 34 58 69 73 38 17 49 17 89 0z"/>
<path d="M6556 1289 c-87 -20 -136 -87 -136 -186 0 -70 21 -115 74 -158 34
-27 45 -30 105 -30 80 0 126 26 162 90 28 49 31 144 6 191 -39 75 -124 113
-211 93z m87 -53 c54 -23 80 -59 84 -118 7 -96 -56 -165 -141 -154 -131 16
-155 218 -32 272 40 17 50 17 89 0z"/>
<path d="M7025 1295 c-5 -2 -22 -6 -36 -9 -14 -3 -38 -17 -52 -30 l-27 -25 0
24 c0 21 -5 25 -30 25 l-30 0 0 -260 0 -260 30 0 30 0 0 106 0 106 30 -26 c80
-67 206 -33 254 68 22 46 20 131 -3 183 -27 58 -118 112 -166 98z m49 -59
c104 -43 109 -214 8 -262 -50 -24 -100 -13 -139 31 -29 31 -33 41 -33 92 0 70
25 118 73 138 41 18 50 18 91 1z"/>
<path d="M7417 1290 c-81 -15 -137 -91 -137 -188 0 -165 182 -253 301 -145 21
19 39 39 39 43 0 4 -11 12 -24 18 -21 9 -27 8 -40 -13 -19 -29 -77 -49 -121
-41 -40 8 -95 66 -95 101 l0 25 145 0 145 0 0 28 c-1 37 -24 99 -47 124 -37
42 -101 60 -166 48z m88 -54 c30 -13 65 -58 65 -86 0 -6 -41 -10 -115 -10
-123 0 -130 4 -99 49 20 28 72 61 97 61 10 0 33 -6 52 -14z"/>
<path d="M7833 1288 c-17 -5 -40 -19 -51 -33 -21 -26 -32 -23 -32 7 0 13 -7
18 -25 18 l-25 0 0 -181 0 -180 28 3 27 3 5 127 c5 123 6 129 33 155 22 22 37
28 72 28 42 0 45 2 45 26 0 31 -26 40 -77 27z"/>
<path d="M9725 1295 c-5 -2 -22 -6 -37 -9 -37 -8 -86 -52 -103 -93 -17 -41
-20 -130 -4 -170 14 -38 57 -83 96 -99 68 -29 167 -5 212 52 l22 28 -23 12
c-20 11 -26 9 -53 -16 -73 -71 -185 -37 -209 63 l-6 27 144 0 c80 0 147 4 151
9 9 16 -14 102 -36 133 -11 15 -33 34 -47 42 -29 14 -90 27 -107 21z m44 -51
c39 -8 81 -50 81 -80 0 -24 -1 -24 -110 -24 -70 0 -110 4 -110 10 0 26 32 68
62 83 38 19 36 19 77 11z"/>
<path d="M10130 1288 c-19 -5 -47 -21 -62 -36 l-28 -26 0 27 c0 22 -5 27 -25
27 l-25 0 0 -180 0 -180 24 0 c24 0 24 1 27 123 4 107 7 126 26 153 32 44 72
59 118 44 55 -18 65 -48 65 -195 l0 -125 25 0 25 0 0 143 c0 123 -3 146 -20
174 -30 50 -85 68 -150 51z"/>
<path d="M12375 1289 c-74 -18 -111 -79 -81 -137 16 -32 60 -56 117 -67 56
-10 99 -40 99 -69 0 -32 -21 -47 -75 -53 -41 -5 -47 -3 -81 31 -33 33 -38 35
-61 23 l-25 -13 28 -34 c85 -101 269 -67 269 50 0 56 -30 83 -123 110 -42 12
-83 27 -89 33 -21 16 -15 44 14 67 33 26 82 22 125 -10 23 -17 32 -19 50 -9
21 12 21 12 -15 45 -21 19 -47 34 -61 34 -13 0 -30 2 -38 4 -7 2 -31 0 -53 -5z"/>
<path d="M5491 1268 c0 -7 31 -87 68 -178 65 -158 69 -165 97 -168 32 -3 36 4
171 346 3 8 -5 12 -24 12 -28 0 -31 -5 -82 -137 -29 -76 -56 -141 -60 -145 -4
-4 -31 57 -61 137 -52 138 -56 145 -82 145 -16 0 -28 -5 -27 -12z"/>
<path d="M8752 1142 c3 -115 7 -143 24 -172 38 -66 139 -78 203 -25 36 31 41
31 41 0 0 -20 5 -25 25 -25 l25 0 0 180 0 180 -25 0 c-25 0 -25 -1 -25 -92 0
-154 -29 -214 -107 -225 -37 -5 -45 -2 -73 25 l-30 30 0 131 0 131 -31 0 -31
0 4 -138z"/>
<path d="M11461 1158 c1 -140 13 -192 50 -221 54 -39 148 -31 188 17 16 19 31
12 31 -15 0 -14 7 -19 25 -19 l25 0 0 180 0 180 -29 0 -29 0 -4 -130 c-3 -124
-4 -131 -29 -156 -16 -16 -41 -28 -67 -31 -36 -5 -45 -2 -72 25 l-30 30 0 131
0 131 -30 0 -30 0 1 -122z"/>
<path d="M280 1259 c0 -5 -5 -7 -12 -3 -7 4 -8 3 -4 -4 10 -16 23 -15 30 3 3
8 1 15 -4 15 -6 0 -10 -5 -10 -11z"/>
<path d="M610 1134 c0 -9 33 -39 43 -39 6 0 13 -9 17 -19 4 -14 9 -16 14 -8
10 16 23 15 23 -1 0 -14 -40 -17 -53 -4 -11 10 -24 9 -24 -4 0 -5 6 -7 13 -3
9 6 9 4 -1 -8 -10 -13 -9 -16 9 -21 12 -3 30 -2 39 3 12 6 17 5 17 -5 0 -7 -7
-11 -16 -8 -11 3 -10 0 3 -11 25 -20 17 -20 -20 -2 -30 16 -44 13 -44 -10 0
-8 -10 -14 -25 -14 -14 0 -25 -5 -25 -10 0 -6 12 -8 28 -5 23 5 24 4 7 -5
l-20 -10 20 3 c11 1 20 9 20 17 0 9 10 15 23 16 12 1 22 -4 22 -11 0 -7 9 -10
24 -8 13 3 23 10 23 16 -1 42 3 49 18 37 9 -7 19 -9 23 -5 4 4 1 10 -5 12 -7
3 -13 9 -13 15 0 6 8 4 18 -5 10 -10 22 -17 27 -17 14 0 -16 29 -38 36 -11 3
-29 15 -40 25 -11 10 -24 16 -29 13 -4 -3 -8 -1 -8 3 0 5 -13 16 -29 26 -31
18 -41 21 -41 11z"/>
<path d="M793 1013 c-13 -2 -23 -9 -23 -14 0 -14 24 -11 46 6 19 15 16 16 -23
8z"/>
<path d="M743 987 c22 -18 10 -29 -37 -33 -97 -9 -127 -14 -143 -24 -15 -9
-11 -10 22 -7 22 3 34 3 27 0 -10 -4 -9 -9 5 -20 17 -13 16 -13 -4 -4 -32 16
-42 13 -13 -3 14 -8 29 -11 35 -8 17 11 35 11 35 0 0 -6 -8 -7 -17 -4 -15 6
-15 5 1 -13 20 -22 83 -47 93 -37 4 3 -1 6 -10 6 -28 0 -7 28 26 36 18 3 35
11 38 16 3 5 9 2 12 -7 5 -10 3 -14 -5 -9 -6 4 -8 3 -5 -4 5 -6 0 -8 -12 -5
-11 3 -28 0 -38 -7 -15 -9 -13 -10 12 -5 29 6 29 6 10 -9 -11 -8 -16 -16 -11
-16 5 0 25 12 43 26 24 18 33 32 30 45 -3 10 1 23 8 29 20 17 -1 74 -24 64
-21 -9 -51 -9 -76 0 -19 7 -19 7 -2 -7z m73 -49 l3 -33 -13 30 c-7 17 -11 34
-9 38 8 14 16 -1 19 -35z m21 0 c-3 -8 -6 -5 -6 6 -1 11 2 17 5 13 3 -3 4 -12
1 -19z m-84 -25 c15 -13 18 -14 12 -3 -8 13 -7 13 9 0 17 -13 17 -15 -10 -22
-16 -4 -34 -15 -41 -24 -7 -10 -19 -14 -32 -9 -27 8 -18 25 13 25 32 0 39 10
19 32 -22 24 3 25 30 1z"/>
<path d="M2060 505 l0 -155 74 0 c59 0 79 4 107 23 42 28 69 79 69 132 0 96
-71 155 -187 155 l-63 0 0 -155z m181 86 c25 -25 29 -37 29 -84 0 -40 -6 -61
-21 -80 -23 -30 -80 -50 -124 -45 l-30 3 -3 118 -3 117 61 0 c55 0 65 -3 91
-29z"/>
<path d="M2456 651 c-3 -4 -30 -74 -60 -155 -49 -132 -52 -146 -35 -146 11 0
22 8 25 18 24 74 22 72 89 72 67 0 79 -7 90 -53 7 -27 30 -46 41 -34 3 3 -11
50 -31 104 -20 54 -46 122 -57 151 -14 37 -25 52 -38 52 -10 0 -21 -4 -24 -9z
m52 -107 c13 -36 21 -68 19 -71 -3 -2 -27 -3 -54 -1 l-50 3 25 68 c14 37 28
67 31 67 3 0 16 -30 29 -66z"/>
<path d="M2640 654 c0 -3 18 -58 41 -122 23 -65 46 -132 52 -150 8 -24 16 -32
30 -30 16 2 32 34 75 151 30 81 52 150 49 154 -18 17 -39 -17 -71 -114 -20
-59 -40 -114 -45 -122 -11 -17 -23 10 -67 146 -22 70 -33 93 -46 93 -10 0 -18
-3 -18 -6z"/>
<path d="M3040 505 c0 -131 2 -155 15 -155 13 0 15 24 15 155 0 131 -2 155
-15 155 -13 0 -15 -24 -15 -155z"/>
<path d="M3724 649 c-10 -17 23 -46 37 -32 7 7 9 19 6 27 -7 18 -33 21 -43 5z"/>
<path d="M5014 652 c-16 -11 -34 -48 -34 -71 0 -14 -6 -21 -20 -21 -11 0 -20
-7 -20 -15 0 -8 9 -15 20 -15 19 0 20 -7 20 -90 0 -72 3 -90 15 -90 11 0 15
19 17 88 3 87 3 87 31 90 15 2 27 9 27 17 0 8 -12 15 -27 17 -27 3 -30 9 -24
47 0 5 15 14 31 20 17 5 30 15 30 20 0 12 -49 15 -66 3z"/>
<path d="M5937 646 c-9 -22 19 -42 37 -26 19 15 10 40 -14 40 -10 0 -20 -6
-23 -14z"/>
<path d="M6904 645 c-4 -9 -2 -21 4 -27 15 -15 44 -1 40 19 -4 23 -36 29 -44
8z"/>
<path d="M8220 595 l0 -66 -30 22 c-25 19 -35 21 -66 13 -50 -12 -77 -51 -77
-107 1 -58 14 -81 58 -101 38 -18 68 -15 98 12 15 14 17 13 17 -1 0 -10 7 -17
15 -17 13 0 15 24 15 155 0 131 -2 155 -15 155 -12 0 -15 -14 -15 -65z m-25
-80 c50 -49 21 -138 -45 -138 -68 0 -98 99 -44 142 35 27 59 26 89 -4z"/>
<path d="M9030 505 c0 -131 2 -155 15 -155 12 0 15 14 15 70 0 62 3 74 25 95
29 30 49 31 75 5 16 -16 20 -33 20 -95 0 -60 3 -75 15 -75 12 0 15 16 15 85 0
79 -2 88 -26 112 -20 20 -31 24 -57 19 -17 -3 -39 -14 -49 -23 -17 -15 -18
-13 -18 50 0 53 -3 67 -15 67 -13 0 -15 -24 -15 -155z"/>
<path d="M9750 504 c0 -140 2 -155 17 -152 14 3 16 17 16 98 -1 194 -2 210
-18 210 -13 0 -15 -24 -15 -156z"/>
<path d="M3600 595 c0 -28 -4 -35 -20 -35 -11 0 -20 -7 -20 -15 0 -8 9 -15 20
-15 18 0 20 -7 20 -78 0 -88 8 -102 57 -102 24 0 31 4 27 14 -3 8 -15 16 -27
18 -20 3 -22 10 -25 76 -3 71 -3 72 23 72 16 0 25 6 25 15 0 9 -9 15 -25 15
-22 0 -25 4 -25 35 0 24 -5 35 -15 35 -10 0 -15 -11 -15 -35z"/>
<path d="M3850 595 c0 -28 -4 -35 -20 -35 -11 0 -20 -7 -20 -15 0 -8 9 -15 20
-15 18 0 20 -7 20 -72 1 -85 13 -108 59 -108 36 0 39 22 5 29 -28 5 -34 19
-34 89 l0 62 31 0 c38 0 35 24 -4 28 -23 3 -27 8 -27 38 0 24 -5 34 -15 34
-10 0 -15 -11 -15 -35z"/>
<path d="M4240 595 c0 -28 -4 -35 -20 -35 -11 0 -20 -7 -20 -15 0 -8 9 -15 20
-15 18 0 20 -7 20 -68 0 -84 16 -112 65 -112 26 0 33 4 29 14 -3 8 -15 16 -27
18 -20 3 -22 10 -25 76 -3 71 -3 72 23 72 16 0 25 6 25 15 0 9 -9 15 -25 15
-22 0 -25 4 -25 35 0 28 -4 35 -20 35 -16 0 -20 -7 -20 -35z"/>
<path d="M8430 595 c0 -28 -4 -35 -20 -35 -11 0 -20 -7 -20 -15 0 -8 9 -15 20
-15 18 0 20 -7 20 -73 0 -83 15 -107 64 -107 32 0 31 23 -1 28 -25 4 -33 28
-33 100 0 52 0 52 31 52 38 0 35 24 -4 28 -23 3 -27 8 -27 38 0 24 -5 34 -15
34 -10 0 -15 -11 -15 -35z"/>
<path d="M3196 549 c-23 -18 -27 -18 -32 -5 -3 9 -12 16 -20 16 -11 0 -14 -22
-14 -105 0 -98 1 -105 20 -105 18 0 20 7 20 75 0 62 4 79 20 95 48 48 90 11
95 -82 1 -35 3 -69 4 -75 1 -7 8 -13 16 -13 12 0 15 15 15 75 0 84 -12 118
-47 134 -34 16 -47 14 -77 -10z"/>
<path d="M3399 555 c-57 -32 -33 -98 41 -110 49 -8 68 -35 41 -59 -24 -21 -43
-20 -75 5 -35 27 -55 15 -25 -17 42 -45 118 -39 141 11 19 42 -2 70 -62 85
-54 13 -70 31 -50 55 16 20 55 19 75 -1 12 -13 19 -14 28 -5 31 31 -67 63
-114 36z"/>
<path d="M4424 560 c-12 -5 -29 -19 -38 -31 -77 -110 54 -245 152 -156 16 15
19 23 10 28 -7 5 -20 1 -30 -8 -27 -24 -78 -21 -100 6 -35 44 -25 51 67 51 96
0 102 7 65 68 -28 46 -76 62 -126 42z m84 -40 c35 -33 27 -40 -43 -40 -36 0
-65 3 -65 7 0 16 45 53 65 53 12 0 31 -9 43 -20z"/>
<path d="M4755 559 c-39 -23 -55 -52 -55 -105 0 -42 4 -54 28 -76 36 -34 74
-42 116 -24 45 19 66 52 66 103 0 58 -39 102 -95 109 -22 2 -49 -1 -60 -7z
m88 -33 c45 -35 42 -109 -8 -142 -21 -14 -30 -14 -55 -4 -17 7 -35 21 -40 31
-39 73 41 162 103 115z"/>
<path d="M5263 560 c-29 -12 -63 -67 -63 -103 0 -96 117 -149 180 -82 19 20
19 23 4 29 -9 4 -21 0 -28 -8 -6 -8 -22 -18 -36 -21 -31 -7 -80 27 -80 56 0
17 8 19 86 19 l86 0 -7 28 c-18 75 -76 108 -142 82z m85 -40 c35 -33 27 -40
-43 -40 -36 0 -65 4 -65 10 0 17 43 50 65 50 12 0 31 -9 43 -20z"/>
<path d="M5530 563 c-8 -3 -23 -12 -32 -21 -16 -14 -18 -13 -18 1 0 10 -7 17
-15 17 -12 0 -15 -18 -15 -105 0 -87 3 -105 15 -105 12 0 15 14 15 70 0 62 3
74 25 95 29 30 49 31 75 5 16 -16 20 -33 20 -96 0 -64 2 -75 16 -72 12 2 18
17 21 55 9 114 -38 181 -107 156z"/>
<path d="M5733 554 c-21 -10 -37 -30 -48 -57 -15 -38 -15 -44 0 -84 26 -68 88
-92 139 -52 l26 20 0 -30 c0 -61 -76 -95 -119 -52 -12 12 -24 16 -32 10 -11
-6 -8 -13 11 -33 38 -41 128 -31 162 18 4 6 8 68 8 139 0 106 -2 127 -15 127
-8 0 -15 -7 -15 -17 0 -15 -2 -15 -17 0 -28 24 -65 29 -100 11z m91 -35 c21
-16 26 -29 26 -64 0 -35 -5 -48 -26 -64 -35 -27 -59 -26 -89 4 -35 34 -34 88
1 120 33 30 53 31 88 4z"/>
<path d="M6120 563 c-8 -3 -23 -12 -32 -21 -16 -14 -18 -13 -18 1 0 10 -7 17
-15 17 -12 0 -15 -18 -15 -105 0 -87 3 -105 15 -105 12 0 15 14 15 70 0 62 3
74 25 95 29 30 49 31 75 5 16 -16 20 -33 20 -95 0 -60 3 -75 15 -75 24 0 21
160 -2 188 -19 23 -59 34 -83 25z"/>
<path d="M6320 557 c-56 -28 -73 -113 -35 -171 19 -28 81 -50 111 -40 33 12
66 47 52 55 -7 5 -20 1 -30 -8 -27 -24 -78 -21 -100 6 -35 44 -26 51 68 51
l87 0 -7 33 c-3 17 -20 44 -36 60 -33 29 -70 34 -110 14z m90 -37 c33 -33 24
-40 -46 -40 -49 0 -63 3 -58 13 29 50 70 61 104 27z"/>
<path d="M6535 537 c-47 -47 -49 -106 -7 -157 25 -29 34 -33 75 -33 36 0 53 5
72 23 22 20 23 25 10 33 -10 5 -20 3 -30 -7 -38 -38 -96 -22 -116 32 -8 22 -7
22 76 22 l85 0 0 29 c0 44 -37 81 -87 88 -39 5 -46 2 -78 -30z m107 -14 c34
-40 32 -43 -36 -43 -72 0 -86 15 -44 44 29 21 61 20 80 -1z"/>
<path d="M6830 563 c-8 -3 -23 -12 -32 -21 -16 -14 -18 -13 -18 1 0 10 -7 17
-15 17 -12 0 -15 -18 -15 -105 0 -87 3 -105 15 -105 12 0 15 14 15 68 0 77 11
99 55 110 17 5 30 14 30 22 0 16 -14 21 -35 13z"/>
<path d="M7075 558 c-11 -6 -23 -16 -27 -22 -5 -7 -8 -4 -8 7 0 10 -8 17 -20
17 -19 0 -20 -7 -20 -105 0 -98 1 -105 20 -105 18 0 20 7 20 75 0 63 3 77 22
95 53 49 88 13 88 -93 0 -70 2 -77 20 -77 18 0 20 7 20 69 0 84 -13 125 -46
140 -31 14 -43 14 -69 -1z"/>
<path d="M7294 560 c-67 -27 -86 -125 -35 -182 24 -27 36 -33 69 -33 26 0 48
7 61 19 21 19 21 19 21 -8 0 -35 -41 -76 -76 -76 -15 0 -37 9 -49 20 -14 14
-25 16 -35 9 -13 -8 -10 -13 13 -34 51 -45 135 -29 166 32 6 12 11 72 11 137
0 93 -3 116 -14 116 -8 0 -16 -5 -18 -11 -3 -8 -14 -7 -35 5 -35 18 -48 19
-79 6z m79 -40 c58 -46 32 -149 -38 -149 -71 0 -97 126 -32 157 32 15 41 14
70 -8z"/>
<path d="M7616 549 c-36 -28 -19 -50 18 -25 14 9 34 16 44 16 22 0 52 -30 52
-52 0 -13 -7 -14 -32 -9 -18 4 -46 4 -63 0 -84 -23 -68 -133 20 -133 19 0 43
8 55 19 18 16 20 16 20 2 0 -10 8 -17 20 -17 18 0 20 7 20 64 0 81 -15 123
-51 141 -39 21 -72 19 -103 -6z m92 -95 c30 -8 28 -38 -4 -63 -33 -26 -45 -26
-74 -3 -44 36 11 83 78 66z"/>
<path d="M7900 563 c-8 -3 -23 -12 -32 -21 -16 -14 -18 -13 -18 1 0 10 -7 17
-15 17 -12 0 -15 -18 -15 -105 0 -87 3 -105 15 -105 12 0 15 14 15 70 0 62 3
74 25 95 28 29 43 31 70 11 16 -12 20 -29 23 -95 3 -61 8 -81 18 -81 23 0 20
172 -3 193 -21 18 -62 28 -83 20z"/>
<path d="M8588 541 c-30 -27 -33 -35 -33 -85 0 -47 4 -60 27 -82 35 -36 108
-39 141 -6 17 17 19 24 9 34 -9 9 -15 10 -20 2 -12 -19 -52 -35 -72 -29 -20 6
-60 51 -60 66 0 5 41 9 90 9 l90 0 -6 28 c-21 89 -102 120 -166 63z m109 -23
c13 -12 23 -25 23 -30 0 -4 -29 -8 -65 -8 -69 0 -78 7 -45 40 26 26 58 25 87
-2z"/>
<path d="M8845 559 c-39 -23 -55 -52 -55 -105 0 -42 4 -54 28 -76 15 -14 39
-28 53 -32 35 -8 87 11 100 36 13 25 3 36 -19 20 -39 -28 -62 -32 -91 -17 -47
24 -55 92 -16 130 30 31 62 32 92 3 18 -17 26 -19 35 -10 32 32 -81 78 -127
51z"/>
<path d="M9327 550 c-23 -18 -27 -19 -27 -5 0 10 -7 15 -17 13 -15 -3 -17 -16
-16 -93 1 -50 2 -96 2 -102 1 -7 8 -13 16 -13 12 0 15 15 15 74 0 69 2 76 26
95 31 25 42 26 69 5 16 -12 21 -29 24 -94 2 -63 6 -80 18 -80 21 0 15 172 -7
194 -27 27 -72 30 -103 6z"/>
<path d="M9548 554 c-32 -17 -58 -62 -58 -99 0 -124 178 -152 210 -33 28 100
-64 180 -152 132z m96 -35 c53 -42 24 -142 -42 -142 -47 0 -72 27 -72 79 0 34
5 47 26 63 15 12 34 21 44 21 10 0 29 -9 44 -21z"/>
<path d="M9895 561 c-84 -35 -84 -172 0 -207 74 -31 145 19 145 102 0 56 -12
79 -50 99 -32 16 -64 18 -95 6z m90 -46 c41 -40 33 -105 -16 -130 -76 -40
-140 65 -79 130 30 32 64 32 95 0z"/>
<path d="M10144 560 c-38 -15 -64 -59 -64 -107 0 -38 5 -50 35 -80 32 -32 40
-35 73 -29 20 3 43 13 49 23 11 15 13 12 13 -20 0 -26 -6 -40 -22 -51 -31 -22
-74 -20 -95 3 -13 14 -23 17 -33 10 -13 -8 -10 -14 13 -34 51 -45 135 -29 166
32 6 12 11 72 11 137 0 109 -1 116 -20 116 -12 0 -20 -7 -20 -17 0 -15 -2 -15
-17 0 -24 20 -63 28 -89 17z m80 -41 c52 -41 23 -149 -41 -149 -35 0 -73 43
-73 82 1 36 14 58 45 76 28 16 39 15 69 -9z"/>
<path d="M3730 454 c0 -95 2 -105 18 -102 9 2 16 7 15 11 -2 4 -3 50 -3 102 0
78 -3 95 -15 95 -12 0 -15 -18 -15 -106z"/>
<path d="M3982 470 c2 -66 7 -94 19 -106 23 -22 83 -22 109 1 18 16 20 16 20
2 0 -10 7 -17 15 -17 12 0 15 18 15 105 0 87 -3 105 -15 105 -12 0 -15 -14
-15 -70 0 -62 -3 -74 -25 -96 -19 -19 -31 -23 -48 -18 -37 11 -42 22 -46 104
-2 63 -6 80 -18 80 -12 0 -14 -15 -11 -90z"/>
<path d="M5944 458 c1 -89 3 -103 19 -106 15 -3 17 7 17 102 0 97 -2 106 -19
106 -17 0 -18 -8 -17 -102z"/>
<path d="M6910 455 c0 -87 3 -105 15 -105 12 0 15 18 15 105 0 87 -3 105 -15
105 -12 0 -15 -18 -15 -105z"/>
<path d="M10366 460 l44 -101 -26 -50 c-14 -28 -23 -53 -20 -56 16 -16 38 18
85 129 29 67 59 136 67 151 12 26 12 28 -8 25 -15 -2 -28 -21 -48 -73 -15 -38
-31 -69 -35 -68 -5 1 -21 34 -37 72 -22 52 -35 71 -48 71 -17 0 -13 -12 26
-100z"/>
</g>
</svg>
