<?xml version="1.0" standalone="no"?>
<!DOCTYPE svg PUBLIC "-//W3C//DTD SVG 20010904//EN"
 "http://www.w3.org/TR/2001/REC-SVG-20010904/DTD/svg10.dtd">
<svg version="1.0" xmlns="http://www.w3.org/2000/svg"
 width="900.000000pt" height="900.000000pt" viewBox="0 0 900.000000 900.000000"
 preserveAspectRatio="xMidYMid meet">

<g transform="translate(0.000000,900.000000) scale(0.100000,-0.100000)"
fill="#000000" stroke="none">
<path d="M3460 7079 c-14 -4 -50 -15 -80 -24 -50 -15 -137 -60 -290 -150 -30
-18 -86 -49 -125 -70 -38 -21 -77 -43 -85 -50 -8 -7 -55 -34 -105 -61 -49 -26
-92 -51 -95 -55 -3 -3 -27 -18 -55 -33 -67 -35 -121 -66 -172 -99 -24 -15 -45
-27 -48 -27 -3 0 -38 -20 -78 -44 -39 -24 -108 -64 -152 -88 -82 -46 -467
-267 -520 -299 -16 -10 -49 -27 -72 -39 -24 -12 -43 -25 -43 -29 0 -9 38 -41
48 -40 4 1 14 1 22 0 13 -1 13 -3 0 -12 -12 -9 -12 -10 3 -5 10 3 30 6 45 6
24 0 25 1 7 13 -17 13 -17 14 4 20 11 3 19 1 15 -4 -5 -9 17 -13 45 -10 7 2
10 -2 7 -7 -7 -12 28 -22 54 -15 26 7 22 36 -5 42 -15 2 -17 0 -10 -11 6 -8 3
-6 -7 4 -21 23 -113 26 -122 3 -3 -8 -16 -15 -28 -14 -13 0 -17 3 -10 6 6 2
12 13 12 24 0 17 8 19 70 19 39 0 70 -4 70 -9 0 -6 12 -9 28 -8 18 1 26 -2 24
-11 -2 -10 2 -11 14 -4 18 10 54 5 54 -8 0 -5 -6 -11 -12 -14 -7 -3 -1 -3 15
0 21 5 48 -6 120 -46 50 -29 94 -56 97 -60 3 -3 13 -9 23 -13 10 -4 15 -11 12
-17 -3 -6 1 -7 10 -4 8 4 21 1 28 -4 7 -6 37 -24 67 -40 37 -19 54 -34 53 -46
0 -11 4 -15 12 -12 16 6 75 -15 75 -26 0 -4 5 -8 11 -8 10 0 114 -57 167 -93
15 -9 42 -24 60 -32 26 -13 31 -20 28 -40 -3 -14 -1 -23 5 -20 5 4 9 -1 9 -10
0 -10 -7 -15 -17 -13 -10 2 -18 10 -18 18 0 8 -6 20 -14 26 -8 6 -11 16 -8 21
4 6 0 14 -9 17 -23 9 -24 8 -17 -11 5 -13 3 -15 -13 -9 -15 5 -16 4 -7 -5 8
-8 9 -19 3 -35 -12 -31 10 -43 70 -39 25 1 46 3 47 4 1 0 -3 15 -9 32 -6 16
-8 33 -5 36 9 8 61 -36 63 -53 2 -13 -1 -13 -17 2 -10 9 -19 13 -19 8 0 -18
15 -31 33 -28 10 1 21 -5 24 -14 4 -9 11 -20 17 -24 6 -4 7 -10 3 -14 -3 -4
-13 -2 -20 5 -11 9 -17 8 -26 -3 -12 -15 -5 -46 11 -46 6 0 8 7 4 15 -4 10 1
15 16 15 20 0 18 -3 -11 -29 -18 -16 -30 -34 -26 -40 10 -17 55 -13 55 4 0 8
6 15 13 15 8 0 7 4 -3 11 -11 8 -8 9 14 4 28 -6 28 -6 21 32 -4 21 -12 41 -19
45 -7 4 -23 16 -36 26 l-24 19 35 18 c18 10 36 21 39 25 3 3 48 30 100 59 207
115 298 166 311 177 8 6 46 28 84 49 39 21 76 42 83 48 12 9 37 24 152 88 30
16 78 43 105 60 28 16 68 39 90 50 267 134 383 403 289 672 -27 79 -98 176
-165 225 -24 18 -50 37 -57 43 -20 16 -74 37 -156 59 -78 21 -143 24 -186 9z
m-1867 -1065 c3 -3 3 -12 0 -20 -4 -11 -9 -12 -19 -3 -8 6 -11 15 -8 20 6 10
18 12 27 3z m140 -21 c-7 -2 -19 -2 -25 0 -7 3 -2 5 12 5 14 0 19 -2 13 -5z
m1067 -578 c0 -8 -2 -15 -4 -15 -2 0 -6 7 -10 15 -3 8 -1 15 4 15 6 0 10 -7
10 -15z"/>
<path d="M5315 7082 c-6 -5 -36 -14 -68 -21 -32 -7 -70 -19 -85 -27 -15 -8
-33 -14 -41 -14 -8 0 -11 -3 -8 -6 4 -4 -10 -16 -31 -27 -63 -34 -130 -114
-180 -216 l-46 -96 -1 -111 c0 -61 5 -122 11 -135 73 -165 143 -260 220 -299
16 -8 38 -21 49 -30 17 -14 156 -94 315 -182 41 -23 133 -76 170 -99 8 -5 32
-17 53 -26 20 -10 37 -21 37 -25 0 -3 21 -17 48 -30 26 -12 76 -40 112 -62 87
-52 129 -76 165 -94 17 -8 43 -25 60 -36 16 -12 39 -26 50 -32 46 -24 148 -82
270 -153 72 -41 161 -92 200 -113 38 -22 72 -42 75 -46 5 -7 60 -37 145 -80
28 -13 52 -28 55 -32 8 -12 146 -80 162 -80 8 0 20 -6 27 -12 8 -9 51 -13 144
-13 l132 1 85 41 c129 63 241 184 266 288 4 17 12 36 18 44 16 20 15 256 -1
272 -7 7 -13 20 -13 29 0 8 -15 47 -34 85 -34 71 -132 177 -182 196 -13 4 -42
21 -66 36 -51 32 -76 47 -160 92 -35 18 -65 37 -68 41 -3 4 -21 15 -40 25 -54
25 -114 59 -146 82 -16 11 -47 29 -69 40 -72 36 -130 68 -135 74 -8 10 -169
99 -179 99 -5 0 -11 4 -13 9 -1 4 -34 25 -73 46 -38 21 -92 52 -120 70 -46 28
-91 54 -170 94 -16 9 -32 19 -35 22 -5 7 -159 96 -284 164 -40 22 -95 54 -122
70 -27 17 -58 36 -69 43 -11 6 -40 22 -65 34 -25 12 -47 25 -50 28 -11 14
-113 51 -155 57 -25 3 -48 10 -51 14 -7 11 -97 12 -109 1z"/>
<path d="M1517 5986 c-3 -7 -19 -16 -36 -19 -36 -7 -126 -67 -159 -105 -13
-15 -31 -36 -41 -47 -15 -18 -15 -25 -5 -50 l12 -30 4 30 c3 26 7 30 31 28 18
-1 25 2 21 9 -5 7 -2 8 5 4 20 -13 83 -9 92 5 12 20 9 93 -3 81 -6 -6 -17 -8
-24 -5 -8 3 -14 0 -14 -6 0 -6 4 -11 8 -11 5 0 9 -7 9 -15 0 -8 -4 -15 -9 -15
-4 0 -8 -9 -8 -21 0 -19 -1 -19 -16 -4 -12 11 -13 19 -5 29 6 7 8 16 4 19 -3
4 -1 13 5 20 7 8 9 17 5 20 -3 4 -2 7 3 7 6 0 15 -5 22 -12 9 -9 12 -8 12 5 0
9 -6 17 -12 17 -9 0 -8 3 2 10 11 7 17 5 22 -8 5 -14 7 -13 7 6 1 17 7 22 29
23 15 1 31 1 36 0 4 -1 14 3 20 9 7 5 16 7 19 3 4 -3 7 -4 7 -2 0 3 -9 12 -19
21 -15 13 -21 13 -24 4z m-168 -133 c-16 -32 -59 -65 -59 -46 0 8 63 81 71 82
4 1 -2 -16 -12 -36z"/>
<path d="M1879 5959 c-11 -7 -9 -9 8 -9 12 0 24 -6 26 -12 4 -8 6 -7 6 3 1 21
-21 30 -40 18z"/>
<path d="M1933 5928 c1 -7 -3 -12 -9 -11 -12 2 -13 -96 -1 -114 7 -11 98 -12
137 -2 11 3 15 -4 15 -25 0 -18 7 -33 19 -40 10 -6 29 -21 42 -33 13 -13 27
-23 32 -23 5 0 8 -10 8 -22 -1 -26 26 -35 45 -15 11 11 17 11 38 1 17 -9 29
-10 37 -3 8 7 13 6 16 -2 3 -8 12 -9 28 -4 l25 9 -25 6 c-16 4 -26 14 -28 28
-4 26 -2 26 44 7 19 -8 34 -20 33 -27 -3 -27 2 -38 17 -38 14 0 14 -1 0 -16
-18 -18 -20 -30 -6 -39 6 -4 7 -12 3 -18 -4 -7 1 -6 11 2 10 9 15 23 12 34 -3
14 -2 17 6 9 6 -6 24 -8 41 -5 27 6 28 4 18 -15 -6 -11 -22 -29 -36 -40 -18
-14 -21 -22 -13 -26 7 -3 1 -3 -14 0 -21 5 -28 2 -28 -10 0 -11 9 -16 31 -16
26 0 31 3 26 20 -3 11 -1 23 4 26 5 3 9 1 9 -4 0 -6 10 -8 23 -6 22 5 22 5 -1
-6 -13 -5 -20 -15 -16 -21 5 -8 9 -8 14 1 5 8 9 7 14 -5 8 -21 38 -15 42 8 1
12 -2 17 -11 14 -10 -4 -11 2 -2 29 6 19 14 34 18 34 5 0 6 7 3 15 -4 10 -13
13 -25 10 -13 -5 -19 -1 -19 10 0 11 -5 15 -15 11 -9 -3 -15 0 -15 9 0 10 -10
15 -27 15 -21 0 -24 3 -14 9 12 8 9 11 -12 16 -15 4 -27 11 -27 16 0 5 -9 9
-20 9 -11 0 -23 7 -27 16 -3 8 -12 13 -20 10 -9 -4 -11 -2 -7 6 5 8 2 9 -10 5
-10 -4 -20 -7 -22 -7 -2 0 -4 -7 -4 -15 0 -8 -7 -15 -16 -15 -8 0 -12 -5 -9
-10 4 -6 10 -8 15 -5 5 3 11 1 15 -5 3 -5 -3 -10 -14 -10 -19 0 -26 10 -22 33
2 12 -11 8 -31 -10 -11 -9 -18 -11 -18 -5 0 7 4 12 10 12 6 0 6 9 0 26 -13 33
-13 34 4 34 8 0 16 -7 20 -15 3 -8 1 -15 -4 -15 -6 0 -10 -4 -10 -10 0 -5 7
-7 15 -4 10 4 13 13 10 25 -5 15 -3 17 12 12 16 -6 16 -5 4 10 -7 9 -22 17
-33 17 -10 0 -21 6 -24 14 -3 8 -12 17 -20 20 -11 4 -14 0 -12 -16 2 -11 -3
-23 -11 -26 -10 -3 -13 2 -9 22 3 15 1 29 -3 32 -5 3 -9 0 -9 -7 0 -8 -4 -8
-15 1 -20 17 -32 5 -15 -15 9 -11 9 -15 1 -15 -7 0 -9 -5 -5 -12 4 -7 3 -8 -4
-4 -6 4 -9 13 -6 20 3 7 -2 16 -11 20 -15 5 -15 7 -1 22 16 16 13 34 -5 34 -6
0 -7 -5 -3 -12 5 -8 2 -9 -10 -5 -10 4 -20 7 -22 7 -2 0 -4 5 -4 10 0 6 8 10
18 10 9 0 -14 16 -52 35 -76 38 -87 41 -83 23z m23 -26 c0 -10 -8 -18 -18 -18
-16 0 -16 2 -1 18 9 10 17 18 17 18 1 0 2 -8 2 -18z m45 -26 c-6 -7 -8 -16 -5
-19 3 -3 3 -11 -1 -17 -6 -9 -9 -9 -15 1 -10 15 9 61 22 53 5 -3 5 -11 -1 -18z
m42 -2 c-7 -3 -9 -13 -6 -22 4 -15 3 -15 -6 -2 -9 13 -11 13 -11 0 0 -13 -1
-13 -10 0 -9 15 8 29 35 29 6 -1 5 -3 -2 -5z m-73 -46 c0 -4 -4 -8 -9 -8 -6 0
-12 4 -15 8 -3 5 1 9 9 9 8 0 15 -4 15 -9z m80 -8 c-6 -11 -13 -20 -16 -20 -2
0 0 9 6 20 6 11 13 20 16 20 2 0 0 -9 -6 -20z m126 -85 c16 -12 16 -14 3 -15
-9 0 -22 7 -29 15 -16 19 0 19 26 0z m354 -165 c0 -5 -5 -10 -11 -10 -5 0 -7
5 -4 10 3 6 8 10 11 10 2 0 4 -4 4 -10z"/>
<path d="M1246 5771 c-4 -5 -3 -17 1 -27 4 -11 3 -15 -4 -11 -15 9 -45 -58
-47 -104 0 -21 -5 -39 -10 -39 -5 0 -6 -20 -4 -45 3 -26 2 -42 -4 -39 -5 3 -6
-5 -4 -18 3 -12 7 -44 10 -69 5 -57 25 -128 44 -154 13 -19 13 -19 10 -1 -2
10 2 21 9 23 9 3 10 -4 3 -28 -11 -36 -2 -53 22 -44 11 4 16 21 16 53 1 29 -2
42 -7 33 -7 -11 -9 -11 -13 0 -5 12 -9 12 -28 1 -18 -11 -21 -11 -18 0 3 7 18
15 33 18 l29 5 1 138 c0 117 -2 137 -15 134 -8 -1 -15 -12 -14 -23 0 -16 -5
-20 -18 -16 -19 5 -25 22 -8 22 6 0 10 7 10 15 0 8 3 14 8 14 36 -6 42 1 35
49 -7 56 -8 58 -28 42 -12 -10 -15 -10 -15 4 0 9 6 16 13 16 7 0 13 9 14 20 1
13 -2 18 -9 14 -7 -5 -9 -1 -5 9 7 18 2 23 -7 8z m21 -108 c-3 -10 -5 -4 -5
12 0 17 2 24 5 18 2 -7 2 -21 0 -30z m-30 -19 c-10 -10 -29 17 -22 32 6 17 8
17 16 -5 5 -13 8 -25 6 -27z m43 -14 c0 -5 -7 -10 -15 -10 -8 0 -15 5 -15 10
0 6 7 10 15 10 8 0 15 -4 15 -10z m-70 -106 c0 -8 -4 -12 -10 -9 -5 3 -10 13
-10 21 0 8 5 12 10 9 6 -3 10 -13 10 -21z m57 -16 c-3 -7 -5 -2 -5 12 0 14 2
19 5 13 2 -7 2 -19 0 -25z m-56 -37 c6 9 9 -4 9 -38 0 -41 4 -56 19 -65 14 -8
16 -14 7 -24 -14 -15 -36 1 -36 27 0 11 -5 19 -10 19 -6 0 -5 8 2 20 10 15 10
22 0 32 -6 6 -11 21 -11 33 1 18 2 18 6 1 4 -15 7 -16 14 -5z m59 -11 c0 -5
-4 -10 -10 -10 -5 0 -7 -6 -5 -12 3 -7 1 -26 -3 -43 l-9 -30 -7 32 c-4 19 -3
40 4 52 11 22 30 28 30 11z m3 -210 c-3 -11 -9 -20 -15 -20 -5 0 -4 9 2 20 6
11 12 20 14 20 2 0 2 -9 -1 -20z"/>
<path d="M2080 5680 c0 -38 12 -52 25 -30 4 6 12 4 22 -6 11 -10 19 -12 26 -5
12 12 -19 65 -34 56 -5 -4 -12 1 -15 9 -11 29 -24 16 -24 -24z"/>
<path d="M2320 5676 c0 -2 7 -7 16 -10 8 -3 12 -2 9 4 -6 10 -25 14 -25 6z"/>
<path d="M2460 5564 c0 -8 5 -12 10 -9 6 3 10 10 10 16 0 5 -4 9 -10 9 -5 0
-10 -7 -10 -16z"/>
<path d="M2618 5553 c7 -3 16 -2 19 1 4 3 -2 6 -13 5 -11 0 -14 -3 -6 -6z"/>
<path d="M2710 5449 c0 -5 5 -7 10 -4 6 3 10 8 10 11 0 2 -4 4 -10 4 -5 0 -10
-5 -10 -11z"/>
<path d="M2820 5430 c0 -5 6 -10 14 -10 8 0 18 -5 22 -12 5 -8 2 -9 -9 -5 -13
5 -17 1 -18 -16 -1 -12 -1 -26 0 -30 1 -5 -4 -7 -11 -5 -7 3 -19 -2 -27 -9
-24 -24 1 -37 56 -27 26 4 56 7 66 6 9 -1 17 3 17 9 0 7 -11 9 -25 7 -28 -6
-32 6 -10 28 13 14 19 11 17 -7 -1 -4 17 -9 39 -13 22 -4 37 -10 34 -15 -3 -5
7 -13 22 -18 27 -9 28 -12 28 -83 0 -51 4 -75 13 -78 9 -3 12 4 10 19 -2 13 2
25 7 26 6 2 10 -7 10 -20 0 -26 23 -32 50 -11 17 13 18 16 5 24 -13 8 -12 10
3 10 9 0 17 7 17 15 0 8 5 15 11 15 5 0 8 -4 5 -9 -7 -11 22 -23 36 -14 7 3 8
1 4 -5 -3 -6 1 -15 10 -20 10 -6 12 -12 6 -16 -5 -3 -12 1 -16 9 -8 21 -26 19
-26 -4 0 -13 6 -17 23 -15 70 11 93 8 79 -8 -8 -10 -1 -13 29 -15 22 -1 37 2
34 8 -4 5 -12 9 -19 9 -8 0 -19 6 -25 14 -7 8 -28 17 -48 21 -24 4 -32 9 -24
14 9 6 3 12 -20 20 -18 6 -41 19 -51 28 -17 16 -24 9 -19 -19 2 -15 -20 -8
-26 8 -3 8 -12 13 -20 10 -8 -3 -11 -1 -8 4 8 13 -8 13 -22 -1 -7 -7 -12 -4
-16 10 -3 12 -1 24 4 27 5 3 9 1 9 -5 0 -5 8 -9 18 -9 9 0 26 -2 37 -6 11 -3
4 2 -15 12 -19 10 -57 32 -84 50 -28 18 -55 32 -62 32 -6 0 -17 7 -25 16 -7 8
-21 13 -31 11 -10 -3 -16 -2 -13 2 2 4 -9 18 -25 29 -33 24 -40 27 -40 12z"/>
<path d="M2945 5320 c3 -5 8 -10 11 -10 2 0 4 5 4 10 0 6 -5 10 -11 10 -5 0
-7 -4 -4 -10z"/>
<path d="M1320 5230 c0 -5 7 -10 15 -10 8 0 15 -5 15 -12 0 -6 2 -9 5 -6 3 3
3 13 -1 22 -7 17 -34 22 -34 6z"/>
<path d="M1270 5201 c0 -5 5 -13 10 -16 6 -3 10 -2 10 4 0 5 -4 13 -10 16 -5
3 -10 2 -10 -4z"/>
<path d="M1297 5173 c-4 -4 7 -21 24 -39 26 -27 36 -31 51 -23 23 12 22 18 -3
49 l-20 25 6 -38 c3 -24 1 -36 -5 -32 -5 3 -10 12 -10 19 0 17 -35 48 -43 39z"/>
<path d="M1468 5164 c-4 -4 -21 -7 -38 -6 -16 0 -30 -4 -30 -9 0 -5 7 -9 15
-9 25 0 17 -26 -12 -39 -27 -12 -27 -13 -8 -28 34 -25 55 -34 55 -24 0 5 -6
11 -12 14 -7 2 -10 7 -7 11 3 3 18 -3 32 -15 32 -24 35 -14 6 21 -11 14 -17
18 -13 10 5 -12 4 -12 -5 -4 -7 7 -11 20 -9 30 3 18 4 18 23 -1 11 -11 31 -26
45 -33 l25 -12 -25 6 c-22 6 -23 5 -12 -9 8 -9 10 -22 6 -28 -5 -9 -2 -10 9
-6 21 8 33 -11 18 -26 -9 -9 -11 -8 -8 3 2 8 2 12 0 8 -2 -4 -12 -4 -21 -1
-14 5 -14 3 2 -9 23 -18 80 -12 72 8 -6 15 15 15 26 -1 5 -6 8 -5 8 3 0 7 -7
15 -15 18 -14 6 -14 8 1 18 12 9 15 20 9 44 -3 18 -11 32 -17 32 -6 0 -6 6 2
15 11 13 8 15 -16 15 -16 0 -45 3 -64 6 -19 3 -38 2 -42 -2z m27 -14 c3 -5 2
-10 -4 -10 -5 0 -13 5 -16 10 -3 6 -2 10 4 10 5 0 13 -4 16 -10z m70 -50 c3
-4 -3 -14 -12 -21 -15 -12 -16 -12 -10 4 4 11 2 17 -8 17 -8 0 -15 4 -15 9 0
10 38 3 45 -9z"/>
<path d="M3199 5118 c-1 -13 -3 -36 -4 -53 -4 -45 4 -65 26 -65 16 0 19 5 14
23 -5 17 -4 19 4 7 6 -8 11 -10 11 -4 0 6 -9 19 -20 29 -11 10 -20 23 -20 29
0 6 5 4 10 -4 5 -8 10 -10 10 -5 0 6 13 11 29 10 20 0 26 -3 20 -11 -5 -6 -6
-14 -3 -17 4 -3 -1 -13 -10 -22 -9 -9 -13 -22 -9 -28 5 -8 8 -7 11 2 3 8 8 7
17 -6 11 -15 17 -15 39 -5 14 6 26 17 26 24 0 7 9 19 20 26 17 10 20 10 20 -3
0 -8 -7 -15 -15 -15 -8 0 -15 -7 -15 -15 0 -20 37 -19 58 1 15 15 17 15 26 -5
5 -11 16 -21 25 -21 13 1 13 3 -3 15 -11 8 -16 15 -12 15 5 0 3 6 -3 13 -8 11
-6 13 12 12 12 -1 23 -7 23 -13 1 -7 2 -16 3 -22 0 -5 6 -10 12 -10 5 0 7 5 4
10 -3 6 -2 10 4 10 12 0 22 -15 15 -23 -4 -3 -7 -26 -8 -51 -2 -47 9 -57 33
-33 10 10 11 9 6 -5 -4 -9 -15 -18 -25 -21 -25 -6 -15 -47 11 -47 11 0 19 3
19 8 1 16 29 44 40 37 8 -5 8 -10 0 -20 -17 -21 22 -38 62 -27 31 8 31 9 11
16 -26 8 -31 26 -8 26 8 0 15 -4 15 -10 0 -5 7 -10 15 -10 7 0 18 -6 22 -13 5
-9 18 -11 38 -6 17 4 24 7 18 8 -7 0 -13 7 -13 15 0 16 -43 30 -48 16 -2 -6
-8 -8 -13 -5 -5 4 -3 12 3 19 10 11 18 11 45 -1 18 -7 33 -11 33 -8 0 3 -22
15 -50 27 -27 12 -47 25 -44 29 2 4 -9 10 -26 14 -17 4 -28 10 -25 15 3 4 -4
10 -14 13 -14 3 -18 1 -14 -9 3 -8 1 -14 -5 -14 -6 0 -12 5 -14 10 -2 6 -15
-1 -30 -15 -24 -22 -27 -23 -25 -6 1 11 5 17 10 14 11 -7 48 27 41 38 -2 4
-11 6 -20 2 -9 -3 -14 0 -12 8 2 8 -4 15 -12 15 -8 1 -21 2 -28 3 -7 0 -11 5
-8 10 7 11 -22 23 -35 15 -5 -3 -9 0 -9 6 0 6 -5 8 -12 4 -7 -5 -8 -3 -3 6 4
7 2 16 -6 21 -20 13 -31 11 -23 -3 4 -7 -4 -1 -19 15 -26 27 -44 36 -31 16 4
-8 -1 -9 -17 -4 -21 7 -22 6 -10 -9 9 -11 10 -16 2 -16 -7 0 -9 -4 -6 -10 3
-5 1 -10 -5 -10 -7 0 -9 7 -6 16 5 12 2 15 -9 10 -9 -3 -14 -2 -11 3 3 5 -1
14 -9 21 -8 7 -15 9 -15 4 0 -4 -5 -3 -12 4 -7 7 -25 12 -40 12 -22 0 -28 -5
-29 -22z m191 -28 c0 -5 -4 -10 -9 -10 -6 0 -13 5 -16 10 -3 6 1 10 9 10 9 0
16 -4 16 -10z m-26 -26 c3 -8 2 -12 -4 -9 -6 3 -10 10 -10 16 0 14 7 11 14 -7z
m-54 -9 c0 -8 -2 -15 -4 -15 -2 0 -6 7 -10 15 -3 8 -1 15 4 15 6 0 10 -7 10
-15z m320 -125 c25 -25 25 -30 -2 -30 -12 0 -18 3 -15 6 3 4 2 15 -4 25 -13
25 -4 24 21 -1z m27 14 c-3 -3 -12 -4 -19 -1 -8 3 -5 6 6 6 11 1 17 -2 13 -5z
m38 -34 c3 -5 2 -10 -4 -10 -5 0 -13 5 -16 10 -3 6 -2 10 4 10 5 0 13 -4 16
-10z m-48 -66 c-3 -3 -12 -4 -19 -1 -8 3 -5 6 6 6 11 1 17 -2 13 -5z"/>
<path d="M1635 4997 c12 -10 14 -16 7 -21 -7 -4 -12 -3 -12 3 0 16 -32 21 -65
12 -16 -5 -25 -10 -18 -10 6 -1 20 -9 29 -18 17 -17 18 -17 11 0 -4 10 -2 17
6 17 16 -1 66 -39 50 -40 -6 0 -19 7 -27 16 -9 9 -16 11 -16 4 0 -15 68 -43
82 -34 7 5 8 2 3 -6 -4 -7 -2 -16 6 -21 20 -12 29 -11 27 4 -2 6 5 12 15 12 9
0 16 -4 15 -10 -2 -5 -6 -9 -10 -8 -4 2 -5 -4 -2 -12 4 -10 14 -13 33 -9 33 8
45 19 37 33 -11 17 -26 13 -20 -4 4 -8 1 -15 -5 -15 -6 0 -11 9 -11 20 0 11
-7 23 -15 26 -8 4 -15 10 -15 15 0 5 7 9 15 9 15 0 21 35 7 44 -4 2 -26 2 -49
-1 -30 -4 -40 -9 -36 -19 3 -8 0 -14 -7 -14 -6 0 -9 4 -5 9 3 6 -3 15 -14 20
-28 15 -38 14 -16 -2z m125 -23 c0 -2 -7 -4 -15 -4 -8 0 -15 4 -15 10 0 5 7 7
15 4 8 -4 15 -8 15 -10z m-80 -24 c0 -5 -2 -10 -4 -10 -3 0 -8 5 -11 10 -3 6
-1 10 4 10 6 0 11 -4 11 -10z"/>
<path d="M1760 4866 c0 -11 101 -65 126 -68 18 -2 29 -9 29 -18 0 -8 9 -16 20
-19 11 -2 28 -13 37 -24 10 -11 21 -17 25 -13 4 3 -1 12 -11 19 -16 11 -15 13
9 15 22 2 25 -1 19 -23 -5 -20 -3 -25 12 -24 11 0 14 3 6 6 -6 2 -10 9 -6 14
8 14 24 11 24 -6 0 -8 7 -15 15 -15 24 0 17 30 -10 40 -14 5 -25 15 -25 22 0
9 2 10 8 1 12 -20 46 -20 50 0 11 56 -38 96 -52 42 -4 -14 -11 -25 -17 -25 -6
0 -6 6 1 19 5 11 10 22 10 24 0 9 -49 14 -61 6 -7 -4 -18 -5 -23 -1 -19 11
-45 9 -50 -4 -3 -7 0 -15 7 -17 7 -2 0 -4 -16 -3 -22 1 -25 3 -12 12 16 12 10
24 -12 24 -8 0 -11 -4 -8 -10 3 -5 1 -10 -4 -10 -6 0 -11 9 -11 20 0 12 -7 20
-16 20 -14 0 -14 -3 -4 -15 20 -24 6 -27 -23 -5 -24 19 -37 25 -37 16z"/>
<path d="M3793 4863 c14 -4 16 -8 6 -19 -8 -10 -8 -14 0 -14 6 0 11 5 11 10 0
6 5 10 10 10 6 0 10 -12 10 -26 0 -18 4 -25 14 -21 15 6 16 -17 1 -30 -4 -4
-5 -2 0 6 5 10 4 12 -3 7 -9 -5 -9 -13 -2 -26 6 -11 6 -21 1 -25 -14 -8 -6
-58 9 -63 9 -3 11 2 7 17 -3 13 0 21 8 21 7 0 12 -8 11 -17 -1 -13 6 -18 24
-18 21 0 25 5 24 28 -1 15 3 27 8 27 5 0 8 -8 7 -17 -3 -31 1 -43 12 -43 5 0
7 4 4 10 -4 7 3 7 20 0 l26 -10 -18 24 c-10 13 -21 22 -25 19 -5 -2 -8 -1 -9
4 -3 35 -12 52 -42 78 -62 56 -91 75 -112 74 -17 -1 -18 -2 -2 -6z m101 -62
c3 -4 -3 -16 -14 -26 -19 -17 -19 -17 -7 9 14 29 14 29 21 17z m40 -47 c3 -9
-1 -14 -12 -14 -10 0 -22 -4 -28 -10 -6 -6 -10 -3 -10 9 0 13 6 17 21 13 18
-5 18 -4 6 11 -12 15 -12 17 2 11 8 -3 18 -12 21 -20z"/>
<path d="M2060 4690 c8 -6 23 -15 33 -21 17 -9 17 -8 7 10 -6 12 -21 21 -33
21 -18 0 -19 -2 -7 -10z"/>
<path d="M2154 4673 c5 -27 -9 -30 -23 -5 -9 15 -10 16 -11 0 0 -9 9 -20 20
-23 11 -3 20 -10 20 -15 0 -5 19 -13 43 -18 23 -6 33 -11 22 -11 -15 -1 -12
-5 14 -16 18 -8 34 -15 36 -15 1 0 1 14 0 30 -2 21 2 30 12 30 8 0 11 5 7 12
-4 7 -3 8 4 4 8 -4 12 0 12 10 0 13 3 15 11 7 6 -6 18 -9 27 -6 10 4 13 2 8
-5 -4 -7 -1 -12 8 -12 8 0 17 -4 20 -9 4 -5 -13 -7 -38 -5 -42 4 -45 3 -51
-26 -8 -34 1 -54 21 -46 8 3 13 0 11 -6 -1 -6 4 -13 11 -15 6 -3 12 0 12 7 0
6 5 8 10 5 8 -5 7 -11 -1 -21 -10 -12 -8 -13 7 -8 10 4 16 3 12 -1 -11 -11 90
-68 104 -59 7 4 8 3 4 -4 -4 -7 -1 -12 7 -12 8 0 20 -7 27 -15 7 -9 18 -14 23
-12 6 2 20 -7 33 -20 13 -13 29 -23 35 -23 7 0 5 6 -6 13 -17 13 -17 14 4 20
14 3 21 1 21 -10 0 -8 4 -12 9 -8 5 3 13 0 17 -6 4 -7 3 -9 -4 -5 -6 3 -13 2
-17 -3 -3 -6 4 -15 15 -21 14 -8 20 -8 20 0 0 6 4 9 8 6 4 -2 14 -1 22 4 11 7
11 11 1 23 -13 16 1 33 18 22 6 -3 10 12 9 35 0 22 -4 40 -8 40 -5 0 -6 9 -3
20 3 11 0 20 -6 20 -5 0 -8 -7 -4 -16 5 -13 2 -15 -18 -9 -13 4 -27 12 -30 18
-4 5 -23 8 -42 5 -20 -2 -34 -1 -31 3 2 4 -17 7 -43 6 -27 -1 -48 -7 -48 -13
0 -6 -7 -17 -16 -26 -12 -13 -19 -13 -37 -4 -13 7 -19 15 -15 20 4 4 1 11 -6
15 -7 5 -14 20 -14 34 -1 16 -6 22 -12 16 -5 -5 -16 -9 -25 -9 -11 0 -9 5 7
18 16 12 23 30 25 61 3 45 3 45 -32 47 -19 1 -54 -1 -77 -6 -27 -4 -46 -3 -53
4 -8 8 -13 7 -20 -4 -7 -11 -5 -16 5 -18 31 -7 14 -18 -21 -14 -24 3 -39 11
-45 26 -9 21 -9 21 -5 -1z m83 -49 c-3 -3 -12 -4 -19 -1 -8 3 -5 6 6 6 11 1
17 -2 13 -5z m28 -24 c3 -5 1 -10 -4 -10 -6 0 -11 5 -11 10 0 6 2 10 4 10 3 0
8 -4 11 -10z m60 -9 c-3 -5 3 -12 12 -14 12 -3 9 -5 -8 -6 -17 -1 -26 4 -26
14 0 8 7 15 14 15 8 0 12 -4 8 -9z m72 -63 c-3 -8 -6 -5 -6 6 -1 11 2 17 5 13
3 -3 4 -12 1 -19z m233 -48 c-13 -8 -13 -11 2 -22 9 -7 19 -24 23 -38 7 -23 7
-23 -9 -7 -20 20 -18 20 -50 7 -15 -5 -28 -6 -31 0 -3 5 -12 7 -19 4 -19 -7
-31 15 -17 29 9 9 11 8 6 -3 -4 -12 5 -15 50 -15 30 0 55 2 55 6 0 11 -49 28
-72 24 -22 -4 -22 -4 -4 10 11 8 34 15 50 15 24 0 27 -3 16 -10z m-125 -10 c3
-6 -1 -7 -9 -4 -18 7 -21 14 -7 14 6 0 13 -4 16 -10z"/>
<path d="M2175 4680 c-3 -5 1 -10 9 -10 8 0 18 5 21 10 3 6 -1 10 -9 10 -8 0
-18 -4 -21 -10z"/>
<path d="M3997 4653 c-10 -10 -8 -61 2 -67 5 -4 12 0 14 6 4 9 6 8 6 -2 1 -9
-3 -20 -8 -25 -6 -6 -6 -27 0 -55 6 -25 10 -53 10 -62 -2 -40 -1 -55 4 -93 5
-39 4 -39 -5 -7 -6 17 -13 32 -15 32 -5 0 3 -66 11 -89 3 -8 -1 -11 -10 -8
-10 4 -14 -3 -13 -28 1 -23 5 -31 14 -28 7 3 13 10 14 17 2 29 11 71 18 85 5
9 8 58 8 109 0 71 -3 92 -13 92 -8 0 -14 7 -14 16 0 8 4 13 9 10 12 -8 1 34
-17 61 -7 12 -11 27 -7 33 7 11 2 14 -8 3z m41 -164 c-3 -8 -7 -3 -11 10 -4
17 -3 21 5 13 5 -5 8 -16 6 -23z"/>
<path d="M2454 4505 c-20 -15 -11 -18 20 -6 11 4 15 10 9 14 -5 3 -19 0 -29
-8z"/>
<path d="M4000 4455 c0 -8 4 -15 10 -15 5 0 7 7 4 15 -4 8 -8 15 -10 15 -2 0
-4 -7 -4 -15z"/>
<path d="M2822 4363 c-18 -4 -21 -9 -16 -26 6 -19 5 -20 -9 -8 -9 7 -14 17
-11 22 3 5 -7 9 -21 9 -17 0 -24 -4 -19 -11 11 -19 -19 -29 -37 -13 -10 9 -19
11 -23 6 -3 -6 14 -22 38 -36 46 -27 73 -35 42 -13 -13 10 -15 18 -7 37 l10
25 0 -29 c1 -21 5 -27 16 -22 8 3 25 1 37 -5 22 -9 21 -9 -3 -4 -21 4 -26 1
-25 -13 2 -26 19 -33 39 -15 17 16 17 16 11 0 -5 -13 -2 -16 12 -11 18 5 18 5
0 -10 -23 -19 -9 -21 16 -3 16 12 15 15 -8 42 -30 35 -30 37 2 25 20 -8 25 -7
21 2 -2 7 -11 12 -18 10 -8 -1 -7 4 5 12 33 27 9 40 -52 29z"/>
<path d="M2710 4351 c0 -6 4 -12 8 -15 5 -3 9 1 9 9 0 8 -4 15 -9 15 -4 0 -8
-4 -8 -9z"/>
<path d="M3991 4314 c0 -11 3 -14 6 -6 3 7 2 16 -1 19 -3 4 -6 -2 -5 -13z"/>
<path d="M2918 4258 c9 -9 15 -9 24 0 9 9 7 12 -12 12 -19 0 -21 -3 -12 -12z"/>
<path d="M2915 4230 c3 -5 13 -10 21 -10 8 0 14 5 14 10 0 6 -9 10 -21 10 -11
0 -17 -4 -14 -10z"/>
<path d="M2878 4223 c7 -3 16 -2 19 1 4 3 -2 6 -13 5 -11 0 -14 -3 -6 -6z"/>
<path d="M2920 4195 c24 -13 40 -12 40 3 0 4 -15 8 -33 9 l-32 2 25 -14z"/>
<path d="M3000 4195 c0 -16 16 -20 24 -6 3 5 -1 11 -9 15 -9 3 -15 0 -15 -9z"/>
<path d="M3040 4200 c0 -5 5 -10 10 -10 6 0 10 5 10 10 0 6 -4 10 -10 10 -5 0
-10 -4 -10 -10z"/>
<path d="M3105 4200 c-3 -5 -12 -7 -20 -3 -9 3 -15 -1 -15 -11 0 -15 -17 -21
-49 -17 -7 2 -10 -2 -6 -8 3 -6 2 -11 -4 -11 -14 0 -32 35 -23 45 4 4 0 6 -8
3 -27 -8 -16 -32 25 -55 29 -16 41 -19 47 -10 5 8 8 6 8 -5 0 -10 13 -24 30
-33 34 -18 40 -18 40 -4 0 5 -4 8 -8 5 -5 -3 -9 1 -9 8 0 10 7 10 31 -2 17 -8
32 -16 34 -17 1 -1 -4 -8 -13 -15 -13 -11 -14 -10 -9 4 3 9 1 16 -5 16 -25 0
-8 -31 27 -48 20 -11 63 -33 94 -51 34 -18 73 -31 95 -32 29 0 33 -2 18 -8
-17 -7 -17 -8 8 -15 20 -5 32 -1 47 14 11 11 18 26 14 32 -4 6 -3 8 4 4 6 -3
13 -2 17 3 3 6 12 8 19 5 8 -3 17 -1 21 5 3 6 11 11 16 11 6 0 8 -4 4 -9 -3
-5 3 -12 12 -15 10 -2 -2 -4 -27 -3 -37 1 -45 -2 -44 -16 1 -10 -5 -17 -17
-17 -10 0 -19 -4 -19 -10 0 -5 7 -10 15 -10 8 0 15 -4 15 -10 0 -15 130 -13
135 3 3 7 25 13 52 13 26 1 49 7 51 13 2 6 14 11 26 11 12 0 51 20 86 45 34
24 67 46 73 48 13 4 -10 47 -26 47 -7 0 -6 -4 3 -10 12 -8 11 -10 -7 -10 -16
0 -21 4 -17 15 4 8 1 15 -5 15 -19 0 -12 -32 9 -37 24 -6 25 -16 5 -33 -13
-11 -14 -10 -9 4 3 9 1 16 -5 16 -6 0 -11 -10 -12 -22 0 -13 -3 -18 -5 -12 -3
7 -14 9 -26 6 -14 -3 -19 -1 -14 6 4 7 2 12 -5 12 -6 0 -9 -8 -6 -20 3 -11 1
-20 -4 -20 -5 0 -9 6 -9 14 0 19 -31 24 -120 21 -129 -5 -160 -9 -160 -18 0
-4 -10 -7 -22 -5 -13 2 -22 9 -20 17 2 11 -2 10 -22 -2 -21 -14 -25 -14 -30
-2 -9 25 -35 18 -29 -7 l5 -23 -16 23 c-17 22 -43 32 -30 11 5 -8 1 -8 -14 0
-29 16 -34 14 -27 -9 4 -12 2 -20 -5 -20 -6 0 -9 3 -7 8 3 4 -1 12 -8 19 -10
10 -14 10 -17 1 -3 -8 -14 -5 -33 10 -15 12 -23 22 -16 22 6 0 10 3 10 8 -1 4
0 9 1 12 1 3 3 27 4 53 1 42 -1 48 -16 44 -10 -3 -16 -2 -13 3 3 4 -2 11 -11
14 -23 9 -52 7 -59 -4z m42 -45 c-9 -19 -13 -21 -15 -9 -3 13 12 33 25 34 0 0
-4 -11 -10 -25z m-27 0 c0 -8 -4 -15 -9 -15 -13 0 -22 16 -14 24 11 11 23 6
23 -9z m66 -10 c-3 -22 -22 -38 -38 -32 -8 3 -4 8 12 15 14 6 21 11 17 11 -5
1 -5 6 -2 11 9 14 14 12 11 -5z m473 -132 c0 -11 -3 -13 -6 -5 -2 6 -10 9 -15
6 -7 -4 -8 -2 -4 4 11 18 26 14 25 -5z m-249 -17 c0 -8 -8 -14 -17 -14 -10 1
-29 -2 -43 -6 -18 -6 -22 -5 -15 3 6 6 23 12 38 13 15 1 27 6 27 10 0 4 2 8 5
8 3 0 5 -6 5 -14z m287 -8 c-3 -8 -6 -5 -6 6 -1 11 2 17 5 13 3 -3 4 -12 1
-19z m-377 2 c0 -5 -2 -10 -4 -10 -3 0 -8 5 -11 10 -3 6 -1 10 4 10 6 0 11 -4
11 -10z m412 -4 c7 4 8 2 4 -5 -9 -13 -26 -5 -25 12 0 9 2 8 6 -1 2 -6 10 -9
15 -6z m54 7 c-10 -11 -37 -12 -30 -2 3 5 12 9 21 9 9 0 13 -3 9 -7z m-189 -9
c-3 -3 -12 -4 -19 -1 -8 3 -5 6 6 6 11 1 17 -2 13 -5z m78 -24 c-3 -5 -16 -10
-28 -10 -18 0 -19 2 -7 10 20 13 43 13 35 0z m-76 -25 c8 -9 -73 -4 -94 5 -13
5 -1 7 35 4 30 -3 56 -7 59 -9z"/>
<path d="M3853 4203 c-7 -2 -13 -11 -13 -20 0 -10 6 -12 23 -8 22 7 22 7 2
-10 -11 -9 -14 -13 -6 -9 9 4 12 2 9 -7 -3 -8 -11 -13 -18 -11 -6 1 -10 -3 -8
-9 2 -7 11 -13 19 -15 7 -1 22 -5 31 -9 17 -7 44 26 31 39 -12 12 -15 58 -3
51 5 -3 10 -1 10 4 0 14 -13 14 -28 -1 -9 -9 -12 -9 -12 0 0 12 -15 14 -37 5z
m44 -58 c0 -8 -4 -15 -9 -15 -10 0 -11 14 -1 23 9 10 10 9 10 -8z"/>
<path d="M3938 4191 c-20 -24 -21 -35 -3 -41 14 -5 14 -9 -6 -33 -11 -16 -19
-30 -16 -33 3 -3 15 10 28 28 24 34 33 68 18 68 -5 0 -9 4 -9 9 0 5 8 7 19 4
10 -3 21 0 25 5 10 16 -41 10 -56 -7z"/>
<path d="M3415 3271 c-54 -24 -75 -58 -75 -119 0 -62 26 -92 115 -133 36 -16
74 -38 85 -49 30 -30 26 -76 -9 -111 -24 -24 -38 -29 -76 -29 -25 0 -61 6 -80
14 -38 16 -45 13 -45 -20 0 -50 166 -60 234 -14 42 29 56 57 56 111 0 67 -22
94 -106 135 -92 44 -114 64 -114 104 0 60 62 92 139 71 35 -9 46 -9 53 1 15
25 8 37 -29 47 -55 16 -103 13 -148 -8z"/>
<path d="M3879 3283 c-15 -2 -51 -18 -80 -36 -66 -39 -108 -112 -113 -197 -8
-117 39 -205 131 -247 48 -22 65 -25 137 -21 95 5 105 9 99 42 -5 22 -8 23
-36 15 -77 -22 -177 0 -220 49 -47 52 -60 167 -28 237 38 85 124 126 220 106
30 -6 56 -10 57 -8 1 1 5 12 8 24 6 19 2 23 -31 32 -37 11 -92 12 -144 4z"/>
<path d="M2867 3273 c-4 -3 -7 -116 -7 -250 l0 -243 93 0 c207 0 295 70 305
243 7 126 -38 207 -137 242 -44 15 -241 22 -254 8z m246 -66 c60 -33 82 -78
82 -167 0 -140 -69 -210 -208 -210 l-67 0 0 199 0 200 33 3 c55 7 120 -4 160
-25z"/>
<path d="M4800 3260 c-101 -47 -144 -117 -144 -235 -1 -93 20 -144 80 -193 50
-42 109 -56 203 -49 122 8 121 6 121 142 l0 115 -80 0 c-79 0 -80 0 -80 -25 0
-23 3 -25 50 -25 l50 0 0 -70 c0 -81 -9 -90 -89 -90 -63 0 -98 13 -139 53 -80
77 -68 244 23 313 31 23 50 29 106 32 38 2 82 0 98 -6 26 -9 30 -8 35 11 9 34
-9 42 -102 45 -71 2 -95 -1 -132 -18z"/>
<path d="M5100 3255 c0 -24 2 -25 75 -25 l75 0 0 -225 0 -225 30 0 30 0 0 225
0 225 79 0 c78 0 78 0 73 25 l-4 25 -179 0 -179 0 0 -25z"/>
<path d="M5528 3274 c-5 -4 -8 -117 -8 -251 l0 -243 83 0 c105 0 153 14 194
55 29 29 33 40 33 83 0 39 -6 57 -25 81 -14 16 -35 33 -45 36 -27 9 -25 17 9
37 60 33 58 137 -2 182 -24 17 -46 22 -130 24 -56 2 -105 0 -109 -4z m150 -40
c70 -14 97 -90 49 -138 -24 -24 -115 -45 -137 -31 -15 9 -13 162 3 168 18 8
50 8 85 1z m40 -234 c42 -26 56 -62 41 -107 -15 -48 -89 -81 -150 -68 l-29 7
0 94 0 94 53 0 c34 0 63 -7 85 -20z"/>
<path d="M5922 3033 l3 -248 28 -3 27 -3 0 250 0 251 -30 0 -30 0 2 -247z"/>
<path d="M6040 3255 c0 -23 3 -24 76 -27 l77 -3 1 -220 1 -220 30 0 30 0 3
223 2 222 75 0 c73 0 75 1 75 25 l0 25 -185 0 -185 0 0 -25z"/>
<path d="M4260 2980 c0 -19 7 -20 90 -20 83 0 90 1 90 20 0 19 -7 20 -90 20
-83 0 -90 -1 -90 -20z"/>
<path d="M3060 2371 l0 -79 -37 19 c-21 10 -43 19 -51 19 -29 0 -83 -34 -97
-61 -18 -34 -19 -118 -3 -154 24 -54 113 -73 162 -34 l26 20 0 -20 c0 -16 6
-21 26 -21 20 0 25 4 20 16 -3 9 -6 96 -6 195 0 172 -1 179 -20 179 -18 0 -20
-7 -20 -79z m-25 -106 c46 -45 29 -143 -28 -166 -57 -24 -112 31 -103 104 9
79 81 113 131 62z"/>
<path d="M3300 2255 c0 -188 1 -195 20 -195 14 0 20 7 20 21 l0 20 26 -20 c32
-25 99 -28 130 -6 75 52 68 202 -11 239 -42 20 -53 20 -98 -3 l-37 -19 0 79
c0 78 0 79 -25 79 l-25 0 0 -195z m175 10 c19 -18 25 -35 25 -69 0 -59 -7 -74
-41 -91 -39 -21 -56 -19 -84 10 -20 19 -25 34 -25 75 0 41 5 56 25 75 13 14
36 25 50 25 14 0 37 -11 50 -25z"/>
<path d="M5250 2255 l0 -195 25 0 25 0 0 195 0 195 -25 0 -25 0 0 -195z"/>
<path d="M6940 2255 l0 -195 30 0 30 0 0 195 0 195 -30 0 -30 0 0 -195z"/>
<path d="M1180 2245 c0 -177 1 -185 20 -185 17 0 19 8 22 73 l3 72 56 6 c71 8
106 31 119 80 8 29 7 46 -4 73 -20 48 -60 66 -146 66 l-70 0 0 -185z m160 125
c25 -25 26 -74 1 -99 -21 -21 -81 -37 -106 -27 -11 4 -15 22 -15 76 l0 70 50
0 c37 0 55 -5 70 -20z"/>
<path d="M4065 2416 c-75 -33 -110 -101 -103 -197 9 -124 111 -188 252 -159
l56 11 0 95 0 94 -65 0 c-63 0 -65 -1 -65 -25 0 -23 4 -25 41 -25 l40 0 -3
-52 -3 -53 -50 -3 c-67 -5 -109 18 -136 75 -16 34 -20 54 -14 88 13 87 81 133
180 121 47 -5 53 -4 58 13 3 12 -1 22 -10 25 -27 11 -148 5 -178 -8z"/>
<path d="M5770 2246 c0 -204 -3 -196 70 -196 79 0 143 21 182 59 86 87 72 242
-28 298 -32 19 -54 23 -131 23 l-93 0 0 -184z m212 107 c25 -26 32 -42 36 -85
8 -106 -45 -168 -145 -168 l-53 0 0 146 0 146 65 -4 c57 -3 70 -8 97 -35z"/>
<path d="M1513 2316 c-90 -41 -99 -197 -13 -241 16 -8 50 -15 76 -15 39 0 51
5 79 33 83 83 41 220 -71 233 -22 2 -53 -2 -71 -10z m92 -32 c23 -9 45 -57 45
-99 0 -43 -45 -95 -82 -95 -75 1 -109 118 -52 181 17 19 58 25 89 13z"/>
<path d="M2214 2316 c-52 -23 -74 -60 -74 -128 0 -55 3 -63 34 -94 30 -30 40
-34 89 -34 64 0 87 7 87 25 0 10 -13 12 -54 8 -51 -5 -57 -4 -85 25 -17 17
-31 40 -31 51 0 20 5 21 95 21 89 0 95 1 95 20 0 44 -29 90 -64 105 -43 18
-52 18 -92 1z m88 -43 c10 -9 18 -24 18 -35 0 -16 -9 -18 -70 -18 -38 0 -70 4
-70 9 0 4 9 20 21 35 24 31 72 35 101 9z"/>
<path d="M2512 2320 c-12 -5 -25 -16 -28 -25 -3 -8 -10 -12 -16 -9 -5 3 -7 12
-4 20 4 9 -2 14 -17 14 -22 0 -22 -1 -19 -130 3 -119 5 -130 22 -130 16 0 18
10 22 89 3 98 20 131 65 131 19 0 24 5 21 22 -4 25 -15 30 -46 18z"/>
<path d="M2680 2323 c-68 -22 -90 -56 -90 -139 0 -50 3 -59 34 -90 30 -30 40
-34 89 -34 64 0 87 7 87 25 0 10 -13 12 -54 8 -51 -5 -57 -4 -85 25 -17 17
-31 40 -31 51 0 20 5 21 96 21 l96 0 -6 28 c-14 57 -29 81 -61 96 -34 16 -49
18 -75 9z m72 -50 c10 -9 18 -24 18 -35 0 -16 -9 -18 -70 -18 -38 0 -70 4 -70
9 0 4 9 20 21 35 24 31 72 35 101 9z"/>
<path d="M4379 2307 c-48 -32 -60 -62 -56 -131 3 -51 8 -63 35 -87 60 -54 156
-45 199 20 26 39 31 120 9 159 -34 62 -125 81 -187 39z m114 -37 c77 -61 14
-208 -71 -168 -58 28 -68 122 -17 165 32 28 55 29 88 3z"/>
<path d="M4695 2320 c-11 -4 -31 -20 -45 -35 -22 -23 -25 -36 -25 -97 0 -66 2
-71 32 -98 91 -82 223 -21 223 102 0 60 -23 102 -66 123 -35 16 -87 19 -119 5z
m98 -50 c75 -59 13 -208 -70 -168 -56 27 -68 115 -22 164 27 29 58 31 92 4z"/>
<path d="M4982 2310 c-76 -46 -82 -184 -11 -234 30 -20 98 -21 127 0 21 14 22
14 22 -9 0 -13 -9 -36 -21 -51 -17 -21 -29 -26 -65 -26 -25 0 -54 4 -64 10
-14 7 -19 5 -23 -10 -7 -28 26 -44 91 -43 58 0 98 21 119 64 8 16 13 74 13
172 0 140 -1 147 -20 147 -11 0 -20 -7 -20 -15 0 -19 -9 -19 -34 0 -28 21 -75
19 -114 -5z m113 -45 c19 -18 25 -35 25 -68 0 -83 -64 -125 -117 -75 -33 31
-33 109 2 143 13 14 34 25 45 25 12 0 32 -11 45 -25z"/>
<path d="M5430 2317 c-67 -34 -92 -141 -47 -208 29 -44 91 -65 150 -53 32 7
42 14 42 29 0 13 -6 19 -15 17 -8 -2 -35 -4 -59 -4 -36 -1 -49 4 -68 26 -42
49 -33 56 67 56 103 0 110 6 91 71 -20 66 -98 98 -161 66z m92 -44 c10 -9 18
-24 18 -35 0 -16 -8 -18 -65 -18 -36 0 -65 4 -65 9 0 4 9 20 21 35 24 30 63
34 91 9z"/>
<path d="M6159 2291 c-37 -36 -39 -42 -39 -99 0 -50 4 -66 26 -91 33 -40 86
-56 145 -44 34 7 44 13 44 28 0 13 -6 19 -15 17 -8 -2 -35 -4 -58 -5 -37 -2
-48 3 -68 26 -43 50 -35 57 66 57 l90 0 0 35 c0 73 -43 115 -116 115 -29 0
-44 -8 -75 -39z m123 -18 c10 -9 18 -24 18 -35 0 -16 -8 -18 -65 -18 -36 0
-65 4 -65 9 0 4 9 20 21 35 24 30 63 34 91 9z"/>
<path d="M6380 2319 c0 -7 21 -68 47 -136 45 -115 50 -123 75 -123 24 0 30 9
77 130 28 71 51 132 51 135 0 4 -12 5 -27 3 -26 -3 -31 -11 -62 -101 -18 -54
-36 -95 -40 -92 -3 4 -20 48 -37 98 -28 83 -33 92 -57 95 -17 2 -27 -2 -27 -9z"/>
<path d="M6725 2320 c-11 -4 -31 -20 -45 -35 -22 -23 -25 -36 -25 -95 0 -59 3
-72 24 -94 34 -36 86 -50 142 -39 34 7 44 13 44 28 0 13 -6 19 -15 17 -8 -2
-35 -4 -58 -5 -37 -2 -48 3 -68 26 -42 49 -34 56 69 59 l92 3 -3 35 c-1 19 -8
46 -14 58 -23 44 -91 64 -143 42z m87 -47 c10 -9 18 -24 18 -35 0 -16 -8 -18
-65 -18 -36 0 -65 4 -65 9 0 4 9 20 21 35 24 30 63 34 91 9z"/>
<path d="M7113 2310 c-93 -56 -81 -210 19 -248 117 -45 222 74 170 192 -33 73
-119 99 -189 56z m115 -40 c74 -69 8 -209 -78 -165 -55 28 -62 126 -13 165 33
26 63 25 91 0z"/>
<path d="M7370 2140 l0 -190 30 0 30 0 0 65 0 65 35 -17 c32 -15 40 -16 77 -3
52 19 79 55 85 114 11 94 -49 164 -129 153 -22 -3 -48 -13 -59 -23 -18 -16
-19 -16 -19 4 0 17 -6 22 -25 22 l-25 0 0 -190z m175 125 c20 -19 25 -34 25
-75 0 -59 -24 -90 -70 -90 -46 0 -70 31 -70 90 0 41 5 56 25 75 13 14 34 25
45 25 12 0 32 -11 45 -25z"/>
<path d="M7724 2311 c-32 -19 -64 -82 -64 -124 0 -12 9 -40 19 -63 24 -53 82
-79 151 -69 56 9 59 11 53 34 -4 16 -10 17 -41 10 -64 -15 -122 16 -122 65 0
13 15 16 90 16 l90 0 0 41 c0 33 -6 47 -34 75 -40 40 -92 46 -142 15z m110
-43 c29 -41 21 -48 -49 -48 -71 0 -80 10 -45 48 27 29 74 29 94 0z"/>
<path d="M7960 2195 l0 -135 24 0 c23 0 24 3 28 89 3 98 20 131 65 131 18 0
23 5 23 25 0 19 -5 25 -23 25 -12 0 -32 -7 -44 -15 -19 -13 -22 -13 -27 0 -3
8 -15 15 -26 15 -19 0 -20 -6 -20 -135z"/>
<path d="M1730 2313 c0 -4 16 -63 36 -130 33 -109 40 -123 59 -123 19 0 26 14
55 103 l34 102 32 -100 c28 -87 35 -100 55 -100 20 0 27 15 65 128 l43 127
-24 0 c-21 0 -27 -9 -44 -68 -12 -38 -24 -83 -27 -100 -6 -31 -24 -45 -24 -19
0 6 -12 51 -26 100 -23 75 -30 87 -49 87 -19 0 -26 -13 -50 -92 -15 -51 -30
-97 -33 -102 -3 -6 -18 35 -32 90 -23 84 -30 99 -48 102 -12 2 -22 0 -22 -5z"/>
<path d="M3584 2302 c4 -10 26 -68 50 -128 43 -106 44 -110 28 -138 -10 -16
-29 -36 -44 -45 -31 -18 -32 -20 -19 -40 14 -22 71 17 100 68 18 33 121 286
121 298 0 2 -11 3 -24 3 -22 0 -28 -10 -59 -102 -19 -57 -37 -96 -40 -88 -64
180 -69 190 -94 190 -19 0 -23 -4 -19 -18z"/>
</g>
</svg>
