<?xml version="1.0" standalone="no"?>
<!DOCTYPE svg PUBLIC "-//W3C//DTD SVG 20010904//EN"
 "http://www.w3.org/TR/2001/REC-SVG-20010904/DTD/svg10.dtd">
<svg version="1.0" xmlns="http://www.w3.org/2000/svg"
 width="854.000000pt" height="664.000000pt" viewBox="0 0 854.000000 664.000000"
 preserveAspectRatio="xMidYMid meet">

<g transform="translate(0.000000,664.000000) scale(0.100000,-0.100000)"
fill="#000000" stroke="none">
<path d="M253 3225 l0 -3195 4084 0 4083 0 0 3195 0 3195 -4083 0 -4084 0 0
-3195z m8157 2130 l0 -1055 -4075 0 -4075 0 0 1055 0 1055 4075 0 4075 0 0
-1055z m-5428 -1612 c17 -15 18 -44 18 -515 0 -325 -4 -506 -10 -519 -10 -18
-27 -19 -517 -19 -457 0 -508 2 -525 17 -17 15 -18 44 -18 516 0 452 2 502 17
519 15 17 44 18 516 18 452 0 502 -2 519 -17z m1607 -169 c12 -15 21 -32 21
-39 0 -7 -9 -24 -21 -39 -25 -32 -64 -34 -96 -4 -29 27 -29 55 -1 85 29 31 71
30 97 -3z m-1179 -134 l0 -140 160 0 160 0 0 140 0 141 63 -3 62 -3 0 -335 0
-335 -62 -3 -63 -3 0 146 0 145 -160 0 -160 0 0 -145 0 -145 -65 0 -65 0 0
340 0 340 65 0 65 0 0 -140z m1960 15 l0 -126 35 35 c80 80 229 54 276 -48 16
-35 19 -67 19 -228 l0 -188 -60 0 -60 0 0 165 c0 179 -6 207 -51 231 -36 18
-63 18 -100 -2 -50 -25 -59 -64 -59 -239 l0 -155 -60 0 -60 0 0 340 0 340 60
0 60 0 0 -125z m-1089 -68 c66 -35 105 -92 119 -176 6 -39 9 -75 5 -81 -4 -6
-69 -10 -176 -10 -164 0 -169 -1 -169 -20 0 -29 26 -76 52 -94 13 -9 43 -16
71 -16 41 0 53 5 79 30 25 26 37 30 84 30 30 0 54 -2 54 -5 0 -11 -33 -70 -49
-89 -46 -52 -153 -77 -242 -56 -66 16 -138 83 -157 146 -15 52 -16 155 0 205
15 52 73 117 122 140 60 27 151 25 207 -4z m784 0 c110 -62 147 -244 79 -385
-31 -63 -79 -99 -147 -108 -57 -8 -127 16 -157 53 l-20 26 0 -117 0 -116 -65
0 -65 0 0 330 0 330 65 0 65 0 0 -32 0 -32 28 27 c36 34 67 46 127 46 34 1 63
-6 90 -22z m1033 8 c86 -37 142 -127 142 -232 l0 -43 -175 0 c-108 0 -175 -4
-175 -10 0 -30 36 -92 61 -105 53 -28 147 -11 162 30 7 18 117 22 117 4 0 -43
-72 -116 -134 -134 -166 -50 -302 37 -322 205 -20 169 80 300 228 300 32 0 75
-7 96 -15z m569 -2 c19 -9 47 -34 61 -56 27 -40 27 -43 30 -239 l4 -199 -64 3
-63 3 -5 182 c-6 204 -8 211 -76 219 -50 6 -84 -12 -106 -56 -15 -29 -18 -63
-18 -192 l0 -158 -60 0 -60 0 0 250 0 250 60 0 60 0 0 -36 0 -37 22 28 c12 15
35 33 52 41 43 18 121 17 163 -3z m-2067 -243 l0 -250 -60 0 -60 0 0 250 0
250 60 0 60 0 0 -250z m-2302 -1692 c17 -17 17 -719 0 -736 -16 -16 -110 -16
-126 0 -17 17 -17 719 0 736 7 7 35 12 63 12 28 0 56 -5 63 -12z m372 -7 c5
-11 10 -67 10 -125 0 -82 -3 -108 -16 -120 -19 -19 -104 -22 -122 -4 -17 17
-17 254 1 261 6 3 35 6 64 6 42 1 54 -3 63 -18z m1908 3 c15 -10 22 -25 22
-46 0 -66 -69 -92 -109 -41 -24 30 -20 58 11 86 25 21 47 22 76 1z m-1178
-144 l0 -140 165 0 165 0 0 140 0 140 60 0 60 0 0 -340 0 -340 -60 0 -60 0 0
145 0 145 -165 0 -165 0 0 -145 0 -145 -60 0 -60 0 0 340 0 340 60 0 60 0 0
-140z m1970 10 l0 -131 31 36 c55 63 166 71 230 17 60 -50 69 -86 69 -289 l0
-183 -59 0 -60 0 -3 180 c-3 166 -5 181 -24 200 -25 25 -80 35 -116 21 -16 -6
-37 -25 -48 -43 -18 -29 -20 -51 -20 -195 l0 -163 -60 0 -60 0 0 333 c0 184 3
337 7 340 3 4 30 7 60 7 l53 0 0 -130z m-1125 -51 c53 -15 129 -91 144 -144 6
-22 11 -61 11 -87 l0 -48 -170 0 -170 0 0 -28 c0 -51 43 -97 100 -107 45 -8
89 8 116 41 18 22 27 25 73 22 l51 -3 -22 -45 c-16 -31 -38 -54 -72 -75 -43
-26 -58 -29 -125 -30 -108 0 -172 37 -216 125 -23 45 -31 145 -15 209 32 136
158 208 295 170z m793 -5 c43 -17 88 -57 108 -95 7 -15 18 -56 24 -91 19 -119
-21 -242 -94 -287 -77 -48 -189 -33 -241 32 l-25 32 0 -122 0 -123 -55 0 -55
0 0 330 0 330 55 0 55 0 0 -42 0 -42 38 36 c60 59 119 72 190 42z m1080 -13
c73 -37 122 -131 122 -231 l0 -30 -176 0 -176 0 6 -32 c9 -47 33 -78 73 -94
50 -21 106 -10 137 27 21 25 32 29 75 29 57 0 62 -8 32 -56 -48 -78 -153 -118
-253 -96 -120 27 -182 113 -182 251 1 121 54 209 149 246 52 20 139 13 193
-14z m561 1 c67 -50 83 -120 79 -337 l-3 -140 -57 -3 -58 -3 0 161 c0 181 -10
223 -57 241 -40 15 -93 4 -122 -26 -26 -25 -26 -28 -29 -200 l-3 -175 -60 0
-59 0 0 250 0 250 60 0 60 0 0 -37 0 -37 31 32 c17 18 46 36 63 42 44 13 126
4 155 -18z m-2079 -232 l0 -250 -60 0 -60 0 0 250 0 250 60 0 60 0 0 -250z
m-1690 121 c15 -28 12 -97 -4 -110 -9 -8 -94 -11 -287 -9 l-274 3 -3 54 c-2
29 -1 60 2 67 4 11 57 14 280 14 262 0 276 -1 286 -19z m-246 -167 c13 -12 16
-38 16 -120 0 -132 -6 -144 -70 -144 -82 0 -80 -4 -80 136 0 107 2 124 18 133
27 16 98 13 116 -5z"/>
<path d="M1967 5883 c-10 -3 -22 -16 -28 -29 -5 -15 -9 -227 -9 -500 0 -474 2
-505 34 -526 6 -4 233 -8 503 -8 480 0 494 1 513 20 19 19 20 33 20 515 0 482
-1 496 -20 515 -19 19 -33 20 -507 19 -269 -1 -496 -3 -506 -6z m332 -167 c8
-9 11 -116 9 -372 l-3 -359 -70 0 -70 0 -3 360 c-1 198 0 366 3 372 6 18 119
17 134 -1z m369 2 c18 -18 16 -232 -2 -247 -9 -7 -38 -11 -73 -9 l-58 3 -3
119 c-1 66 0 126 2 133 7 17 117 18 134 1z m242 -307 c14 -27 13 -94 -2 -114
-12 -16 -38 -17 -288 -15 l-275 3 -3 58 c-2 35 2 64 9 73 9 11 61 14 280 14
255 0 269 -1 279 -19z m-242 -173 c14 -14 17 -225 3 -246 -5 -9 -27 -12 -72
-10 l-64 3 -3 119 c-1 66 0 126 2 133 7 17 117 18 134 1z"/>
<path d="M4502 5714 c-33 -23 -27 -83 9 -103 22 -12 29 -12 55 0 40 19 47 79
12 103 -12 9 -29 16 -38 16 -9 0 -26 -7 -38 -16z"/>
<path d="M3280 5375 l0 -335 60 0 60 0 0 145 0 145 165 0 165 0 0 -145 0 -145
60 0 60 0 0 335 0 335 -60 0 -60 0 0 -140 0 -140 -165 0 -165 0 0 140 0 140
-60 0 -60 0 0 -335z"/>
<path d="M5250 5375 l0 -335 60 0 60 0 0 154 c0 84 5 167 11 184 14 40 49 62
99 62 33 0 48 -6 71 -29 l29 -29 0 -171 0 -171 60 0 60 0 0 178 c0 192 -9 231
-61 279 -70 63 -181 56 -242 -16 l-27 -33 0 131 0 131 -60 0 -60 0 0 -335z"/>
<path d="M4092 5529 c-18 -5 -52 -29 -76 -52 -124 -120 -89 -371 60 -433 48
-20 160 -18 210 5 44 20 104 85 104 113 0 15 -9 18 -50 18 -36 0 -52 -4 -57
-15 -9 -25 -58 -45 -107 -45 -36 0 -52 6 -76 28 -29 25 -55 93 -42 106 3 4 81
6 174 6 l168 0 0 43 c0 167 -144 273 -308 226z m139 -95 c27 -14 59 -65 59
-94 0 -6 -43 -10 -115 -10 -126 0 -130 2 -100 60 30 59 94 77 156 44z"/>
<path d="M4895 5524 c-16 -8 -42 -30 -57 -47 l-28 -31 0 42 0 42 -55 0 -55 0
0 -330 0 -330 55 0 55 0 0 121 0 121 40 -36 c47 -42 73 -50 145 -44 71 6 119
42 152 115 22 47 24 65 21 146 -4 113 -30 175 -90 215 -50 32 -138 41 -183 16z
m115 -112 c62 -63 62 -194 0 -257 -43 -42 -105 -43 -149 -1 -52 50 -65 138
-32 212 24 53 55 74 109 74 35 0 49 -6 72 -28z"/>
<path d="M5902 5514 c-83 -41 -123 -113 -123 -224 -1 -175 88 -268 248 -258
104 6 175 51 198 126 6 21 4 22 -44 22 -42 0 -54 -5 -79 -30 -26 -26 -38 -30
-84 -30 -33 0 -62 6 -77 16 -25 18 -51 71 -51 104 0 19 6 20 176 20 l176 0 -7
58 c-4 31 -15 75 -24 97 -49 112 -191 158 -309 99z m184 -98 c21 -21 34 -44
34 -60 l0 -26 -115 0 c-73 0 -115 4 -115 10 0 24 40 87 62 97 13 7 40 12 62
12 30 1 45 -6 72 -33z"/>
<path d="M6505 5524 c-16 -9 -40 -28 -52 -42 l-23 -27 0 38 0 37 -60 0 -60 0
0 -245 0 -245 60 0 60 0 0 160 c0 209 14 240 109 240 28 0 48 -7 68 -24 l28
-24 3 -176 3 -176 55 0 54 0 0 187 c0 168 -2 191 -21 229 -35 73 -148 107
-224 68z"/>
<path d="M4480 5285 l0 -245 60 0 60 0 0 245 0 245 -60 0 -60 0 0 -245z"/>
<path d="M2170 3220 l0 -371 63 3 62 3 3 368 2 367 -65 0 -65 0 0 -370z"/>
<path d="M2537 3584 c-4 -4 -7 -58 -7 -119 0 -132 3 -138 82 -133 l53 3 0 125
0 125 -60 3 c-34 2 -64 0 -68 -4z"/>
<path d="M2346 3274 c-10 -27 -7 -99 6 -112 14 -14 524 -17 546 -3 9 5 12 26
10 67 l-3 59 -276 3 c-246 2 -277 1 -283 -14z"/>
<path d="M2537 3104 c-10 -10 -9 -226 2 -242 5 -9 26 -12 67 -10 l59 3 0 125
0 125 -60 3 c-34 2 -64 0 -68 -4z"/>
<path d="M4128 3304 c-34 -14 -68 -61 -68 -93 0 -7 38 -11 114 -11 l115 0 -9
31 c-12 41 -28 59 -67 76 -39 16 -39 16 -85 -3z"/>
<path d="M4890 3297 c-46 -23 -70 -73 -70 -146 0 -101 40 -153 116 -153 73 0
114 57 114 157 0 73 -28 129 -71 144 -41 14 -58 14 -89 -2z"/>
<path d="M5965 3306 c-36 -16 -48 -30 -63 -73 l-11 -33 115 0 c72 0 114 4 114
10 0 24 -30 79 -47 88 -34 18 -78 21 -108 8z"/>
<path d="M4134 1181 c-29 -12 -74 -68 -74 -92 0 -18 8 -19 115 -19 63 0 115 2
115 5 0 16 -30 72 -46 87 -23 20 -82 30 -110 19z"/>
<path d="M4860 1143 c-94 -95 -44 -283 76 -283 72 0 116 59 117 154 1 105 -45
166 -124 166 -23 0 -41 -10 -69 -37z"/>
<path d="M5963 1175 c-32 -14 -56 -42 -68 -82 -6 -23 -6 -23 109 -23 98 0 116
2 116 15 0 32 -32 77 -65 91 -42 17 -51 17 -92 -1z"/>
</g>
</svg>
