<?xml version="1.0" standalone="no"?>
<!DOCTYPE svg PUBLIC "-//W3C//DTD SVG 20010904//EN"
 "http://www.w3.org/TR/2001/REC-SVG-20010904/DTD/svg10.dtd">
<svg version="1.0" xmlns="http://www.w3.org/2000/svg"
 width="900.000000pt" height="900.000000pt" viewBox="0 0 900.000000 900.000000"
 preserveAspectRatio="xMidYMid meet">

<g transform="translate(0.000000,900.000000) scale(0.100000,-0.100000)"
fill="#000000" stroke="none">
<path d="M3651 6503 c-41 -4 -178 -69 -246 -117 -16 -11 -51 -32 -76 -46 -66
-35 -259 -145 -409 -232 -52 -30 -122 -69 -155 -88 -33 -18 -67 -38 -75 -45
-8 -7 -37 -25 -65 -39 -27 -14 -57 -30 -65 -36 -8 -5 -82 -49 -165 -97 -82
-48 -157 -92 -166 -98 -9 -5 -49 -29 -88 -53 -39 -24 -71 -46 -71 -50 0 -4
-12 -13 -27 -20 -31 -14 -103 -102 -103 -125 0 -9 -4 -19 -10 -22 -5 -3 -10
-14 -10 -23 0 -9 -7 -29 -15 -45 -15 -30 -14 -130 3 -182 15 -45 60 -126 88
-158 20 -24 27 -27 40 -17 8 7 18 10 21 6 4 -4 1 -11 -7 -17 -13 -8 -11 -12
10 -29 14 -11 31 -20 39 -20 7 0 29 -13 48 -30 18 -16 42 -30 52 -30 10 0 21
-7 25 -15 3 -8 11 -15 17 -15 7 0 21 -7 31 -17 10 -9 20 -14 23 -11 8 8 -6 38
-17 38 -10 0 -38 25 -38 34 0 13 34 5 46 -11 7 -10 18 -18 26 -18 7 0 15 -11
16 -24 2 -15 0 -21 -7 -17 -16 10 -13 0 5 -18 27 -27 36 -19 29 26 -4 25 -17
50 -33 65 -24 22 -24 23 -4 23 12 0 30 9 40 21 20 20 36 24 85 16 40 -6 40
-10 -4 -34 -21 -12 -39 -17 -39 -12 0 5 -9 9 -20 9 -11 0 -20 -7 -20 -15 0 -8
6 -15 14 -15 11 0 13 -9 9 -35 -6 -35 -5 -35 26 -29 19 4 31 2 31 -4 0 -16
-18 -24 -25 -12 -6 10 -34 -15 -35 -31 0 -10 97 -59 115 -59 9 0 13 -5 10 -10
-4 -6 9 -17 29 -25 19 -8 37 -19 41 -25 3 -5 14 -10 23 -10 10 0 33 -13 52
-28 19 -16 71 -48 115 -71 44 -24 87 -49 95 -56 8 -7 42 -27 74 -44 59 -31 59
-31 78 -11 19 20 44 28 34 11 -4 -5 3 -7 14 -4 11 3 20 0 20 -6 0 -9 -28 -16
-52 -12 -5 0 -8 -6 -8 -14 0 -19 32 -33 38 -17 6 19 34 14 30 -5 -3 -23 9 -43
28 -43 7 0 34 -16 60 -35 25 -19 52 -35 60 -35 8 0 14 -4 14 -8 0 -4 15 -15
33 -23 43 -21 150 -80 222 -124 32 -19 66 -35 75 -35 9 0 22 -6 29 -12 8 -9
45 -13 114 -12 97 1 107 3 167 35 64 33 170 130 170 155 0 7 -6 15 -12 17 -7
3 -3 6 10 6 15 1 22 7 22 21 0 11 -4 20 -10 20 -5 0 -10 5 -10 10 0 6 3 9 8 9
28 -5 30 5 29 109 -2 79 -6 115 -19 137 -9 17 -24 46 -33 65 -19 41 -83 110
-102 110 -8 0 -16 7 -19 15 -4 8 -13 15 -22 15 -8 0 -29 10 -46 23 -38 28 -94
57 -113 57 -22 0 -15 -18 9 -22 28 -4 36 -28 9 -28 -12 0 -21 6 -21 13 -1 6
-11 0 -23 -15 -17 -21 -28 -25 -50 -21 -38 8 -28 27 15 31 29 3 35 7 31 21 -3
10 0 22 7 26 14 9 1 19 -90 67 -36 19 -71 33 -79 30 -10 -3 -12 0 -7 13 5 14
2 16 -14 12 -12 -3 -21 1 -25 12 -3 9 -24 25 -48 36 -23 11 -48 26 -55 32 -7
7 -17 13 -22 13 -5 0 -29 14 -54 30 -24 17 -59 37 -78 45 -33 16 -86 46 -128
75 -31 22 -20 52 28 74 20 10 80 44 132 76 52 31 160 94 240 139 80 45 152 86
160 91 81 49 223 130 227 130 19 0 108 82 138 127 51 77 65 125 65 228 0 83
-3 97 -35 164 -62 129 -180 214 -310 223 -39 3 -90 3 -114 1z m-1431 -843 c0
-5 -5 -10 -11 -10 -5 0 -7 5 -4 10 3 6 8 10 11 10 2 0 4 -4 4 -10z m-35 -30
c-3 -5 -19 -15 -35 -24 -27 -13 -30 -13 -30 1 0 9 3 13 7 10 3 -4 12 2 20 13
13 18 49 18 38 0z m70 -7 c-2 -40 -14 -63 -31 -56 -8 3 -14 0 -14 -6 0 -6 -9
-11 -20 -11 -28 0 -25 16 6 36 22 15 27 15 35 3 10 -16 12 -7 9 34 -1 15 2 27
7 27 5 0 9 -12 8 -27z m-128 -97 c-24 -13 -49 10 -27 24 11 7 11 10 2 10 -7 0
-10 5 -7 11 4 6 15 1 29 -13 20 -22 21 -24 3 -32z m-60 38 c-3 -3 -12 -4 -19
-1 -8 3 -5 6 6 6 11 1 17 -2 13 -5z m-50 -59 c-24 -24 -29 -18 -10 11 9 15 19
22 21 15 2 -6 -3 -18 -11 -26z m89 -21 c-1 -1 -20 -4 -43 -7 -36 -4 -40 -3
-28 9 7 8 18 14 24 14 6 0 11 5 11 10 0 6 8 2 18 -7 10 -10 18 -19 18 -19z
m167 11 c26 0 47 -3 47 -7 0 -5 -36 -8 -79 -8 -52 0 -81 -4 -83 -12 -3 -7 -12
-9 -23 -4 -17 6 -16 9 11 26 19 13 37 17 54 12 14 -3 46 -7 73 -7z m-283 -45
c0 -33 -11 -38 -30 -15 -15 18 -6 45 15 45 10 0 15 -10 15 -30z m110 -4 c0
-17 -52 -37 -70 -26 -18 11 -3 29 20 23 11 -3 20 0 20 6 0 6 7 11 15 11 8 0
15 -6 15 -14z m188 7 c-10 -2 -26 -2 -35 0 -10 3 -2 5 17 5 19 0 27 -2 18 -5z
m137 -51 c-3 -3 -11 0 -18 7 -9 10 -8 11 6 5 10 -3 15 -9 12 -12z m-265 -7 c0
-8 -9 -15 -20 -15 -22 0 -27 15 -7 23 21 9 27 7 27 -8z m-197 -16 c-3 -12 -11
-18 -19 -15 -8 3 -13 2 -13 -2 4 -24 -2 -52 -11 -47 -9 6 -6 24 13 63 13 28
37 30 30 1z m50 1 c3 -11 1 -23 -4 -26 -5 -3 -9 6 -9 20 0 31 6 34 13 6z m57
-29 c0 -6 -4 -13 -10 -16 -5 -3 -10 1 -10 9 0 9 5 16 10 16 6 0 10 -4 10 -9z
m90 -1 c0 -5 -2 -10 -4 -10 -3 0 -8 5 -11 10 -3 6 -1 10 4 10 6 0 11 -4 11
-10z m739 -8 c8 -14 6 -19 -5 -19 -7 0 -14 9 -14 19 0 10 2 18 5 18 2 0 9 -8
14 -18z m-902 -16 c-7 -19 33 -52 43 -36 5 8 13 9 21 4 7 -4 32 -7 56 -5 24 1
43 -2 43 -7 0 -14 -88 -20 -102 -7 -7 7 -12 6 -15 -2 -7 -19 -16 -16 -50 15
-31 27 -34 52 -6 52 9 0 13 -6 10 -14z m803 -1 c0 -11 -11 -15 -41 -15 -27 0
-38 4 -33 11 4 6 19 9 36 5 18 -3 27 -2 23 4 -3 6 -1 10 4 10 6 0 11 -7 11
-15z m-860 -60 c-9 -23 -7 -25 23 -25 24 0 28 -3 17 -10 -21 -14 -60 -12 -61
3 -4 36 8 70 21 62 6 -4 6 -15 0 -30z m540 -16 c0 -13 238 -11 242 2 2 7 17 8
43 3 22 -4 34 -9 28 -11 -7 -3 -13 -13 -13 -24 0 -10 -4 -19 -10 -19 -5 0 -10
9 -10 20 0 13 -7 20 -20 20 -17 0 -20 -7 -20 -40 l0 -40 50 0 c43 0 50 3 50
20 0 27 18 25 22 -2 2 -13 10 -23 18 -23 9 0 14 7 12 18 -2 14 5 17 43 17 25
0 45 -4 45 -9 0 -15 -31 -21 -52 -10 -15 8 -19 8 -14 0 4 -6 2 -11 -3 -11 -7
0 -11 -30 -11 -80 0 -47 -4 -80 -10 -80 -5 0 -10 -9 -10 -20 0 -16 -7 -20 -30
-20 -30 0 -41 15 -18 22 9 3 8 9 -4 21 -18 18 -88 24 -88 7 0 -5 -18 -10 -40
-10 -33 0 -40 -3 -40 -20 0 -27 -28 -26 -53 3 -13 15 -21 18 -24 10 -8 -22
-31 -14 -37 12 -3 13 -15 29 -26 35 -11 6 -20 17 -20 25 0 11 -11 15 -39 15
-40 0 -40 0 -43 43 -2 23 -2 65 0 92 l4 50 39 -3 c21 -2 39 -8 39 -13z m143
14 c-13 -2 -33 -2 -45 0 -13 2 -3 4 22 4 25 0 35 -2 23 -4z m352 -13 c3 -5 1
-10 -4 -10 -6 0 -11 5 -11 10 0 6 2 10 4 10 3 0 8 -4 11 -10z m-950 -72 c1 -9
-6 -19 -16 -21 -15 -4 -17 -12 -12 -41 6 -41 -12 -51 -19 -11 -5 26 12 95 24
95 3 0 4 10 2 23 -4 20 -3 20 7 -3 6 -14 13 -33 14 -42z m1100 31 c5 -5 -2 -9
-18 -9 -15 0 -27 -4 -27 -10 0 -5 -4 -10 -10 -10 -11 0 -14 33 -3 43 8 8 43
-1 58 -14z m-1163 -51 c-15 -15 -26 -4 -18 18 5 13 9 15 18 6 9 -9 9 -15 0
-24z m1205 0 c13 -18 11 -40 -4 -45 -12 -4 -15 0 -17 30 -1 6 -5 15 -11 19 -6
5 -3 8 6 8 9 0 21 -6 26 -12z m51 3 c10 -6 10 -10 -1 -20 -12 -9 -16 -7 -20 9
-5 21 0 25 21 11z m-1144 -32 c10 -49 7 -59 -14 -59 -12 0 -17 5 -14 13 3 8 0
25 -5 39 -5 14 -7 29 -4 32 15 15 31 4 37 -25z m44 1 c29 -39 28 -44 -8 -23
-16 9 -30 25 -30 35 0 26 13 22 38 -12z m22 9 c0 -11 -4 -17 -10 -14 -5 3 -10
13 -10 21 0 8 5 14 10 14 6 0 10 -9 10 -21z m955 -16 c15 -20 -2 -43 -32 -43
-17 1 -17 1 0 11 13 8 15 14 7 30 -14 25 7 27 25 2z m185 2 c19 -23 8 -26 -20
-5 -19 15 -21 20 -9 20 9 0 22 -7 29 -15z m-900 -30 c0 -8 -4 -15 -10 -15 -5
0 -10 7 -10 15 0 8 5 15 10 15 6 0 10 -7 10 -15z m1007 -31 c14 -13 32 -24 39
-24 8 0 14 -4 14 -8 0 -14 -48 -32 -66 -25 -15 5 -15 7 0 15 15 9 14 12 -9 34
-14 13 -30 24 -36 24 -5 0 -9 4 -9 9 0 15 40 0 67 -25z m-122 16 c-27 -12 -43
-12 -25 0 8 5 22 9 30 9 10 0 8 -3 -5 -9z m-1237 -33 c5 -24 -15 -21 -21 4 -3
13 -1 19 6 16 7 -2 13 -11 15 -20z m1304 -1 c10 -16 -1 -26 -28 -26 -19 0 -24
5 -24 24 0 20 4 23 23 18 12 -3 25 -10 29 -16z m-1194 -8 c-7 -19 -38 -22 -38
-4 0 10 9 16 21 16 12 0 19 -5 17 -12z m-38 -29 c0 -5 -4 -9 -10 -9 -5 0 -10
7 -10 16 0 8 5 12 10 9 6 -3 10 -10 10 -16z m1380 -10 c0 -11 -4 -17 -10 -14
-5 3 -10 13 -10 21 0 8 5 14 10 14 6 0 10 -9 10 -21z m-1295 -9 c-28 -12 -47
-12 -40 0 3 6 18 10 33 9 24 0 25 -1 7 -9z m1175 -20 c0 -22 -3 -23 -51 -13
l-34 7 30 12 c42 18 55 17 55 -6z m-1070 -22 c0 -4 -16 -8 -35 -8 -19 0 -37
-6 -42 -15 -9 -15 -20 -11 -41 16 -10 14 -9 16 11 12 13 -3 29 2 35 10 10 12
19 13 42 4 17 -6 30 -15 30 -19z m1200 10 c0 -19 -18 -43 -25 -36 -4 3 -2 16
5 27 12 24 20 27 20 9z m-50 -10 c0 -4 -7 -8 -15 -8 -8 0 -15 4 -15 8 0 5 7 9
15 9 8 0 15 -4 15 -9z m-883 -35 c-3 -3 -22 -5 -41 -6 -28 -1 -36 -5 -36 -19
0 -10 -7 -18 -16 -18 -15 0 -15 2 -2 23 10 15 27 23 52 25 25 2 36 8 37 20 1
15 2 14 6 -1 3 -10 2 -21 0 -24z m203 30 c-14 -3 -28 -10 -32 -17 -5 -7 -8 -5
-8 7 0 13 8 17 33 16 27 -2 28 -2 7 -6z m526 -8 c9 -8 29 -15 45 -15 26 0 29
-3 29 -30 0 -20 5 -30 15 -30 12 0 15 -17 15 -90 0 -65 -3 -90 -12 -91 -7 0
-37 0 -65 1 -32 1 -53 -3 -53 -9 0 -6 21 -11 50 -11 28 0 50 -4 50 -10 0 -5
-9 -10 -20 -10 -11 0 -20 -4 -20 -10 0 -6 -27 -10 -60 -10 -45 0 -60 4 -60 14
0 9 7 12 20 9 11 -3 20 0 20 6 0 6 -7 11 -15 11 -8 0 -15 4 -15 8 0 4 -16 9
-35 10 -19 2 -35 -2 -35 -8 0 -5 5 -10 10 -10 6 0 10 -9 10 -20 0 -13 -7 -20
-20 -20 -15 0 -20 7 -20 29 0 26 -4 30 -40 36 l-40 7 0 74 c0 67 -2 74 -20 74
-11 0 -20 -7 -20 -15 0 -23 -89 -108 -106 -101 -8 3 -14 19 -14 41 0 28 4 35
20 35 13 0 20 7 20 20 0 17 -7 20 -50 20 -27 0 -50 4 -50 9 0 5 -10 11 -22 13
-13 2 -24 11 -26 23 -3 16 -1 18 9 8 7 -7 28 -13 46 -13 18 0 33 -4 33 -10 0
-5 5 -10 10 -10 6 0 10 14 10 30 0 28 2 30 40 30 22 0 40 -4 40 -10 0 -5 18
-10 40 -10 22 0 40 -4 40 -10 0 -5 18 -10 40 -10 22 0 40 5 40 10 0 6 12 10
26 10 26 0 54 20 54 39 0 17 69 13 86 -4z m324 -5 c0 -5 -7 -7 -15 -4 -8 4
-15 8 -15 10 0 2 7 4 15 4 8 0 15 -4 15 -10z m-30 -20 c0 -5 -4 -10 -10 -10
-5 0 -10 5 -10 10 0 6 5 10 10 10 6 0 10 -4 10 -10z m109 -54 c0 -7 -2 -7 -6
2 -2 6 -13 12 -24 12 -19 0 -26 20 -12 34 9 9 43 -31 42 -48z m-72 7 c4 -10
-26 -27 -34 -20 -2 2 -1 12 3 21 7 18 25 17 31 -1z m-67 -13 c0 -5 -7 -10 -16
-10 -8 0 -12 5 -9 10 3 6 10 10 16 10 5 0 9 -4 9 -10z m-990 -8 c0 -4 -18 -6
-40 -4 -22 2 -40 6 -40 8 0 2 18 4 40 4 22 0 40 -3 40 -8z m157 -17 c0 -8 -6
-15 -14 -15 -7 0 -13 7 -13 15 0 8 6 15 13 15 8 0 14 -7 14 -15z m1122 -16
c11 -12 24 -18 30 -14 6 3 11 1 11 -4 0 -6 7 -11 15 -11 8 0 15 -5 15 -11 0
-6 -6 -9 -12 -6 -42 15 -58 17 -58 8 0 -6 -10 -11 -22 -10 l-23 0 23 9 c29 12
28 18 -4 30 -14 6 -22 14 -19 20 9 15 22 12 44 -11z m-1279 -11 c0 -4 -9 -9
-20 -9 -11 -1 -25 -2 -32 -3 -6 -1 -13 5 -16 12 -3 9 6 12 32 10 20 -1 36 -6
36 -10z m1067 -4 c-3 -3 -12 -4 -19 -1 -8 3 -5 6 6 6 11 1 17 -2 13 -5z m163
-11 c0 -3 -7 -3 -15 1 -8 3 -15 1 -15 -3 0 -5 6 -12 13 -14 6 -3 2 -6 -10 -6
-24 -1 -32 24 -10 32 13 4 37 -2 37 -10z m-1330 -3 c0 -5 -4 -10 -9 -10 -6 0
-13 5 -16 10 -3 6 1 10 9 10 9 0 16 -4 16 -10z m1087 -45 c-1 -22 -6 -35 -14
-35 -7 0 -13 6 -13 14 0 7 -13 16 -30 20 -16 3 -30 11 -30 17 0 7 12 10 30 7
25 -4 30 -1 30 15 0 16 3 17 14 8 8 -7 14 -27 13 -46z m152 29 c2 -2 -15 -4
-38 -4 -25 0 -40 4 -36 10 5 8 63 3 74 -6z m-1163 -19 c-3 -9 0 -15 9 -15 8 0
15 -4 15 -10 0 -18 28 -11 58 15 19 15 33 21 37 15 8 -14 -3 -30 -21 -30 -8 0
-14 -9 -14 -20 0 -13 7 -20 20 -20 11 0 20 4 20 10 0 12 51 63 57 56 3 -2 -4
-15 -16 -27 -26 -28 -27 -43 -3 -37 13 4 18 -1 20 -18 1 -18 -3 -24 -18 -24
-11 0 -20 4 -20 9 0 5 -10 11 -22 14 -83 20 -156 65 -142 88 9 15 26 10 20 -6z
m1437 -37 c18 -18 33 -43 34 -54 2 -20 0 -20 -27 6 -17 16 -30 32 -30 38 0 5
-7 12 -15 16 -8 3 -15 10 -15 16 0 19 21 10 53 -22z m-1176 -24 c-3 -3 -12 -4
-19 -1 -8 3 -5 6 6 6 11 1 17 -2 13 -5z m140 -51 c-3 -10 -5 -2 -5 17 0 19 2
27 5 18 2 -10 2 -26 0 -35z m533 7 c0 -29 4 -40 15 -40 11 0 15 -11 15 -40 l0
-40 93 0 92 0 -3 -75 c-2 -49 0 -75 7 -75 7 0 11 28 11 75 0 43 4 75 10 75 6
0 10 -33 10 -79 0 -73 -2 -79 -22 -86 -20 -6 -20 -8 -5 -12 21 -6 23 -23 2
-23 -8 0 -15 -9 -15 -20 0 -17 -7 -20 -39 -20 -22 0 -41 -5 -43 -10 -1 -6 -1
30 0 80 l4 90 -96 0 -96 0 0 40 c0 36 3 40 25 40 23 0 25 4 25 40 0 22 -4 40
-10 40 -5 0 -10 -7 -10 -15 0 -8 -4 -15 -10 -15 -5 0 -10 7 -10 15 0 8 5 15
10 15 6 0 10 18 10 40 0 29 4 40 15 40 11 0 15 -11 15 -40z m483 5 c23 -33 12
-54 -14 -26 -19 20 -26 51 -11 51 4 0 15 -12 25 -25z m-1114 -24 c9 -6 10 -11
3 -15 -20 -12 0 -36 29 -36 19 0 29 -5 29 -15 0 -8 9 -15 20 -15 13 0 20 7 20
20 0 23 15 27 24 5 3 -8 17 -15 31 -15 14 0 25 -5 25 -11 0 -8 -13 -10 -37 -6
-21 4 -45 2 -53 -3 -13 -8 -13 -10 0 -10 10 0 11 -3 3 -11 -13 -13 -36 -3 -28
11 6 10 -66 50 -90 50 -9 0 -18 7 -21 15 -4 9 -19 15 -40 15 -49 0 -42 18 9
23 23 2 47 4 52 5 6 1 16 -2 24 -7z m238 3 c-3 -3 -12 -4 -19 -1 -8 3 -5 6 6
6 11 1 17 -2 13 -5z m788 -14 c3 -5 -1 -10 -10 -10 -9 0 -13 5 -10 10 3 6 8
10 10 10 2 0 7 -4 10 -10z m175 -16 c0 -9 9 -18 20 -21 22 -6 28 -33 7 -33
-16 0 -41 27 -50 53 -4 11 -1 17 8 17 8 0 15 -7 15 -16z m-1016 0 c9 -3 16
-10 16 -14 0 -8 -58 4 -68 15 -7 7 33 6 52 -1z m336 -22 c0 -17 -5 -29 -13
-29 -7 0 -14 13 -15 29 -2 19 2 28 13 28 10 0 15 -10 15 -28z m246 -12 c40 0
76 -4 79 -10 4 -6 -25 -10 -79 -10 -47 0 -86 3 -86 8 0 4 -3 18 -5 32 -5 25
-5 25 6 3 11 -21 20 -23 85 -23z m169 10 c4 -6 -13 -10 -44 -10 -28 0 -51 5
-51 10 0 6 20 10 44 10 25 0 48 -4 51 -10z m225 -40 c0 -35 -10 -38 -34 -11
-17 18 -17 20 1 30 28 16 33 13 33 -19z m-960 -14 c0 -11 -19 -15 -25 -6 -3 5
1 10 9 10 9 0 16 -2 16 -4z m200 -6 c0 -5 5 -10 11 -10 5 0 7 5 4 10 -3 6 -1
10 4 10 13 0 13 -3 5 -24 -8 -21 -17 -20 -32 4 -7 12 -8 20 -2 20 5 0 10 -4
10 -10z m577 -52 c-2 -13 -4 -3 -4 22 0 25 2 35 4 23 2 -13 2 -33 0 -45z m43
17 c0 -19 -4 -35 -10 -35 -5 0 -10 16 -10 35 0 19 5 35 10 35 6 0 10 -16 10
-35z m-872 7 c3 -9 -2 -13 -14 -10 -9 1 -19 9 -22 16 -3 9 2 13 14 10 9 -1 19
-9 22 -16z m1092 -2 c0 -11 -4 -20 -9 -20 -5 0 -7 9 -4 20 3 11 7 20 9 20 2 0
4 -9 4 -20z m-130 0 c0 -5 -7 -10 -15 -10 -8 0 -15 5 -15 10 0 6 7 10 15 10 8
0 15 -4 15 -10z m80 0 c0 -5 -4 -10 -10 -10 -5 0 -10 5 -10 10 0 6 5 10 10 10
6 0 10 -4 10 -10z m-843 -20 c9 0 13 -6 10 -14 -4 -10 -1 -13 7 -10 7 3 16 -2
19 -10 4 -10 1 -13 -9 -9 -7 3 -14 0 -14 -6 0 -6 5 -11 10 -11 11 0 14 -30 3
-30 -5 0 -19 -3 -32 -7 -19 -5 -22 -3 -15 8 24 39 -3 64 -36 34 -18 -16 -20
-17 -20 -2 0 10 5 17 10 17 6 0 10 4 10 10 0 5 -8 7 -17 3 -12 -4 -10 1 6 16
14 12 31 19 39 16 7 -3 20 -5 29 -5z m823 -10 c0 -5 -9 -10 -21 -10 -11 0 -17
5 -14 10 3 6 13 10 21 10 8 0 14 -4 14 -10z m-650 -30 c0 -24 -13 -26 -30 -5
-21 25 -50 19 -50 -10 0 -18 5 -25 20 -25 11 0 20 -4 20 -10 0 -5 -17 -10 -37
-9 -21 0 -32 3 -25 6 17 7 15 32 -3 39 -27 11 15 33 63 34 35 0 42 -3 42 -20z
m125 -36 c15 -24 15 -24 -15 -24 -27 0 -30 3 -30 30 0 35 20 32 45 -6z m515
-4 c0 -5 -5 -10 -11 -10 -5 0 -7 5 -4 10 3 6 8 10 11 10 2 0 4 -4 4 -10z
m-769 -36 c7 -8 21 -13 31 -11 10 3 18 1 18 -4 0 -5 11 -12 26 -15 18 -5 29
-1 39 12 13 18 14 18 15 2 0 -10 -5 -18 -11 -18 -6 0 -8 -9 -4 -20 5 -16 2
-20 -19 -20 -15 0 -25 5 -23 12 1 7 -8 14 -20 16 -13 2 -23 8 -23 13 0 5 -10
9 -23 9 -23 0 -47 17 -47 32 0 14 27 9 41 -8z m179 12 c0 -3 -4 -8 -10 -11 -5
-3 -10 -1 -10 4 0 6 5 11 10 11 6 0 10 -2 10 -4z m615 -28 c17 -17 24 -28 17
-24 -8 5 -15 -1 -21 -15 -7 -21 -9 -20 -15 14 -4 20 -11 37 -16 37 -6 0 -10 5
-10 10 0 17 14 10 45 -22z m-560 -58 c-3 -6 6 -15 20 -20 20 -8 30 -7 41 5 9
8 20 15 25 15 16 0 10 -20 -8 -27 -10 -4 -21 -11 -24 -16 -4 -5 -23 -7 -42 -3
-28 5 -35 10 -30 23 4 11 3 14 -5 9 -7 -4 -12 -1 -12 8 0 9 9 16 21 16 11 0
17 -5 14 -10z m475 -20 c0 -15 34 -21 45 -8 5 7 19 14 30 16 15 2 8 -8 -25
-41 -25 -25 -51 -52 -58 -61 -7 -9 -18 -13 -24 -10 -7 5 -5 11 5 19 10 7 17
17 17 24 0 6 5 11 10 11 7 0 7 6 0 20 -6 11 -17 20 -25 20 -15 0 -20 12 -9 23
8 7 34 -3 34 -13z m-545 -1 c4 -6 5 -12 2 -15 -7 -7 -37 7 -37 17 0 13 27 11
35 -2z m325 -28 c0 -6 -9 -9 -19 -8 -11 0 -17 5 -15 9 7 11 34 10 34 -1z m167
3 c-3 -3 -12 -4 -19 -1 -8 3 -5 6 6 6 11 1 17 -2 13 -5z m-307 -14 c0 -5 -5
-10 -11 -10 -5 0 -7 5 -4 10 3 6 8 10 11 10 2 0 4 -4 4 -10z m275 -31 c4 -11
4 -23 2 -26 -9 -8 -27 7 -27 22 0 7 -8 16 -17 18 -12 3 -8 5 9 6 19 1 29 -5
33 -20z m-320 1 c4 -6 16 -8 28 -5 12 2 16 2 10 -1 -7 -3 -13 -12 -13 -20 0
-28 -41 -7 -47 24 -4 15 13 16 22 2z m165 -20 c0 -5 -4 -10 -10 -10 -5 0 -10
5 -10 10 0 6 5 10 10 10 6 0 10 -4 10 -10z m-50 -20 c0 -6 -21 -7 -52 -1 -5 0
-8 5 -8 9 0 5 14 7 30 4 17 -2 30 -8 30 -12z m170 -7 c0 -17 -16 -30 -42 -35
-26 -5 -26 -5 -10 18 16 22 52 33 52 17z m-175 -23 c3 -5 -3 -10 -15 -10 -12
0 -18 5 -15 10 3 6 10 10 15 10 5 0 12 -4 15 -10z"/>
<path d="M3140 4870 c0 -5 -9 -10 -20 -10 -11 0 -20 -4 -20 -10 0 -5 23 -10
50 -10 43 0 50 3 50 20 0 16 -7 20 -30 20 -16 0 -30 -4 -30 -10z"/>
<path d="M3360 4820 c0 -11 5 -20 10 -20 6 0 10 9 10 20 0 11 -4 20 -10 20 -5
0 -10 -9 -10 -20z"/>
<path d="M5017 6485 c-55 -21 -143 -82 -176 -123 -36 -47 -71 -119 -71 -148 0
-13 -4 -26 -10 -29 -23 -14 -4 -160 29 -235 35 -75 91 -136 166 -181 28 -16
57 -34 65 -39 8 -5 71 -41 140 -80 69 -38 132 -74 140 -80 8 -5 92 -53 185
-106 178 -102 239 -138 283 -166 30 -19 84 -50 122 -70 14 -7 27 -15 30 -18 3
-3 16 -11 29 -18 13 -8 39 -22 57 -32 18 -11 51 -30 73 -44 22 -15 43 -26 45
-26 3 0 67 -37 143 -82 164 -98 220 -118 321 -118 65 0 84 5 146 34 39 19 88
52 109 72 46 45 97 117 97 136 0 8 5 19 12 26 17 17 17 221 -1 258 -8 16 -21
44 -30 62 -29 59 -157 164 -251 206 -8 3 -33 17 -55 31 -22 14 -60 37 -85 51
-25 14 -62 35 -82 47 -77 46 -275 161 -328 190 -30 17 -100 57 -155 90 -55 33
-125 73 -155 89 -30 16 -77 42 -105 59 -27 16 -57 33 -65 36 -8 4 -19 11 -25
16 -17 15 -227 135 -295 169 -58 28 -75 32 -165 34 -65 1 -113 -3 -138 -11z
m-127 -135 c0 -5 -5 -10 -11 -10 -5 0 -7 5 -4 10 3 6 8 10 11 10 2 0 4 -4 4
-10z m190 -4 c0 -3 -4 -8 -10 -11 -5 -3 -10 -1 -10 4 0 6 5 11 10 11 6 0 10
-2 10 -4z m290 0 c0 -3 -4 -8 -10 -11 -5 -3 -10 -1 -10 4 0 6 5 11 10 11 6 0
10 -2 10 -4z m270 -176 c0 -5 -4 -10 -9 -10 -6 0 -13 5 -16 10 -3 6 1 10 9 10
9 0 16 -4 16 -10z m547 -246 c-3 -3 -12 -4 -19 -1 -8 3 -5 6 6 6 11 1 17 -2
13 -5z m348 -204 c3 -5 -1 -10 -9 -10 -9 0 -16 5 -16 10 0 6 4 10 9 10 6 0 13
-4 16 -10z m342 -632 c-3 -7 -5 -2 -5 12 0 14 2 19 5 13 2 -7 2 -19 0 -25z"/>
<path d="M1495 3348 c-70 -18 -101 -36 -149 -85 -66 -67 -86 -111 -93 -201 -9
-136 51 -251 158 -304 86 -42 107 -48 158 -48 168 0 314 148 299 302 l-3 33
-138 3 c-116 2 -138 0 -143 -13 -13 -34 14 -45 112 -44 51 0 98 -2 103 -6 14
-8 14 -46 1 -80 -14 -37 -81 -101 -125 -119 -52 -22 -162 -21 -213 2 -76 34
-144 120 -150 192 -5 61 -5 69 3 115 21 121 107 195 242 210 58 6 66 5 130
-29 39 -21 71 -32 76 -27 19 19 0 46 -53 73 -63 32 -152 43 -215 26z"/>
<path d="M2723 3349 c-18 -5 -51 -27 -73 -48 -38 -36 -40 -41 -40 -99 0 -53 4
-65 28 -89 37 -39 67 -56 140 -82 126 -45 152 -71 152 -151 0 -30 -7 -48 -29
-72 -25 -28 -35 -32 -92 -35 -73 -5 -118 16 -147 67 -26 45 -72 53 -72 12 0
-50 128 -142 198 -142 52 0 124 32 164 72 l40 40 -4 71 c-4 68 -5 71 -46 108
-26 22 -79 52 -135 74 -118 47 -137 64 -137 125 0 48 17 73 66 98 36 19 103 6
145 -27 70 -57 113 -34 51 26 -56 54 -134 74 -209 52z"/>
<path d="M3330 3351 c-81 -17 -176 -98 -212 -181 -26 -57 -30 -198 -8 -250 66
-158 227 -240 382 -195 96 27 155 78 128 110 -12 14 -15 14 -39 -9 -40 -39
-93 -56 -169 -56 -83 0 -133 18 -185 68 -61 58 -71 84 -70 192 0 109 7 133 60
191 45 50 97 74 179 84 52 6 68 3 117 -19 31 -14 57 -30 57 -35 0 -16 26 -13
40 4 15 19 2 37 -44 61 -73 38 -158 50 -236 35z"/>
<path d="M2083 3342 l-83 -3 0 -37 c-1 -42 -1 -553 0 -564 0 -5 61 -8 137 -8
123 0 141 2 187 24 83 40 129 97 164 207 24 72 7 161 -45 245 -65 107 -162
143 -360 136z m227 -79 c41 -18 93 -79 112 -130 22 -65 22 -132 -2 -200 -26
-75 -69 -117 -144 -143 -64 -21 -200 -28 -211 -10 -10 17 -7 481 4 493 11 15
203 7 241 -10z"/>
<path d="M5188 3337 c-36 -29 -22 -77 21 -77 43 0 53 51 15 76 -16 11 -23 11
-36 1z"/>
<path d="M6877 3340 c-42 -3 -77 -8 -77 -12 0 -5 0 -141 0 -303 l0 -295 133 0
c97 0 139 4 161 15 15 8 34 15 40 15 23 0 106 89 122 130 3 8 10 23 15 32 5
10 9 59 9 110 0 76 -4 102 -24 143 -26 56 -104 132 -145 141 -14 3 -37 9 -51
14 -37 12 -96 16 -183 10z m232 -80 c38 -19 75 -59 101 -109 20 -39 14 -205
-10 -251 -25 -50 -81 -95 -141 -114 -57 -19 -190 -21 -207 -4 -19 19 -17 466
2 487 23 25 202 19 255 -9z"/>
<path d="M7796 3342 c-2 -4 -4 -110 -5 -237 -2 -214 -4 -232 -23 -263 -32 -51
-73 -72 -143 -72 -78 0 -119 24 -148 88 -20 43 -22 65 -24 262 l-3 215 -22 0
-23 0 0 -225 c0 -216 1 -227 24 -273 35 -72 119 -126 194 -127 33 0 128 29
142 44 29 29 64 85 73 116 6 19 12 131 13 249 l3 215 -27 7 c-15 4 -29 4 -31
1z"/>
<path d="M3982 3038 c3 -295 3 -303 23 -303 18 0 20 8 25 87 5 83 6 88 46 135
67 79 74 76 185 -84 87 -125 99 -138 129 -141 24 -3 31 0 28 10 -3 7 -45 69
-94 136 -87 121 -133 191 -134 203 0 7 43 57 171 202 l51 57 -34 0 c-38 0 -70
-31 -208 -196 -108 -129 -116 -138 -128 -130 -8 5 -12 56 -12 167 l0 159 -25
0 -25 0 2 -302z"/>
<path d="M4990 3035 l0 -305 25 0 25 0 0 305 0 305 -25 0 -25 0 0 -305z"/>
<path d="M6190 3228 c0 -145 -5 -152 -65 -109 -44 32 -50 33 -112 28 -60 -4
-68 -8 -109 -48 -44 -43 -74 -108 -74 -161 0 -118 97 -227 202 -226 38 0 89
21 108 43 18 22 47 19 53 -6 4 -15 12 -20 29 -17 l23 3 0 300 0 300 -27 3 -28
3 0 -113z m-70 -147 c48 -34 70 -79 70 -143 0 -71 -21 -120 -64 -151 -60 -42
-179 -23 -206 34 -4 7 -14 28 -22 44 -26 52 -5 157 39 198 52 47 131 54 183
18z"/>
<path d="M6374 3315 c-12 -49 36 -73 70 -36 25 27 6 61 -34 61 -23 0 -31 -5
-36 -25z"/>
<path d="M4595 3135 c-30 -16 -65 -50 -65 -65 0 -18 34 -19 57 0 60 47 153 41
200 -14 38 -45 25 -112 -18 -85 -8 5 -47 9 -88 9 -61 0 -82 -4 -116 -25 -55
-32 -82 -92 -64 -139 16 -41 58 -86 80 -86 10 0 21 -4 24 -10 16 -26 99 -5
168 43 15 10 21 8 36 -12 10 -14 25 -22 37 -19 17 3 19 14 22 133 4 171 -21
236 -105 271 -43 18 -131 18 -168 -1z m175 -201 c36 -14 40 -20 40 -50 0 -62
-101 -132 -170 -117 -51 10 -56 14 -73 43 -16 26 -16 33 -3 64 29 69 118 95
206 60z"/>
<path d="M5510 3133 c-14 -9 -35 -26 -47 -36 -22 -20 -22 -20 -34 7 -9 19 -19
26 -33 24 -20 -3 -21 -9 -24 -200 l-2 -198 25 0 25 0 0 123 c0 136 15 186 65
225 49 39 137 25 172 -27 21 -31 23 -45 23 -177 l0 -144 31 0 30 0 -4 143 c-5
175 -10 196 -53 238 -29 28 -42 33 -91 36 -42 2 -65 -1 -83 -14z"/>
<path d="M5170 2931 c0 -207 1 -214 43 -203 15 4 17 22 17 203 l0 199 -30 0
-30 0 0 -199z"/>
<path d="M6380 2930 l0 -201 28 3 27 3 0 195 0 195 -27 3 -28 3 0 -201z"/>
</g>
</svg>
