<?xml version="1.0" standalone="no"?>
<!DOCTYPE svg PUBLIC "-//W3C//DTD SVG 20010904//EN"
 "http://www.w3.org/TR/2001/REC-SVG-20010904/DTD/svg10.dtd">
<svg version="1.0" xmlns="http://www.w3.org/2000/svg"
 width="225.000000pt" height="225.000000pt" viewBox="0 0 225.000000 225.000000"
 preserveAspectRatio="xMidYMid meet">

<g transform="translate(0.000000,225.000000) scale(0.100000,-0.100000)"
fill="#000000" stroke="none">
<path d="M945 2135 c-491 -90 -845 -513 -845 -1010 0 -313 141 -606 383 -800
469 -375 1158 -269 1494 230 296 439 204 1039 -210 1370 -134 107 -316 187
-487 215 -87 13 -248 11 -335 -5z m274 -500 c133 -20 185 -37 238 -78 23 -17
59 -42 80 -55 53 -33 149 -167 167 -234 8 -29 22 -71 31 -92 17 -41 17 -79 -4
-189 -20 -101 -72 -174 -141 -199 -17 -5 -31 -21 -39 -44 -32 -88 -149 -154
-244 -139 -58 10 -134 44 -155 69 -12 15 -29 21 -60 22 -31 1 -50 8 -70 26
-24 23 -33 25 -92 21 -59 -4 -69 -2 -113 26 -27 18 -54 45 -64 66 -14 28 -26
37 -67 49 -190 56 -257 233 -162 432 83 175 268 291 516 324 30 4 59 8 64 9 5
0 56 -6 115 -14z"/>
<path d="M1287 1553 c-15 -14 -5 -21 38 -27 29 -5 55 -17 76 -37 36 -34 49
-36 49 -11 0 46 -132 106 -163 75z"/>
<path d="M861 1532 c-19 -10 -41 -28 -49 -40 -13 -19 -12 -22 1 -28 9 -3 25 4
37 16 28 28 68 42 101 35 30 -7 50 12 28 26 -23 15 -82 10 -118 -9z"/>
<path d="M1142 1525 c-16 -35 -15 -84 3 -136 19 -51 13 -85 -15 -94 -19 -6
-26 -25 -14 -38 3 -3 17 -1 30 5 18 8 27 8 39 -2 25 -21 44 4 22 28 -9 10 -17
31 -17 46 0 15 -7 53 -16 83 -13 44 -14 60 -4 83 20 47 -7 71 -28 25z"/>
<path d="M1306 1421 c-3 -4 1 -17 9 -27 9 -12 12 -33 8 -59 -5 -46 11 -99 30
-92 8 2 11 21 9 60 -4 54 -2 57 23 67 33 13 28 35 -8 35 -15 1 -32 6 -39 13
-14 14 -25 15 -32 3z"/>
<path d="M910 1408 c0 -6 7 -19 15 -28 12 -13 13 -23 5 -44 -14 -39 -12 -134
5 -181 8 -22 15 -41 15 -42 0 -1 -24 -6 -52 -13 -55 -11 -122 -51 -132 -77 -5
-11 -14 -13 -33 -8 -67 16 -116 82 -93 125 16 29 -5 55 -21 27 -7 -12 -20 -17
-36 -15 -32 4 -44 -21 -14 -29 11 -3 30 -24 42 -49 20 -42 79 -94 106 -94 8 0
12 -11 11 -31 -4 -49 15 -44 39 9 35 76 80 101 206 118 66 8 123 23 160 39 47
22 74 27 154 29 79 2 106 6 141 24 42 22 61 46 48 59 -3 4 -25 -4 -49 -18 -34
-19 -61 -25 -147 -30 -81 -4 -119 -12 -165 -31 -91 -39 -115 -39 -138 -1 -43
74 -28 207 25 215 12 2 24 11 26 21 3 16 -1 17 -30 12 -25 -5 -38 -2 -47 9
-16 19 -41 21 -41 4z"/>
<path d="M716 1375 c-7 -18 9 -107 25 -136 8 -15 8 -28 -1 -49 -18 -44 -3 -55
30 -20 15 16 37 30 49 30 12 0 21 6 21 15 0 10 -10 15 -30 15 -36 0 -50 26
-58 108 -4 51 -23 70 -36 37z"/>
<path d="M1530 1339 c0 -6 13 -24 29 -40 33 -32 41 -67 28 -118 -10 -39 3 -60
23 -36 7 8 15 34 17 58 8 66 -40 147 -86 147 -6 0 -11 -5 -11 -11z"/>
<path d="M1425 1107 c-4 -10 -3 -29 4 -43 15 -34 16 -33 -35 -55 -61 -28 -155
-19 -169 14 -12 28 -31 23 -28 -7 1 -17 -10 -28 -47 -49 -43 -24 -55 -27 -104
-21 -31 4 -61 13 -67 20 -16 20 -29 17 -29 -6 0 -11 -15 -34 -32 -50 -27 -24
-30 -31 -19 -39 11 -7 23 -3 44 15 40 33 127 35 149 2 15 -23 44 -17 34 7 -3
9 12 24 39 39 35 21 56 26 114 26 64 0 70 -2 73 -22 4 -31 28 -35 28 -5 0 37
77 80 125 71 31 -5 35 -4 35 15 0 16 -6 21 -24 21 -23 0 -43 18 -73 66 -11 18
-11 18 -18 1z"/>
<path d="M1626 982 c-4 -4 -14 -21 -21 -39 -7 -17 -27 -39 -44 -48 -32 -16
-39 -29 -21 -40 28 -17 110 62 110 107 0 19 -14 31 -24 20z"/>
<path d="M1265 794 c-39 -15 -96 -14 -142 1 -37 12 -28 -21 8 -34 44 -15 86
-14 149 5 52 15 120 15 168 -1 33 -11 28 12 -8 30 -36 19 -122 18 -175 -1z"/>
</g>
</svg>
