<?xml version="1.0" standalone="no"?>
<!DOCTYPE svg PUBLIC "-//W3C//DTD SVG 20010904//EN"
 "http://www.w3.org/TR/2001/REC-SVG-20010904/DTD/svg10.dtd">
<svg version="1.0" xmlns="http://www.w3.org/2000/svg"
 width="267.000000pt" height="267.000000pt" viewBox="0 0 267.000000 267.000000"
 preserveAspectRatio="xMidYMid meet">
<metadata>
Created by potrace 1.16, written by Peter Selinger 2001-2019
</metadata>
<g transform="translate(0.000000,267.000000) scale(0.100000,-0.100000)"
fill="#000000" stroke="none">
<path d="M0 1335 l0 -1335 1333 2 1332 3 3 1333 2 1332 -1335 0 -1335 0 0
-1335z m1650 889 c12 -74 35 -124 87 -198 l35 -49 -28 7 c-49 13 -113 56 -136
94 -30 48 -29 114 2 170 13 23 25 42 26 42 1 0 7 -30 14 -66z m284 -226 c-4
-7 -18 -27 -30 -44 -46 -60 -67 -123 -66 -198 1 -68 7 -94 79 -331 30 -100 41
-249 24 -336 -39 -195 -186 -317 -407 -336 -88 -7 -155 7 -254 55 -82 40 -280
184 -280 203 0 4 22 4 49 1 73 -7 207 15 270 43 79 36 175 134 202 205 11 30
38 143 59 252 52 260 90 344 193 424 63 49 180 94 161 62z m-979 -194 c155
-40 270 -167 298 -327 28 -168 -61 -345 -215 -423 -61 -31 -68 -30 -36 4 76
79 95 225 43 340 -83 186 -300 229 -441 87 -62 -62 -89 -135 -81 -218 l4 -50
-18 24 c-66 85 -78 251 -26 360 78 163 285 252 472 203z m-49 -419 c63 -48 90
-133 63 -202 l-11 -28 -13 30 c-16 37 -61 80 -98 94 -63 24 -148 8 -199 -37
-17 -14 -18 -13 -18 19 0 37 29 91 63 120 54 46 156 47 213 4z m648 -730 c-46
-87 -72 -166 -76 -232 -2 -24 -7 -43 -13 -43 -16 0 -63 82 -74 130 -12 50 -14
136 -5 190 l6 35 102 0 102 0 -42 -80z"/>
</g>
</svg>
