<svg width="560" height="140" viewBox="0 0 560 140" fill="none" xmlns="http://www.w3.org/2000/svg">
<mask id="mask0_7:4865" style="mask-type:alpha" maskUnits="userSpaceOnUse" x="0" y="0" width="140" height="140">
<path fill-rule="evenodd" clip-rule="evenodd" d="M70 140C108.66 140 140 108.66 140 70C140 31.34 108.66 0 70 0C31.34 0 0 31.34 0 70C0 108.66 31.34 140 70 140Z" fill="black"/>
</mask>
<g mask="url(#mask0_7:4865)">
<path d="M162.373 -3.70642H-14.4111V104.176H162.373V-3.70642Z" fill="#F64942"/>
<path d="M30.8381 114.371C21.8688 96.7894 30.5207 75.5039 53.9128 69.7839C121.871 58.6838 111.681 37.6351 132.496 30.1319C171.223 16.1721 161.43 64.7606 153.641 78.3446C145.851 91.9286 164.299 117.7 137.858 119.574C121.214 120.754 116.362 111.376 87.027 123.485C71.9401 129.712 71.0578 128.334 55.3958 123.283L41.9853 116.508L30.8381 114.371Z" fill="#F4CE45"/>
<path d="M66.2759 -13.5343C48.2105 -11.1222 -44.2499 8.33148 -50.8413 11.344L-34.7601 102.608C-25.1079 101.678 -7.19549 111.287 -7.19548 97.7507C-7.19548 84.6178 -4.53021 79.0147 4.53081 63.2747C17.8446 40.1472 47.3154 40.5327 57.5827 40.0308C81.8739 38.8433 108.446 31.0683 122.023 11.3508C168.55 -56.2194 124.401 -29.561 66.2759 -13.5343Z" fill="#5B95BF"/>
<path d="M46.7676 92.4558C27.9318 92.5118 8.07391 98.3193 -10.0603 105.131L-2.94167 182.241C46.4159 176.064 135.13 161.3 140.648 151.944C147.044 141.097 138.033 133.862 156.619 123.979C171.487 116.072 187.95 84.8111 152.888 84.4592C133.472 84.6183 128.503 88.642 113.359 94.3237C88.3996 103.689 61.1994 92.413 46.7676 92.4558Z" fill="#EF90A4"/>
<path fill-rule="evenodd" clip-rule="evenodd" d="M70.5604 22.6461C72.9602 22.6461 75.0186 24.0922 75.9219 26.1593C76.0122 26.3655 76.2128 26.4787 76.414 26.4787C76.5577 26.4787 76.702 26.4203 76.8059 26.2966C77.9062 24.9821 79.5485 24.1954 81.2918 24.1954C81.7924 24.1954 82.3018 24.2608 82.8082 24.3959C85.1304 25.0184 86.7456 26.9531 87.0799 29.1888C87.1197 29.4562 87.358 29.6298 87.6048 29.6298C87.7051 29.6298 87.8075 29.6007 87.8986 29.5373C88.8879 28.8438 90.0686 28.4732 91.2699 28.4732C92.2606 28.4732 93.2649 28.7257 94.1855 29.2571C96.2678 30.4591 97.3271 32.7461 97.0714 34.9917C97.035 35.3089 97.3001 35.5714 97.5969 35.5714C97.6547 35.5714 97.7135 35.5615 97.7723 35.5401C98.421 35.304 99.1033 35.1852 99.7846 35.1852C101.281 35.1852 102.776 35.755 103.917 36.8973C105.617 38.5973 106.049 41.0806 105.221 43.1832C105.087 43.5239 105.353 43.8966 105.709 43.8966C105.725 43.8966 105.74 43.896 105.755 43.8945C105.927 43.8795 106.098 43.8717 106.268 43.8717C108.291 43.8717 110.257 44.9181 111.34 46.7959C112.542 48.878 112.316 51.3882 110.972 53.2049C110.746 53.5114 110.93 53.9646 111.305 54.0308C113.478 54.4128 115.34 56.0075 115.949 58.2787C116.572 60.6011 115.704 62.9677 113.935 64.3747C113.636 64.6116 113.696 65.0967 114.042 65.2582C116.041 66.1893 117.428 68.2123 117.428 70.5632C117.428 72.9638 115.983 75.0217 113.916 75.9251C113.562 76.0801 113.482 76.561 113.778 76.8092C115.47 78.2261 116.287 80.54 115.678 82.812C115.056 85.1345 113.122 86.7499 110.886 87.0842C110.51 87.1404 110.319 87.5906 110.538 87.9029C111.803 89.7089 111.994 92.1544 110.818 94.1911C109.734 96.068 107.768 97.1143 105.747 97.1143C105.526 97.1143 105.304 97.1012 105.084 97.0769C105.064 97.0741 105.045 97.0732 105.026 97.0732C104.675 97.0732 104.411 97.4372 104.535 97.7769C105.29 99.8499 104.841 102.261 103.178 103.923C102.037 105.065 100.542 105.636 99.0463 105.636C98.3146 105.636 97.5838 105.498 96.8931 105.227C96.8315 105.203 96.769 105.191 96.7083 105.191C96.4162 105.191 96.1539 105.447 96.1819 105.762C96.3751 107.959 95.3167 110.172 93.2806 111.348C92.3602 111.879 91.3559 112.131 90.3652 112.131C89.1148 112.131 87.8857 111.729 86.8722 110.979C86.7797 110.911 86.6745 110.88 86.5706 110.88C86.3288 110.88 86.0927 111.049 86.0465 111.311C85.6646 113.484 84.0699 115.348 81.7989 115.955C81.2918 116.092 80.7832 116.156 80.2825 116.156C78.4895 116.156 76.8038 115.325 75.7035 113.941C75.6003 113.812 75.4503 113.75 75.3002 113.75C75.1053 113.75 74.9112 113.854 74.8208 114.049C73.8891 116.048 71.8663 117.436 69.5157 117.436C67.1152 117.436 65.0575 115.99 64.1542 113.923C64.064 113.716 63.8634 113.603 63.6621 113.603C63.5184 113.603 63.374 113.661 63.2702 113.785C62.1699 115.1 60.5276 115.886 58.7844 115.886C58.2836 115.886 57.7743 115.821 57.268 115.686C54.9458 115.063 53.3304 113.128 52.9962 110.893C52.9564 110.625 52.7181 110.452 52.4713 110.452C52.371 110.452 52.2686 110.481 52.1776 110.545C51.1882 111.238 50.0075 111.609 48.8062 111.609C47.8155 111.609 46.8112 111.356 45.8901 110.824C43.8083 109.622 42.7492 107.335 43.0046 105.09C43.0409 104.772 42.7763 104.511 42.4789 104.511C42.4214 104.511 42.3624 104.52 42.304 104.542C41.6554 104.778 40.9733 104.896 40.2919 104.896C38.7955 104.896 37.3004 104.326 36.1588 103.185C34.4589 101.484 34.0272 99.0005 34.8551 96.8977C34.9895 96.558 34.7235 96.1847 34.3665 96.1847C34.3508 96.1847 34.3359 96.1856 34.321 96.1865C34.1496 96.2015 33.9789 96.2099 33.8074 96.2099C31.7854 96.2099 29.8195 95.1636 28.7355 93.2854C27.5336 91.2034 27.7597 88.6932 29.104 86.8764C29.3301 86.5698 29.1467 86.1168 28.7711 86.0506C26.5989 85.6686 24.7362 84.0739 24.1274 81.8026C23.505 79.4802 24.3727 77.1137 26.1416 75.7074C26.4396 75.4698 26.3799 74.9846 26.0343 74.8239C24.0349 73.8928 22.6479 71.8698 22.6479 69.5182C22.6479 67.1182 24.0932 65.0597 26.1608 64.1563C26.5143 64.0013 26.594 63.5204 26.2981 63.2729C24.6061 61.8559 23.7889 59.5413 24.3977 57.2693C25.02 54.9469 26.9545 53.3315 29.1901 52.9972C29.567 52.941 29.7569 52.4908 29.5386 52.1785C28.2725 50.3725 28.0827 47.9269 29.2583 45.8912C30.3423 44.0133 32.3074 42.9677 34.3295 42.9677C34.55 42.9677 34.7712 42.9797 34.9924 43.0054C35.0116 43.0075 35.0315 43.0082 35.0507 43.0082C35.4006 43.0082 35.6645 42.644 35.5407 42.3047C34.7854 40.232 35.2349 37.8206 36.8971 36.1583C38.0394 35.0159 39.5344 34.4468 41.0301 34.4468C41.7613 34.4468 42.4925 34.5827 43.1831 34.8551C43.2443 34.8793 43.3069 34.89 43.368 34.89C43.6596 34.89 43.9221 34.6338 43.8943 34.3202C43.7009 32.1229 44.7593 29.9101 46.7955 28.7343C47.7159 28.2029 48.7201 27.9503 49.711 27.9503C50.9614 27.9503 52.191 28.3522 53.2039 29.1027C53.2964 29.1703 53.4017 29.2016 53.5054 29.2016C53.7473 29.2016 53.9834 29.033 54.0296 28.7698C54.4116 26.5975 56.0062 24.7345 58.2772 24.1256C58.7844 23.9897 59.2929 23.9251 59.7936 23.9251C61.5866 23.9251 63.2723 24.7573 64.3726 26.1401C64.4757 26.2703 64.6258 26.3321 64.7759 26.3321C64.9708 26.3321 65.1649 26.2276 65.256 26.0326C66.187 24.0331 68.2098 22.6461 70.5604 22.6461Z" fill="white"/>
<path fill-rule="evenodd" clip-rule="evenodd" d="M91.7875 92.9747C86.5145 92.9747 86.9282 85.5302 91.7875 85.5302C96.6465 85.5302 97.0609 92.9747 91.7875 92.9747ZM48.214 92.9747C42.9409 92.9747 43.3547 85.5302 48.214 85.5302C53.0733 85.5302 53.487 92.9747 48.214 92.9747ZM107.719 65.4714H105.932C102.729 65.4714 99.9776 63.5565 98.7465 60.812C97.5145 63.5565 94.7631 65.4714 91.5602 65.4714C88.3566 65.4714 85.6058 63.5565 84.3744 60.812C83.143 63.5565 80.3915 65.4714 77.1878 65.4714C73.9849 65.4714 71.2334 63.5565 70.002 60.812C68.7706 63.5565 66.0191 65.4714 62.8162 65.4714C59.6125 65.4714 56.8617 63.5565 55.6296 60.812C54.3982 63.5565 51.6473 65.4714 48.4437 65.4714C45.2401 65.4714 42.4893 63.5565 41.2579 60.812C40.0264 63.5565 37.2749 65.4714 34.0713 65.4714H32.3052C29.6257 68.3543 31.3254 70.7898 37.9424 70.7898V85.5942C37.9424 99.5073 53.9634 106.464 69.9845 106.464C86.0056 106.464 102.026 99.5073 102.026 85.5942V70.7898C108.649 70.7898 110.378 68.3543 107.719 65.4714Z" fill="black"/>
<path fill-rule="evenodd" clip-rule="evenodd" d="M70.512 17.844C68.1658 17.844 65.9204 18.5792 64.0558 19.8721C62.7607 19.3675 61.3671 19.1005 59.9324 19.1005C58.9435 19.1005 57.9553 19.2312 56.995 19.4884C54.7257 20.0964 52.7444 21.3908 51.2768 23.1261C50.8616 23.0792 50.4437 23.0554 50.0251 23.0554C48.0438 23.0554 46.0862 23.581 44.3649 24.5748C42.3312 25.749 40.7531 27.5108 39.7845 29.5655C37.4069 29.9234 35.2131 31.0255 33.4813 32.7573C31.818 34.4199 30.7493 36.5333 30.3468 38.7718C28.1705 39.73 26.308 41.3612 25.0863 43.4781C23.9115 45.5125 23.4258 47.8279 23.6152 50.0922C21.7674 51.5718 20.3906 53.623 19.7519 56.0055C19.1438 58.2754 19.2738 60.6376 20.0426 62.7762C18.6413 64.6834 17.8418 67.0219 17.8418 69.4875C17.8418 71.8371 18.5784 74.0847 19.8749 75.9514C19.0145 78.1564 18.8475 80.6213 19.4856 83.0045C20.0943 85.2737 21.3879 87.2537 23.1225 88.7213C22.8626 91.0737 23.3391 93.4984 24.5727 95.6348C25.7441 97.6639 27.5045 99.2477 29.5655 100.218C29.924 102.557 31.0114 104.775 32.7552 106.519C34.4164 108.18 36.5018 109.261 38.7682 109.663C39.7202 111.825 41.3429 113.682 43.4752 114.913C45.1972 115.908 47.1548 116.433 49.1361 116.433C49.4583 116.433 49.7784 116.419 50.0964 116.393C51.5752 118.236 53.6243 119.61 56.0033 120.248C56.9636 120.504 57.9518 120.635 58.9407 120.635C60.2685 120.635 61.5671 120.405 62.7852 119.965C64.6904 121.361 67.0246 122.157 69.4854 122.157C71.8315 122.157 74.077 121.423 75.9416 120.129C77.2366 120.635 78.6308 120.901 80.065 120.901C81.0538 120.901 82.0421 120.771 83.0024 120.513C85.2716 119.905 87.2529 118.611 88.7199 116.876C89.1357 116.922 89.5536 116.947 89.9722 116.947C91.9535 116.947 93.9111 116.42 95.6321 115.427C97.6668 114.253 99.2441 112.491 100.213 110.437C102.591 110.078 104.784 108.976 106.516 107.245C108.179 105.581 109.248 103.468 109.651 101.23C111.826 100.273 113.689 98.6411 114.911 96.5243C116.086 94.4896 116.571 92.1745 116.382 89.9101C118.23 88.4306 119.607 86.3793 120.245 83.9961C120.854 81.7262 120.724 79.364 119.955 77.2261C121.356 75.3182 122.156 72.9805 122.156 70.5141C122.156 68.1652 121.418 65.9169 120.123 64.0509C120.982 61.846 121.149 59.3803 120.511 56.9971C119.903 54.7279 118.61 52.748 116.875 51.2803C117.135 48.9279 116.658 46.5035 115.424 44.367C114.253 42.3375 112.493 40.7545 110.432 39.7831C110.074 37.4446 108.986 35.2271 107.242 33.4834C105.581 31.8222 103.495 30.7403 101.229 30.3392C100.278 28.1768 98.6552 26.32 96.5225 25.0885C94.8005 24.0947 92.8432 23.5692 90.8619 23.5692C90.5397 23.5692 90.2189 23.5824 89.9009 23.609C88.4221 21.766 86.373 20.3913 83.994 19.754C83.0338 19.4968 82.0456 19.3661 81.0574 19.3661C79.7288 19.3661 78.4303 19.5974 77.2122 20.037C75.3069 18.6407 72.9728 17.844 70.512 17.844ZM70.5137 23.4344C72.8718 23.4344 74.8943 24.8552 75.7818 26.8862C75.8706 27.0888 76.0677 27.2 76.2655 27.2C76.4067 27.2 76.5486 27.1427 76.6506 27.0211C77.7317 25.7295 79.3455 24.9566 81.0584 24.9566C81.5504 24.9566 82.0508 25.0209 82.5484 25.1537C84.8302 25.7652 86.4174 27.6661 86.7459 29.8627C86.785 30.1254 87.0191 30.296 87.2616 30.296C87.3602 30.296 87.4608 30.2673 87.5502 30.2052C88.5224 29.5237 89.6825 29.1596 90.8629 29.1596C91.8365 29.1596 92.8233 29.4077 93.7281 29.9298C95.774 31.1109 96.8156 33.3578 96.5636 35.5642C96.5281 35.8758 96.7876 36.1337 97.0797 36.1337C97.1367 36.1337 97.1945 36.124 97.2524 36.103C97.8899 35.871 98.56 35.7542 99.2292 35.7542C100.699 35.7542 102.168 36.314 103.29 37.4364C104.961 39.1067 105.385 41.5466 104.572 43.6124C104.439 43.9472 104.7 44.3134 105.051 44.3134C105.067 44.3134 105.081 44.3127 105.096 44.3113C105.265 44.2966 105.432 44.2889 105.601 44.2889C107.588 44.2889 109.519 45.3169 110.584 47.162C111.766 49.2076 111.544 51.674 110.223 53.4589C110 53.7601 110.181 54.2053 110.55 54.2703C112.684 54.6456 114.514 56.2125 115.113 58.444C115.724 60.7258 114.872 63.051 113.133 64.4334C112.841 64.6661 112.899 65.1427 113.239 65.3014C115.203 66.2162 116.566 68.2038 116.566 70.5136C116.566 72.8723 115.146 74.8942 113.115 75.7817C112.767 75.9341 112.689 76.4066 112.98 76.6504C114.642 78.0426 115.445 80.316 114.847 82.5483C114.235 84.8301 112.334 86.4172 110.138 86.7457C109.767 86.8009 109.581 87.2433 109.795 87.5501C111.04 89.3245 111.226 91.7273 110.071 93.728C109.006 95.5723 107.075 96.6008 105.088 96.6008C104.871 96.6008 104.653 96.5877 104.436 96.5635C104.418 96.5616 104.398 96.5597 104.38 96.5597C104.035 96.5597 103.776 96.9181 103.898 97.2523C104.64 99.2879 104.198 101.657 102.564 103.29C101.442 104.413 99.9731 104.973 98.504 104.973C97.7853 104.973 97.0667 104.838 96.3881 104.571C96.3284 104.547 96.2668 104.536 96.2062 104.536C95.9196 104.536 95.662 104.788 95.6891 105.097C95.8795 107.255 94.8398 109.429 92.8387 110.584C91.9343 111.107 90.9475 111.355 89.974 111.355C88.7454 111.355 87.5377 110.96 86.5418 110.223C86.4509 110.156 86.3475 110.125 86.2454 110.125C86.0078 110.125 85.7758 110.292 85.7304 110.549C85.3551 112.684 83.7882 114.515 81.5567 115.113C81.0584 115.246 80.5587 115.309 80.0667 115.309C78.3048 115.309 76.6485 114.492 75.5673 113.133C75.466 113.006 75.3185 112.945 75.171 112.945C74.9795 112.945 74.7888 113.047 74.7 113.238C73.7845 115.203 71.7969 116.566 69.4871 116.566C67.1283 116.566 65.1065 115.146 64.2189 113.115C64.1302 112.913 63.9331 112.802 63.7353 112.802C63.5942 112.802 63.4523 112.858 63.3502 112.98C62.2691 114.271 60.6554 115.044 58.9424 115.044C58.4504 115.044 57.95 114.98 57.4524 114.847C55.1706 114.235 53.5834 112.334 53.255 110.139C53.2158 109.875 52.9817 109.705 52.7392 109.705C52.6407 109.705 52.54 109.733 52.4505 109.796C51.4784 110.478 50.3183 110.842 49.1379 110.842C48.1643 110.842 47.1775 110.593 46.2724 110.071C44.2268 108.89 43.1862 106.643 43.4372 104.436C43.4728 104.124 43.2128 103.868 42.9207 103.868C42.8641 103.868 42.806 103.876 42.7487 103.898C42.1114 104.13 41.4411 104.247 40.7717 104.247C39.3012 104.247 37.8321 103.687 36.7104 102.565C35.0401 100.894 34.6159 98.4544 35.4293 96.388C35.5615 96.0539 35.3001 95.6871 34.9492 95.6871C34.9339 95.6871 34.9192 95.688 34.9045 95.6889C34.7361 95.7039 34.5683 95.7113 34.4 95.7113C32.413 95.7113 30.4814 94.6837 29.4163 92.8385C28.2351 90.793 28.4573 88.3265 29.7783 86.5416C30.0005 86.2404 29.8202 85.7952 29.4512 85.7303C27.3168 85.355 25.4865 83.7881 24.8882 81.5566C24.2767 79.2747 25.1294 76.9496 26.8674 75.5679C27.1603 75.3344 27.1016 74.8578 26.7619 74.6999C24.7974 73.785 23.4345 71.7974 23.4345 69.4869C23.4345 67.1289 24.8547 65.1064 26.8864 64.2188C27.2337 64.0665 27.312 63.594 27.0212 63.3508C25.3586 61.9586 24.5555 59.6845 25.1538 57.4522C25.7653 55.1704 27.6663 53.5833 29.8629 53.2548C30.2332 53.1996 30.4199 52.7572 30.2053 52.4504C28.9613 50.676 28.7747 48.2732 29.93 46.273C30.995 44.428 32.9261 43.4006 34.9129 43.4006C35.1296 43.4006 35.3469 43.4126 35.5643 43.4377C35.5832 43.4398 35.6027 43.4405 35.6216 43.4405C35.9655 43.4405 36.2247 43.0826 36.1031 42.7492C35.3609 40.7128 35.8026 38.3435 37.4358 36.7103C38.5582 35.5879 40.0273 35.0288 41.497 35.0288C42.2155 35.0288 42.9339 35.1623 43.6125 35.43C43.6726 35.4538 43.7341 35.4642 43.7943 35.4642C44.0808 35.4642 44.3387 35.2126 44.3114 34.9044C44.1213 32.7456 45.1612 30.5714 47.1622 29.4161C48.0665 28.894 49.0533 28.6459 50.0269 28.6459C51.2555 28.6459 52.4638 29.0408 53.459 29.7782C53.5499 29.8445 53.6533 29.8753 53.7553 29.8753C53.993 29.8753 54.225 29.7096 54.2705 29.451C54.6457 27.3167 56.2126 25.4863 58.4441 24.888C58.9424 24.7546 59.4421 24.691 59.9341 24.691C61.696 24.691 63.3523 25.5087 64.4335 26.8673C64.5348 26.9952 64.6823 27.056 64.8297 27.056C65.0212 27.056 65.212 26.9532 65.3015 26.7618C66.2164 24.7972 68.2039 23.4344 70.5137 23.4344Z" fill="black"/>
</g>
<path fill-rule="evenodd" clip-rule="evenodd" d="M206.964 96.7385C207.762 97.5676 208.162 98.6336 208.162 99.9365C208.162 101.239 207.634 102.305 206.58 103.134C205.526 103.964 204.168 104.378 202.507 104.378H200.782C197.651 104.378 194.792 103.623 192.204 102.113C189.616 100.603 187.587 98.5448 186.118 95.939C184.648 93.3333 183.913 90.4018 183.913 87.1446V65.203H179.505C178.163 65.203 177.077 64.8477 176.246 64.137C175.415 63.4263 175 62.538 175 61.472C175 60.2876 175.415 59.3401 176.246 58.6294C177.077 57.9187 178.163 57.5634 179.505 57.5634H183.913V44.7715C183.913 43.4686 184.361 42.4027 185.255 41.5736C186.15 40.7444 187.3 40.3299 188.706 40.3299C190.111 40.3299 191.261 40.7444 192.156 41.5736C193.05 42.4027 193.498 43.4686 193.498 44.7715V57.5634H201.644C202.986 57.5634 204.072 57.9187 204.903 58.6294C205.734 59.3401 206.149 60.2876 206.149 61.472C206.149 62.538 205.734 63.4263 204.903 64.137C204.072 64.8477 202.986 65.203 201.644 65.203H193.498V87.1446C193.498 89.5135 194.2 91.4974 195.606 93.0964C197.012 94.6954 198.737 95.4949 200.782 95.4949H204.04C205.19 95.4949 206.165 95.9094 206.964 96.7385ZM256.323 58.6738C260.316 60.8354 263.479 63.7965 265.811 67.5571C268.143 71.3177 269.309 75.5076 269.309 80.1269V99.9365C269.309 101.239 268.846 102.32 267.919 103.179C266.993 104.038 265.827 104.467 264.421 104.467C263.016 104.467 261.849 104.038 260.923 103.179C259.996 102.32 259.533 101.239 259.533 99.9365V96.6497C257.297 99.1963 254.581 101.18 251.387 102.601C248.192 104.023 244.742 104.733 241.036 104.733C236.435 104.733 232.266 103.667 228.528 101.535C224.79 99.4035 221.851 96.4573 219.711 92.6967C217.57 88.9361 216.5 84.7462 216.5 80.1269C216.5 75.5076 217.65 71.3177 219.95 67.5571C222.25 63.7965 225.429 60.8354 229.487 58.6738C233.544 56.5122 238.033 55.4314 242.952 55.4314C247.872 55.4314 252.329 56.5122 256.323 58.6738ZM251.626 94.5622C254.214 93.1112 256.243 91.1273 257.712 88.6104C259.182 86.0934 259.917 83.2656 259.917 80.1269C259.917 76.9881 259.182 74.1455 257.712 71.599C256.243 69.0524 254.214 67.0537 251.626 65.6028C249.038 64.1518 246.147 63.4264 242.952 63.4264C239.758 63.4264 236.866 64.1518 234.279 65.6028C231.691 67.0537 229.646 69.0524 228.145 71.599C226.643 74.1455 225.892 76.9881 225.892 80.1269C225.892 83.2656 226.643 86.0934 228.145 88.6104C229.646 91.1273 231.691 93.1112 234.279 94.5622C236.866 96.0131 239.758 96.7386 242.952 96.7386C246.147 96.7386 249.038 96.0131 251.626 94.5622ZM289.724 102.868C285.89 101.624 282.887 99.9957 280.714 97.9822C279.884 97.2123 279.469 96.2944 279.469 95.2284C279.469 93.8071 280.107 92.6523 281.385 91.7639C282.599 90.9348 283.718 90.5203 284.74 90.5203C286.018 90.5203 287.232 91.0533 288.382 92.1193C289.596 93.3629 291.417 94.4437 293.845 95.3616C296.273 96.2796 298.861 96.7385 301.608 96.7385C305.25 96.7385 308.078 96.1759 310.09 95.0507C312.103 93.9255 313.109 92.4154 313.109 90.5203C313.109 88.6844 312.119 87.1594 310.138 85.9454C308.157 84.7313 304.803 83.7098 300.075 82.8807C287.807 80.6895 281.673 76.011 281.673 68.8451C281.673 65.9433 282.599 63.4856 284.452 61.472C286.305 59.4585 288.733 57.9484 291.736 56.9416C294.739 55.9348 297.934 55.4314 301.321 55.4314C305.474 55.4314 309.196 56.0533 312.486 57.2969C315.777 58.5406 318.381 60.258 320.297 62.4492C321.128 63.3967 321.543 64.3443 321.543 65.2918C321.543 66.2986 321 67.2165 319.914 68.0456C319.211 68.5194 318.317 68.7563 317.231 68.7563C315.569 68.7563 314.068 68.1937 312.726 67.0685C311.129 65.7064 309.435 64.744 307.646 64.1814C305.857 63.6188 303.685 63.3375 301.129 63.3375C298.19 63.3375 295.778 63.7965 293.893 64.7144C292.008 65.6324 291.065 66.9204 291.065 68.5786C291.065 69.7631 291.385 70.755 292.024 71.5545C292.663 72.354 293.877 73.0943 295.666 73.7753C297.455 74.4564 300.043 75.1226 303.429 75.7741C310.394 77.077 315.33 78.8832 318.237 81.1929C321.144 83.5025 322.598 86.4932 322.598 90.1649C322.598 92.8891 321.799 95.3616 320.202 97.5825C318.604 99.8033 316.256 101.55 313.157 102.824C310.058 104.097 306.336 104.733 301.992 104.733C297.647 104.733 293.557 104.112 289.724 102.868ZM374.64 100.647C374.64 101.95 374.065 103.046 372.915 103.934C371.957 104.645 370.934 105 369.848 105C368.442 105 367.292 104.467 366.398 103.401L348.188 82.5254L343.396 86.434V100.025C343.396 101.328 342.964 102.379 342.102 103.179C341.239 103.978 340.105 104.378 338.699 104.378C337.294 104.378 336.159 103.978 335.297 103.179C334.434 102.379 334.003 101.328 334.003 100.025V39.3528C334.003 38.0499 334.434 36.9987 335.297 36.1992C336.159 35.3997 337.294 35 338.699 35C340.105 35 341.239 35.3997 342.102 36.1992C342.964 36.9987 343.396 38.0499 343.396 39.3528V75.5076L366.685 56.231C367.516 55.4611 368.506 55.0761 369.656 55.0761C370.998 55.0761 372.085 55.5499 372.915 56.4975C373.746 57.2673 374.161 58.1853 374.161 59.2513C374.161 60.4949 373.65 61.5017 372.628 62.2716L354.993 76.8401L373.586 97.9822C374.289 98.6929 374.64 99.5812 374.64 100.647ZM419.926 58.6738C423.919 60.8354 427.082 63.7965 429.414 67.5571C431.747 71.3177 432.913 75.5076 432.913 80.1269V99.9365C432.913 101.239 432.449 102.32 431.523 103.179C430.596 104.038 429.43 104.467 428.025 104.467C426.619 104.467 425.453 104.038 424.526 103.179C423.6 102.32 423.137 101.239 423.137 99.9365V96.6497C420.9 99.1963 418.185 101.18 414.99 102.601C411.795 104.023 408.345 104.733 404.639 104.733C400.039 104.733 395.869 103.667 392.132 101.535C388.394 99.4035 385.455 96.4573 383.314 92.6967C381.174 88.9361 380.103 84.7462 380.103 80.1269C380.103 75.5076 381.253 71.3177 383.554 67.5571C385.854 63.7965 389.033 60.8354 393.09 58.6738C397.147 56.5122 401.636 55.4314 406.556 55.4314C411.476 55.4314 415.932 56.5122 419.926 58.6738ZM415.23 94.5622C417.817 93.1112 419.846 91.1273 421.316 88.6104C422.785 86.0934 423.52 83.2656 423.52 80.1269C423.52 76.9881 422.785 74.1455 421.316 71.599C419.846 69.0524 417.817 67.0537 415.23 65.6028C412.642 64.1518 409.751 63.4264 406.556 63.4264C403.361 63.4264 400.47 64.1518 397.882 65.6028C395.294 67.0537 393.25 69.0524 391.748 71.599C390.247 74.1455 389.496 76.9881 389.496 80.1269C389.496 83.2656 390.247 86.0934 391.748 88.6104C393.25 91.1273 395.294 93.1112 397.882 94.5622C400.47 96.0131 403.361 96.7386 406.556 96.7386C409.751 96.7386 412.642 96.0131 415.23 94.5622ZM495.306 36.2437C496.201 37.0728 496.648 38.1684 496.648 39.5305V80.0381C496.648 84.6574 495.482 88.8473 493.15 92.6079C490.818 96.3685 487.655 99.3295 483.661 101.491C479.668 103.653 475.211 104.734 470.291 104.734C465.371 104.734 460.883 103.653 456.825 101.491C452.768 99.3295 449.589 96.3685 447.289 92.6079C444.989 88.8473 443.839 84.6574 443.839 80.0381C443.839 75.4188 444.909 71.2289 447.049 67.4683C449.19 63.7077 452.129 60.7614 455.867 58.6294C459.605 56.4975 463.774 55.4315 468.374 55.4315C472.08 55.4315 475.531 56.1421 478.725 57.5635C481.92 58.9848 484.636 60.9687 486.872 63.5152V39.5305C486.872 38.1684 487.335 37.0728 488.262 36.2437C489.188 35.4145 490.354 35 491.76 35C493.23 35 494.412 35.4145 495.306 36.2437ZM478.965 94.5622C481.553 93.1112 483.581 91.1125 485.051 88.566C486.521 86.0194 487.255 83.1768 487.255 80.038C487.255 76.8993 486.521 74.0715 485.051 71.5545C483.581 69.0376 481.553 67.0537 478.965 65.6028C476.377 64.1518 473.486 63.4264 470.291 63.4264C467.096 63.4264 464.205 64.1518 461.617 65.6028C459.03 67.0537 456.985 69.0376 455.484 71.5545C453.982 74.0715 453.231 76.8993 453.231 80.038C453.231 83.1768 453.982 86.0194 455.484 88.566C456.985 91.1125 459.03 93.1112 461.617 94.5622C464.205 96.0131 467.096 96.7386 470.291 96.7386C473.486 96.7386 476.377 96.0131 478.965 94.5622ZM558.754 82.1256C557.923 82.8659 556.869 83.236 555.591 83.236H519.171C519.874 87.3815 521.903 90.7275 525.257 93.2741C528.612 95.8206 532.717 97.0939 537.573 97.0939C539.49 97.0939 541.486 96.7682 543.563 96.1167C545.64 95.4653 547.349 94.6658 548.691 93.7182C549.585 93.0668 550.639 92.7411 551.853 92.7411C553.067 92.7411 554.026 93.0372 554.729 93.6294C555.879 94.5177 556.454 95.5245 556.454 96.6497C556.454 97.7157 555.943 98.604 554.92 99.3147C552.748 100.914 550.048 102.217 546.822 103.223C543.595 104.23 540.512 104.733 537.573 104.733C532.333 104.733 527.637 103.682 523.484 101.58C519.331 99.4775 516.088 96.5609 513.756 92.8299C511.424 89.0989 510.258 84.8646 510.258 80.1269C510.258 75.3891 511.36 71.14 513.564 67.3794C515.769 63.6188 518.836 60.6874 522.765 58.585C526.695 56.4826 531.151 55.4314 536.135 55.4314C541.055 55.4314 545.304 56.4382 548.882 58.4517C552.46 60.4653 555.208 63.2783 557.125 66.8908C559.042 70.5034 560 74.6488 560 79.3274C560 80.4526 559.585 81.3853 558.754 82.1256ZM524.778 66.6244C521.871 68.9932 520.034 72.1616 519.267 76.1294H551.182C550.607 72.1616 549.01 68.9932 546.39 66.6244C543.771 64.2555 540.352 63.0711 536.135 63.0711C531.471 63.0711 527.685 64.2555 524.778 66.6244Z" fill="black"/>
</svg>
