<?xml version="1.0" standalone="no"?>
<!DOCTYPE svg PUBLIC "-//W3C//DTD SVG 20010904//EN"
 "http://www.w3.org/TR/2001/REC-SVG-20010904/DTD/svg10.dtd">
<svg version="1.0" xmlns="http://www.w3.org/2000/svg"
 width="4096.000000pt" height="3883.000000pt" viewBox="0 0 4096.000000 3883.000000"
 preserveAspectRatio="xMidYMid meet">

<g transform="translate(0.000000,3883.000000) scale(0.100000,-0.100000)"
fill="#000000" stroke="none">
<path d="M21905 35163 c-1378 -32 -2890 -213 -4158 -499 -804 -180 -1515 -391
-2392 -709 -781 -283 -1325 -514 -1995 -849 -1386 -693 -2655 -1558 -3851
-2623 -1438 -1281 -2560 -2756 -3448 -4533 -224 -449 -304 -640 -559 -1340
-77 -212 -190 -518 -250 -680 -567 -1522 -847 -2917 -942 -4695 -13 -245 -13
-1013 0 -1265 58 -1110 247 -2273 515 -3167 366 -1218 760 -2179 1320 -3218
549 -1019 1195 -1932 1974 -2790 195 -215 664 -683 886 -884 525 -476 1090
-914 1756 -1363 1526 -1027 3269 -1770 5109 -2177 959 -212 1868 -326 2980
-372 567 -23 1491 -3 2090 46 2163 178 4251 756 6225 1724 465 228 1175 612
1175 635 0 14 -470 1309 -479 1318 -9 10 -194 -62 -576 -225 -371 -157 -516
-213 -880 -337 -1125 -382 -2109 -607 -3360 -769 -781 -102 -1309 -141 -1991
-148 -940 -10 -1578 37 -2587 193 -677 104 -1165 209 -1747 375 -1688 483
-3178 1219 -4566 2255 -896 669 -1570 1295 -2180 2024 -1487 1780 -2379 3941
-2608 6325 -56 574 -46 1384 25 2170 56 623 148 1193 275 1700 365 1458 860
2638 1682 4013 452 757 1030 1530 1623 2172 210 228 728 758 883 905 139 130
305 278 481 426 50 42 187 148 305 236 1056 784 2126 1411 3330 1950 559 251
1348 548 1995 753 1083 342 2205 580 3345 709 687 78 1289 111 2025 111 963 0
1874 -58 2745 -176 1003 -135 2094 -403 3004 -738 1231 -454 2220 -1153 2882
-2036 85 -113 261 -381 329 -499 307 -539 520 -1209 566 -1776 12 -150 10
-279 -10 -695 -6 -113 -12 -405 -13 -650 -3 -418 -2 -455 20 -615 41 -301 113
-617 180 -798 69 -182 254 -549 386 -763 130 -213 415 -595 633 -850 169 -198
507 -535 718 -715 184 -158 315 -289 413 -413 106 -132 143 -229 143 -368 1
-152 -37 -252 -148 -390 -97 -121 -313 -331 -428 -418 -55 -41 -192 -145 -305
-231 -113 -86 -257 -191 -320 -234 -210 -142 -441 -344 -509 -447 -105 -156
-115 -376 -25 -557 32 -65 64 -102 243 -285 204 -208 245 -258 314 -386 85
-157 88 -294 10 -458 -37 -78 -273 -314 -398 -398 -228 -154 -324 -190 -655
-244 -274 -45 -390 -68 -403 -79 -16 -16 165 -31 363 -31 238 0 330 -15 475
-75 119 -48 172 -83 244 -160 73 -79 95 -134 109 -280 18 -181 1 -270 -90
-449 -101 -202 -145 -262 -333 -456 -72 -74 -173 -182 -225 -240 -52 -58 -132
-144 -177 -192 -95 -102 -138 -181 -153 -283 -12 -83 -6 -126 43 -290 20 -66
53 -181 73 -255 20 -74 48 -157 62 -184 82 -165 159 -445 169 -616 18 -314
-102 -629 -321 -845 -44 -44 -143 -127 -219 -184 -328 -247 -829 -436 -1337
-506 -266 -37 -797 -30 -1147 15 -392 51 -658 120 -1128 295 -340 127 -538
210 -746 315 -186 93 -272 128 -397 159 -481 122 -1122 21 -1631 -256 -172
-93 -321 -206 -676 -509 -480 -409 -571 -479 -840 -641 -588 -354 -935 -466
-1485 -480 -186 -4 -241 -2 -314 11 -262 50 -486 165 -686 353 -316 298 -548
735 -704 1324 -118 446 -155 861 -143 1599 7 425 53 1005 107 1365 5 33 16
128 25 210 39 364 128 802 265 1304 27 97 85 307 129 467 86 316 262 994 336
1299 166 684 224 925 371 1550 302 1285 335 1427 480 2025 151 623 346 1393
515 2035 220 834 549 2002 575 2042 7 12 14 36 14 53 l0 30 -1073 0 -1073 0
-38 -132 c-21 -73 -60 -216 -87 -318 -27 -102 -52 -191 -54 -198 -3 -9 -58 37
-148 121 -234 223 -386 341 -602 472 -351 211 -742 351 -1165 417 -126 19
-184 22 -445 22 -317 0 -388 -6 -710 -60 -500 -84 -966 -243 -1490 -509 -830
-420 -1678 -1102 -2300 -1850 -429 -514 -886 -1184 -1231 -1800 -194 -347
-433 -849 -589 -1235 -176 -437 -421 -1197 -545 -1688 -140 -558 -245 -1209
-290 -1787 -6 -77 -17 -198 -25 -270 -40 -367 -45 -914 -10 -1280 68 -722 202
-1228 470 -1780 99 -203 170 -322 280 -470 367 -494 879 -838 1459 -980 327
-80 612 -110 961 -102 347 9 585 43 910 132 753 207 1402 560 2015 1099 241
211 612 590 810 828 35 43 65 76 67 74 2 -1 -6 -47 -17 -102 -89 -431 -115
-761 -107 -1357 6 -425 13 -561 52 -907 69 -626 218 -1309 405 -1854 227 -663
575 -1243 1004 -1671 245 -244 495 -425 781 -565 456 -223 829 -310 1265 -297
212 7 326 23 562 77 708 165 1196 416 1813 936 148 124 505 463 635 604 229
247 462 437 807 656 273 174 452 260 690 328 214 62 350 80 588 80 192 -1 225
-3 385 -33 856 -156 1353 -217 1944 -241 615 -24 1404 51 1861 176 428 118
868 315 1246 560 403 260 654 627 724 1059 21 129 19 327 -6 497 -47 331 -94
481 -240 771 -114 226 -158 357 -172 514 -10 114 -9 130 11 221 24 107 78 228
150 336 25 39 126 153 223 253 243 250 352 400 441 604 69 162 81 221 82 409
1 192 -6 221 -105 453 -32 77 -59 154 -59 172 0 58 35 117 144 245 284 331
419 616 433 917 6 132 -5 233 -39 337 -27 85 -128 292 -176 363 -62 90 -157
195 -189 208 -24 10 -35 26 -56 84 -32 87 -34 151 -7 225 28 73 87 138 173
188 244 141 597 407 829 624 107 100 275 279 353 377 96 119 287 401 327 482
100 200 142 440 103 589 -30 116 -80 191 -220 336 -209 216 -283 296 -409 445
-156 183 -317 360 -621 685 -136 146 -278 299 -314 340 -449 510 -719 1144
-791 1859 -5 57 -10 198 -10 315 0 338 23 629 85 1076 47 339 59 534 52 835
-14 561 -97 1045 -273 1588 -238 732 -598 1379 -1101 1977 -117 139 -578 602
-758 761 -684 605 -1351 1056 -2122 1434 -669 329 -1343 599 -2039 819 -1456
459 -3111 745 -4659 806 -221 9 -870 10 -1180 3z m-1915 -8623 c299 -18 467
-71 680 -213 104 -70 275 -243 343 -347 103 -159 192 -360 252 -565 86 -299
137 -848 115 -1243 -13 -239 -24 -323 -95 -727 -220 -1260 -456 -2269 -801
-3420 -150 -498 -422 -1294 -612 -1785 -97 -250 -316 -797 -360 -895 -238
-539 -585 -1091 -993 -1582 -454 -544 -691 -768 -1114 -1049 -325 -216 -581
-326 -915 -394 -120 -25 -305 -29 -410 -10 -220 40 -439 156 -586 311 -173
184 -343 487 -423 758 -60 200 -134 601 -163 881 -20 196 -17 1063 5 1350 49
621 133 1165 258 1660 26 107 74 321 104 475 252 1270 613 2426 1088 3486 328
732 820 1541 1218 2004 198 231 549 571 784 761 257 206 615 387 955 483 168
47 227 56 480 69 14 1 99 -3 190 -8z m-413 -10784 c-3 -8 -16 -20 -27 -26 -22
-12 -22 -11 1 19 23 31 36 35 26 7z"/>
</g>
</svg>
