<?xml version="1.0" standalone="no"?>
<!DOCTYPE svg PUBLIC "-//W3C//DTD SVG 20010904//EN"
 "http://www.w3.org/TR/2001/REC-SVG-20010904/DTD/svg10.dtd">
<svg version="1.0" xmlns="http://www.w3.org/2000/svg"
 width="5209.000000pt" height="1352.000000pt" viewBox="0 0 5209.000000 1352.000000"
 preserveAspectRatio="xMidYMid meet">

<g transform="translate(0.000000,1352.000000) scale(0.100000,-0.100000)"
fill="#000000" stroke="none">
<path d="M7135 13503 c-63 -7 -221 -46 -282 -69 -144 -54 -314 -155 -421 -249
l-52 -47 72 -50 c93 -65 256 -230 332 -337 171 -240 301 -532 389 -876 192
-748 162 -1651 -94 -2850 -305 -1428 -893 -2893 -1587 -3950 -383 -585 -740
-942 -959 -962 -109 -10 -181 41 -220 157 -27 83 -25 410 5 620 60 417 151
860 366 1790 58 250 125 547 150 660 316 1454 401 2421 281 3202 -160 1038
-714 1631 -1672 1787 -368 60 -872 53 -1268 -19 -511 -93 -974 -296 -1331
-584 -635 -512 -952 -1325 -803 -2059 125 -618 549 -1068 1162 -1232 120 -32
117 -33 107 13 -49 220 -62 749 -27 1012 116 854 512 1593 1043 1946 208 139
385 198 589 197 183 0 284 -41 394 -159 99 -105 157 -246 198 -479 25 -142 25
-648 0 -895 -55 -541 -135 -1006 -428 -2495 -267 -1356 -366 -1965 -426 -2615
-25 -278 -26 -967 0 -1155 89 -656 307 -1045 692 -1235 201 -99 396 -135 685
-127 193 5 306 20 475 63 1016 255 2017 1238 2894 2844 860 1575 1511 3635
1612 5104 15 224 7 755 -15 936 -75 614 -232 1064 -504 1450 -92 131 -302 339
-422 419 -258 172 -513 253 -784 250 -67 -1 -134 -4 -151 -6z"/>
<path d="M17208 13285 c-465 -88 -828 -490 -948 -1050 -31 -142 -38 -395 -16
-534 55 -348 229 -609 491 -736 130 -63 224 -86 386 -92 214 -9 371 23 544
110 115 57 188 110 286 204 205 198 356 493 410 802 24 137 28 355 9 476 -65
417 -316 715 -680 806 -112 28 -369 35 -482 14z"/>
<path d="M32864 13285 c-289 -43 -553 -154 -794 -334 -103 -77 -286 -256 -385
-376 -405 -493 -732 -1221 -1040 -2317 l-16 -57 -417 -3 -417 -3 -47 -27
c-140 -83 -248 -317 -251 -543 -2 -182 52 -281 165 -304 29 -6 208 -13 398
-16 260 -5 344 -9 343 -18 -1 -7 -20 -95 -42 -197 -93 -433 -231 -1150 -311
-1620 l-38 -227 -67 -134 c-244 -488 -625 -1063 -1007 -1521 -836 -1003 -1707
-1566 -2428 -1571 -213 -2 -331 44 -471 183 -172 169 -274 416 -329 789 -25
170 -42 491 -33 624 l6 97 177 0 c783 0 1491 216 2070 630 879 629 1361 1666
1180 2538 -62 300 -196 549 -405 757 -263 263 -591 415 -1050 487 -119 19
-181 22 -415 22 -234 0 -296 -3 -415 -22 -274 -43 -519 -119 -760 -236 -342
-166 -594 -352 -890 -657 -299 -308 -527 -641 -745 -1084 -287 -582 -467
-1214 -531 -1865 l-13 -125 -84 -135 c-404 -647 -884 -1218 -1312 -1563 -404
-326 -773 -480 -1110 -464 -485 23 -783 382 -891 1074 -30 195 -38 652 -15
913 112 1287 650 2642 1223 3083 288 221 594 205 713 -36 121 -247 56 -711
-162 -1169 l-61 -128 18 -67 c48 -177 169 -326 326 -401 415 -198 896 26 1144
533 56 114 117 299 146 441 30 153 38 435 15 591 -71 480 -363 890 -788 1104
-269 135 -536 193 -893 192 -337 0 -624 -51 -934 -164 -968 -355 -1785 -1294
-2210 -2543 -166 -485 -262 -993 -278 -1456 l-6 -185 -78 -155 c-353 -706
-815 -1167 -1199 -1197 -87 -6 -134 5 -181 44 -74 62 -101 177 -101 423 0 366
65 853 267 1985 116 649 284 1689 306 1895 17 159 6 409 -25 541 -89 386 -314
613 -704 712 -77 19 -113 22 -322 22 -255 0 -351 -12 -609 -75 -437 -107 -913
-323 -1358 -616 l-143 -94 -36 73 c-135 268 -349 478 -585 570 -159 63 -318
85 -476 68 -233 -27 -436 -115 -610 -268 -258 -225 -413 -625 -374 -964 29
-262 164 -494 379 -657 128 -96 332 -190 477 -220 l40 -8 -1 -145 c-6 -508
-176 -1278 -419 -1889 -64 -162 -207 -464 -286 -603 -312 -551 -692 -927
-1055 -1040 -274 -86 -476 -48 -645 122 -167 167 -270 437 -321 841 -20 161
-17 752 5 950 116 1031 455 2034 927 2740 221 329 495 616 750 781 24 16 24
17 11 70 -40 162 -157 303 -311 377 -47 22 -113 48 -147 56 -305 78 -717 13
-1098 -174 -227 -110 -400 -236 -600 -435 -406 -404 -742 -984 -976 -1685
-284 -853 -382 -1763 -278 -2580 67 -525 233 -1020 460 -1370 333 -514 802
-811 1409 -891 138 -18 468 -16 620 5 971 132 1772 783 2398 1951 464 865 821
2107 883 3070 16 249 3 219 124 303 489 342 954 537 1119 468 47 -20 66 -51
66 -111 0 -66 -53 -431 -146 -1005 -41 -256 -99 -616 -129 -800 -225 -1394
-288 -2108 -235 -2640 81 -805 399 -1194 1026 -1252 196 -18 404 9 612 78 572
189 1139 688 1620 1423 55 84 102 149 105 144 2 -4 12 -33 22 -63 59 -183 184
-448 281 -597 366 -562 873 -874 1574 -969 172 -23 514 -23 665 0 592 92 1130
377 1683 894 245 228 551 582 787 910 33 45 62 82 65 82 3 0 13 -37 24 -82 68
-307 214 -659 373 -903 341 -523 811 -816 1453 -906 111 -16 486 -16 620 0
790 93 1466 428 2155 1068 374 348 811 902 1099 1396 38 64 71 115 73 113 3
-2 -16 -168 -41 -368 -25 -199 -64 -511 -86 -693 -186 -1498 -359 -2379 -590
-3000 -113 -303 -291 -683 -466 -995 -137 -244 -138 -247 -142 -314 -3 -51 0
-66 20 -95 69 -101 277 -116 571 -42 333 84 629 259 897 530 153 155 229 256
384 516 286 480 448 891 615 1561 212 851 367 1834 576 3659 159 1393 260
2176 368 2855 l23 145 290 5 290 5 75 37 c233 115 421 430 379 633 -10 50 -20
68 -59 106 -27 28 -62 51 -86 58 -49 15 -322 30 -552 30 -151 1 -173 3 -173
17 0 48 139 651 210 910 187 683 392 1136 615 1360 110 111 183 147 309 152
113 5 181 -18 254 -84 154 -138 221 -387 222 -819 0 -353 -33 -633 -150 -1265
-284 -1538 -550 -3278 -734 -4810 -101 -834 -111 -1182 -45 -1570 106 -633
432 -1003 964 -1096 136 -24 370 -24 490 0 566 111 1182 577 1746 1322 l87
113 42 -107 c91 -229 229 -471 368 -643 86 -106 261 -271 373 -351 245 -176
562 -294 909 -340 155 -20 489 -15 660 11 848 127 1558 633 2142 1526 511 781
902 1871 1056 2941 l27 188 210 77 c251 91 464 177 654 264 78 35 141 62 141
59 0 -3 -16 -88 -35 -189 -247 -1307 -401 -2717 -356 -3260 28 -338 99 -610
221 -855 204 -407 532 -664 937 -735 100 -17 321 -20 443 -5 848 105 1615 766
2275 1958 37 67 71 122 75 122 4 0 10 -74 14 -164 33 -803 274 -1378 708
-1687 96 -68 290 -162 403 -194 173 -50 303 -67 510 -68 274 -1 480 37 731
134 511 198 1033 628 1519 1254 457 587 934 1449 1290 2331 491 1214 799 2513
745 3139 -45 525 -272 895 -662 1080 -321 152 -709 144 -1038 -20 -294 -148
-505 -401 -596 -714 -73 -252 -72 -547 2 -811 31 -108 138 -324 206 -415 79
-105 204 -224 304 -290 49 -32 93 -61 97 -65 4 -4 -8 -81 -28 -171 -285 -1305
-1027 -3004 -1660 -3799 -92 -115 -249 -276 -330 -337 -99 -75 -194 -116 -284
-121 -69 -3 -81 -1 -131 25 -427 223 -231 1791 648 5173 49 190 93 364 97 388
9 57 -10 132 -46 182 -233 321 -1307 213 -1716 -173 -95 -89 -106 -112 -142
-297 -211 -1076 -542 -2179 -921 -3070 -475 -1118 -1007 -1892 -1444 -2099
-102 -49 -171 -65 -255 -59 -308 22 -392 422 -290 1373 76 715 239 1560 600
3125 207 896 217 955 185 1064 -44 146 -194 215 -445 203 -155 -7 -282 -33
-472 -96 -123 -41 -256 -104 -865 -408 -853 -425 -1333 -658 -1340 -650 -4 3
-19 45 -36 94 -69 205 -171 377 -307 516 -193 199 -419 301 -691 314 -508 23
-970 -322 -1099 -820 -47 -181 -51 -347 -11 -500 87 -342 392 -617 796 -718
l87 -22 -6 -142 c-30 -683 -247 -1507 -568 -2147 -95 -190 -144 -276 -255
-443 -318 -482 -670 -772 -1029 -846 -224 -46 -401 -5 -544 126 -164 152 -266
392 -323 760 -26 167 -36 606 -19 822 62 771 270 1548 597 2221 310 640 662
1079 1093 1363 23 15 24 17 12 65 -50 198 -198 337 -436 410 -86 27 -99 28
-300 28 -192 0 -220 -2 -332 -27 -434 -97 -788 -300 -1124 -643 -533 -546
-937 -1381 -1133 -2339 -83 -409 -108 -652 -112 -1110 l-3 -369 -96 -143
c-325 -483 -675 -865 -935 -1019 -113 -67 -173 -87 -260 -88 -65 -1 -81 3
-121 26 -83 49 -140 132 -176 259 -15 54 -18 99 -17 284 3 578 124 1488 548
4120 278 1726 274 1698 283 2092 10 464 -31 792 -144 1138 -47 145 -147 355
-230 479 -87 132 -283 330 -408 413 -236 158 -502 251 -823 288 -154 18 -442
18 -568 0z m-5420 -4084 c109 -54 190 -161 231 -306 23 -82 31 -299 15 -421
-48 -382 -251 -839 -528 -1186 -296 -371 -692 -641 -1102 -752 -95 -25 -289
-60 -296 -53 -14 13 99 532 171 791 301 1079 759 1831 1188 1951 35 10 85 14
154 12 91 -3 109 -7 167 -36z"/>
</g>
</svg>
